{"glyphs":{"0":{"ha":1423,"x_min":26,"x_max":1398,"o":"m 869 401 q 938 452 888 429 q 910 387 922 408 q 885 361 899 366 q 859 367 863 353 q 869 401 855 380 m 392 570 q 418 555 410 600 q 419 498 424 519 l 419 497 q 392 530 401 507 q 392 570 382 553 m 1396 578 q 1386 533 1398 553 q 1392 516 1392 526 q 1375 465 1392 482 q 1327 430 1358 445 q 1268 415 1297 415 q 1219 431 1239 415 q 1202 449 1210 438 q 1125 412 1168 412 q 1092 418 1109 412 q 1091 415 1092 417 q 1090 413 1090 414 q 1068 323 1067 336 q 1067 303 1071 313 q 1055 288 1063 294 q 1038 283 1047 283 q 1017 292 1025 283 q 988 326 1000 306 q 956 292 973 304 q 894 269 924 269 q 840 302 868 269 q 817 336 827 315 q 810 371 809 350 q 808 372 810 372 q 807 374 807 373 q 782 368 796 368 q 722 407 746 368 q 716 419 718 414 q 714 421 715 420 q 712 424 713 423 l 709 401 q 692 374 707 383 q 677 370 686 370 q 661 374 669 370 q 659 376 661 375 q 655 378 657 376 q 650 381 652 379 q 643 379 650 381 l 639 378 q 631 378 635 378 q 578 406 597 378 q 536 380 559 382 q 532 380 534 380 q 528 380 529 380 q 477 404 494 380 q 399 358 445 358 q 340 382 366 358 q 343 356 340 372 q 329 324 347 335 q 312 319 321 319 q 294 325 301 319 l 292 327 q 287 331 290 328 q 280 336 284 333 q 272 345 277 340 q 263 355 268 349 q 254 368 259 361 q 244 384 249 376 q 225 411 232 399 q 231 351 220 370 q 230 320 239 336 q 203 304 221 304 q 144 333 169 304 q 100 417 106 378 q 83 411 91 411 q 72 413 77 411 q 38 444 49 422 q 28 480 26 465 q 29 489 28 482 q 37 508 31 495 q 53 532 43 520 q 83 556 63 544 q 129 576 103 569 q 156 662 144 633 q 173 696 168 690 q 187 705 178 701 q 200 707 193 707 q 264 668 227 707 q 268 663 267 665 q 317 756 284 701 q 374 787 336 787 q 425 774 399 787 q 449 746 433 770 q 465 713 465 722 q 451 685 467 695 q 432 667 444 680 q 470 635 455 654 q 476 618 475 628 l 477 618 q 479 616 479 617 q 499 643 489 634 q 555 665 522 665 q 610 640 592 665 q 625 641 615 641 q 684 768 646 706 q 741 798 703 798 q 791 785 766 798 q 808 758 807 777 l 808 756 q 930 759 851 759 l 985 759 q 1022 762 1004 759 q 1048 768 1040 765 l 1057 770 q 1068 772 1063 772 q 1091 763 1082 772 q 1104 744 1095 759 q 1114 729 1114 730 q 1121 694 1128 711 q 1113 680 1118 688 q 1141 656 1136 675 q 1141 648 1141 654 q 1155 650 1149 650 q 1199 631 1181 650 q 1225 656 1209 643 q 1290 678 1255 678 q 1375 629 1339 678 q 1396 578 1394 606 m 288 385 q 298 523 279 442 q 350 666 318 604 q 410 746 382 728 q 396 752 405 749 q 370 754 388 755 q 344 740 352 753 q 288 631 309 684 q 262 540 267 578 q 257 481 258 502 q 260 447 257 461 q 235 531 240 481 q 236 613 231 581 l 241 646 q 232 654 238 649 q 215 668 227 660 q 198 675 203 677 q 154 550 187 671 q 110 535 129 545 q 82 516 92 526 q 67 497 73 507 q 61 483 62 488 l 60 477 q 144 513 74 498 q 133 460 134 469 q 132 417 129 434 q 143 390 135 399 q 159 376 151 380 q 174 371 167 372 l 180 370 q 169 421 170 389 q 176 484 169 452 q 191 544 182 515 q 206 591 199 573 l 214 609 q 226 494 215 546 q 249 432 233 460 q 277 395 264 405 l 288 385 m 576 471 q 589 450 579 456 q 606 444 598 443 l 614 444 q 610 450 612 446 q 605 471 608 454 q 607 513 602 488 q 616 558 610 534 q 627 595 622 582 l 631 610 q 586 595 595 611 q 559 539 571 568 q 534 492 547 511 q 507 472 515 465 q 509 508 500 478 q 531 566 517 537 q 557 607 547 599 q 587 609 567 615 q 579 627 590 619 q 551 633 568 634 q 520 620 533 631 q 477 525 492 593 q 448 496 465 503 q 454 545 455 526 q 439 599 452 585 q 405 611 427 614 q 445 616 422 623 q 436 626 441 620 q 413 641 430 633 q 381 643 396 648 q 333 568 355 633 q 321 468 310 503 q 366 424 334 431 q 429 456 399 418 q 443 481 437 468 q 473 500 458 485 q 473 472 471 483 q 511 446 478 443 q 544 476 524 446 q 575 535 563 506 l 587 564 q 583 548 585 557 q 575 510 580 538 q 576 471 570 483 m 772 437 q 766 445 769 439 q 758 470 763 450 q 761 515 753 489 q 774 561 766 538 q 786 594 781 583 l 791 604 l 761 618 q 751 618 755 621 q 663 518 696 579 q 715 667 680 594 q 777 757 749 739 q 763 763 772 760 q 737 766 755 766 q 711 751 719 765 q 640 574 662 673 q 625 471 622 495 q 634 453 627 462 q 647 439 641 444 l 654 435 q 688 530 655 488 q 718 567 704 552 q 739 586 732 582 l 745 591 q 741 580 743 587 q 732 554 738 573 q 722 519 726 536 q 719 485 719 503 q 726 457 720 467 q 747 436 736 441 q 765 434 759 431 l 772 437 m 834 408 q 841 523 815 439 q 906 690 867 606 q 1005 692 993 691 q 1040 706 1025 694 q 1062 730 1056 718 l 1068 741 q 985 727 1035 728 q 933 727 968 727 q 876 726 898 726 q 830 725 854 726 q 792 723 805 724 q 756 707 772 720 q 735 681 741 693 l 730 669 q 800 686 740 681 q 858 688 812 686 q 829 612 856 682 q 793 500 803 542 q 791 465 789 480 q 801 439 793 450 q 815 421 808 428 q 829 411 823 414 l 834 408 m 1170 524 q 1188 571 1186 552 q 1183 598 1190 589 q 1137 614 1171 628 q 1104 594 1120 608 q 1080 567 1088 579 l 1071 555 q 1110 648 1108 648 l 1091 648 q 1059 631 1067 644 q 1019 519 1040 580 q 1017 514 1018 518 q 1015 509 1015 510 q 982 490 996 496 q 1003 550 989 514 q 1026 610 1017 587 l 1036 634 q 988 619 1000 632 q 966 587 986 616 q 927 536 945 557 q 903 521 909 516 q 902 529 901 523 q 908 546 903 536 q 919 567 913 556 q 931 590 924 578 q 943 611 937 602 q 952 626 948 620 l 956 632 q 942 631 950 632 q 919 624 935 631 q 897 607 903 618 q 866 504 852 522 q 883 497 871 497 q 910 504 895 496 q 938 528 926 512 l 983 588 q 945 473 962 521 q 919 457 936 467 q 895 443 902 448 q 878 429 888 439 q 858 408 867 420 q 842 372 844 390 q 847 344 840 354 q 873 335 855 334 q 914 352 892 336 q 941 384 929 363 q 959 418 954 404 q 977 473 964 432 q 1008 491 996 485 q 985 412 991 440 q 989 383 981 399 q 1005 358 996 368 l 1015 349 q 1037 456 1010 366 q 1073 542 1053 506 q 1115 587 1088 568 q 1150 600 1142 606 q 1151 580 1154 595 q 1141 551 1148 565 q 1107 509 1128 524 q 1073 493 1086 494 l 1059 492 q 1066 487 1061 490 q 1084 480 1070 484 q 1110 478 1097 477 q 1140 490 1123 479 q 1170 524 1156 502 m 1278 614 q 1308 630 1293 630 q 1321 618 1322 630 q 1303 589 1320 606 q 1283 578 1295 581 q 1263 577 1271 576 l 1256 578 q 1259 572 1257 576 q 1271 562 1261 568 q 1293 557 1280 556 q 1330 574 1318 558 q 1341 611 1343 590 q 1326 635 1341 625 q 1290 647 1312 646 q 1244 631 1269 648 q 1207 590 1222 615 q 1193 536 1192 565 q 1215 490 1193 508 q 1254 481 1232 477 q 1297 496 1276 485 q 1329 519 1317 507 q 1334 531 1332 524 q 1336 545 1336 539 l 1337 550 q 1283 507 1320 524 q 1235 506 1245 490 q 1240 555 1225 522 q 1278 614 1255 588 m 369 555 q 383 511 370 532 q 415 484 396 490 q 394 441 406 451 q 369 436 383 432 q 356 474 356 439 q 363 536 355 509 q 369 555 366 544 m 648 144 q 634 149 640 144 q 629 162 629 155 q 632 176 629 170 q 641 186 635 183 q 655 191 647 191 q 669 185 664 191 q 675 172 675 180 q 671 158 675 165 q 663 148 668 152 q 648 144 656 144 m 1152 94 l 243 94 l 272 243 l 1181 243 l 1152 94 m 1124 203 l 1061 203 l 1058 190 l 1081 190 l 1069 131 l 1086 131 l 1098 190 l 1121 190 l 1124 203 m 967 203 l 953 131 l 969 131 l 978 176 l 1005 131 l 1019 131 l 1034 203 l 1017 203 l 1008 158 l 981 203 l 967 203 m 871 199 q 854 183 860 192 q 849 161 849 174 q 853 144 849 152 q 865 134 857 138 q 884 130 873 130 q 907 136 897 130 q 924 151 918 142 q 929 173 929 160 q 925 190 929 183 q 913 201 921 197 q 894 205 905 205 q 871 199 881 205 m 777 203 l 763 131 l 780 131 l 785 157 l 819 157 l 821 171 l 787 171 l 791 190 l 829 190 l 832 203 l 777 203 m 633 199 q 617 183 623 192 q 612 161 612 174 q 616 144 612 152 q 628 134 620 138 q 647 130 636 130 q 670 136 660 130 q 686 151 681 142 q 692 173 692 160 q 688 190 692 183 q 675 201 684 197 q 656 205 667 205 q 633 199 644 205 m 520 203 l 507 203 l 492 131 l 508 131 l 517 174 l 532 138 l 539 138 l 566 174 l 558 131 l 574 131 l 588 203 l 574 203 l 538 158 l 520 203 m 418 203 l 404 131 l 460 131 l 463 144 l 424 144 l 427 161 l 460 161 l 463 174 l 429 174 l 433 190 l 471 190 l 473 203 l 418 203 m 345 203 l 315 203 l 300 131 l 336 131 q 359 136 349 131 q 375 151 368 140 q 380 173 380 159 q 376 189 380 182 q 364 199 373 195 q 345 203 356 203 m 886 144 q 871 149 877 144 q 866 162 866 155 q 869 176 866 170 q 878 186 873 183 q 892 191 884 191 q 907 185 901 191 q 912 172 912 180 q 909 158 912 165 q 900 148 905 152 q 886 144 894 144 m 351 149 q 336 144 345 144 l 320 144 l 329 190 l 343 190 q 359 185 354 190 q 363 172 363 180 q 361 158 363 163 q 351 149 359 154 z "},"1":{"ha":1423,"x_min":26,"x_max":1398,"o":"m 869 401 q 938 452 888 429 q 910 387 922 408 q 885 361 899 366 q 859 367 863 353 q 869 401 855 380 m 392 570 q 418 555 410 600 q 419 498 424 519 l 419 497 q 392 530 401 507 q 392 570 382 553 m 1396 578 q 1386 533 1398 553 q 1392 516 1392 526 q 1375 465 1392 482 q 1327 430 1358 445 q 1268 415 1297 415 q 1219 431 1239 415 q 1202 449 1210 438 q 1125 412 1168 412 q 1092 418 1109 412 q 1091 415 1092 417 q 1090 413 1090 414 q 1068 323 1067 336 q 1067 303 1071 313 q 1055 288 1063 294 q 1038 283 1047 283 q 1017 292 1025 283 q 988 326 1000 306 q 956 292 973 304 q 894 269 924 269 q 840 302 868 269 q 817 336 827 315 q 810 371 809 350 q 808 372 810 372 q 807 374 807 373 q 782 368 796 368 q 722 407 746 368 q 716 419 718 414 q 714 421 715 420 q 712 424 713 423 l 709 401 q 692 374 707 383 q 677 370 686 370 q 661 374 669 370 q 659 376 661 375 q 655 378 657 376 q 650 381 652 379 q 643 379 650 381 l 639 378 q 631 378 635 378 q 578 406 597 378 q 536 380 559 382 q 532 380 534 380 q 528 380 529 380 q 477 404 494 380 q 399 358 445 358 q 340 382 366 358 q 343 356 340 372 q 329 324 347 335 q 312 319 321 319 q 294 325 301 319 l 292 327 q 287 331 290 328 q 280 336 284 333 q 272 345 277 340 q 263 355 268 349 q 254 368 259 361 q 244 384 249 376 q 225 411 232 399 q 231 351 220 370 q 230 320 239 336 q 203 304 221 304 q 144 333 169 304 q 100 417 106 378 q 83 411 91 411 q 72 413 77 411 q 38 444 49 422 q 28 480 26 465 q 29 489 28 482 q 37 508 31 495 q 53 532 43 520 q 83 556 63 544 q 129 576 103 569 q 156 662 144 633 q 173 696 168 690 q 187 705 178 701 q 200 707 193 707 q 264 668 227 707 q 268 663 267 665 q 317 756 284 701 q 374 787 336 787 q 425 774 399 787 q 449 746 433 770 q 465 713 465 722 q 451 685 467 695 q 432 667 444 680 q 470 635 455 654 q 476 618 475 628 l 477 618 q 479 616 479 617 q 499 643 489 634 q 555 665 522 665 q 610 640 592 665 q 625 641 615 641 q 684 768 646 706 q 741 798 703 798 q 791 785 766 798 q 808 758 807 777 l 808 756 q 930 759 851 759 l 985 759 q 1022 762 1004 759 q 1048 768 1040 765 l 1057 770 q 1068 772 1063 772 q 1091 763 1082 772 q 1104 744 1095 759 q 1114 729 1114 730 q 1121 694 1128 711 q 1113 680 1118 688 q 1141 656 1136 675 q 1141 648 1141 654 q 1155 650 1149 650 q 1199 631 1181 650 q 1225 656 1209 643 q 1290 678 1255 678 q 1375 629 1339 678 q 1396 578 1394 606 m 288 385 q 298 523 279 442 q 350 666 318 604 q 410 746 382 728 q 396 752 405 749 q 370 754 388 755 q 344 740 352 753 q 288 631 309 684 q 262 540 267 578 q 257 481 258 502 q 260 447 257 461 q 235 531 240 481 q 236 613 231 581 l 241 646 q 232 654 238 649 q 215 668 227 660 q 198 675 203 677 q 154 550 187 671 q 110 535 129 545 q 82 516 92 526 q 67 497 73 507 q 61 483 62 488 l 60 477 q 144 513 74 498 q 133 460 134 469 q 132 417 129 434 q 143 390 135 399 q 159 376 151 380 q 174 371 167 372 l 180 370 q 169 421 170 389 q 176 484 169 452 q 191 544 182 515 q 206 591 199 573 l 214 609 q 226 494 215 546 q 249 432 233 460 q 277 395 264 405 l 288 385 m 576 471 q 589 450 579 456 q 606 444 598 443 l 614 444 q 610 450 612 446 q 605 471 608 454 q 607 513 602 488 q 616 558 610 534 q 627 595 622 582 l 631 610 q 586 595 595 611 q 559 539 571 568 q 534 492 547 511 q 507 472 515 465 q 509 508 500 478 q 531 566 517 537 q 557 607 547 599 q 587 609 567 615 q 579 627 590 619 q 551 633 568 634 q 520 620 533 631 q 477 525 492 593 q 448 496 465 503 q 454 545 455 526 q 439 599 452 585 q 405 611 427 614 q 445 616 422 623 q 436 626 441 620 q 413 641 430 633 q 381 643 396 648 q 333 568 355 633 q 321 468 310 503 q 366 424 334 431 q 429 456 399 418 q 443 481 437 468 q 473 500 458 485 q 473 472 471 483 q 511 446 478 443 q 544 476 524 446 q 575 535 563 506 l 587 564 q 583 548 585 557 q 575 510 580 538 q 576 471 570 483 m 772 437 q 766 445 769 439 q 758 470 763 450 q 761 515 753 489 q 774 561 766 538 q 786 594 781 583 l 791 604 l 761 618 q 751 618 755 621 q 663 518 696 579 q 715 667 680 594 q 777 757 749 739 q 763 763 772 760 q 737 766 755 766 q 711 751 719 765 q 640 574 662 673 q 625 471 622 495 q 634 453 627 462 q 647 439 641 444 l 654 435 q 688 530 655 488 q 718 567 704 552 q 739 586 732 582 l 745 591 q 741 580 743 587 q 732 554 738 573 q 722 519 726 536 q 719 485 719 503 q 726 457 720 467 q 747 436 736 441 q 765 434 759 431 l 772 437 m 834 408 q 841 523 815 439 q 906 690 867 606 q 1005 692 993 691 q 1040 706 1025 694 q 1062 730 1056 718 l 1068 741 q 985 727 1035 728 q 933 727 968 727 q 876 726 898 726 q 830 725 854 726 q 792 723 805 724 q 756 707 772 720 q 735 681 741 693 l 730 669 q 800 686 740 681 q 858 688 812 686 q 829 612 856 682 q 793 500 803 542 q 791 465 789 480 q 801 439 793 450 q 815 421 808 428 q 829 411 823 414 l 834 408 m 1170 524 q 1188 571 1186 552 q 1183 598 1190 589 q 1137 614 1171 628 q 1104 594 1120 608 q 1080 567 1088 579 l 1071 555 q 1110 648 1108 648 l 1091 648 q 1059 631 1067 644 q 1019 519 1040 580 q 1017 514 1018 518 q 1015 509 1015 510 q 982 490 996 496 q 1003 550 989 514 q 1026 610 1017 587 l 1036 634 q 988 619 1000 632 q 966 587 986 616 q 927 536 945 557 q 903 521 909 516 q 902 529 901 523 q 908 546 903 536 q 919 567 913 556 q 931 590 924 578 q 943 611 937 602 q 952 626 948 620 l 956 632 q 942 631 950 632 q 919 624 935 631 q 897 607 903 618 q 866 504 852 522 q 883 497 871 497 q 910 504 895 496 q 938 528 926 512 l 983 588 q 945 473 962 521 q 919 457 936 467 q 895 443 902 448 q 878 429 888 439 q 858 408 867 420 q 842 372 844 390 q 847 344 840 354 q 873 335 855 334 q 914 352 892 336 q 941 384 929 363 q 959 418 954 404 q 977 473 964 432 q 1008 491 996 485 q 985 412 991 440 q 989 383 981 399 q 1005 358 996 368 l 1015 349 q 1037 456 1010 366 q 1073 542 1053 506 q 1115 587 1088 568 q 1150 600 1142 606 q 1151 580 1154 595 q 1141 551 1148 565 q 1107 509 1128 524 q 1073 493 1086 494 l 1059 492 q 1066 487 1061 490 q 1084 480 1070 484 q 1110 478 1097 477 q 1140 490 1123 479 q 1170 524 1156 502 m 1278 614 q 1308 630 1293 630 q 1321 618 1322 630 q 1303 589 1320 606 q 1283 578 1295 581 q 1263 577 1271 576 l 1256 578 q 1259 572 1257 576 q 1271 562 1261 568 q 1293 557 1280 556 q 1330 574 1318 558 q 1341 611 1343 590 q 1326 635 1341 625 q 1290 647 1312 646 q 1244 631 1269 648 q 1207 590 1222 615 q 1193 536 1192 565 q 1215 490 1193 508 q 1254 481 1232 477 q 1297 496 1276 485 q 1329 519 1317 507 q 1334 531 1332 524 q 1336 545 1336 539 l 1337 550 q 1283 507 1320 524 q 1235 506 1245 490 q 1240 555 1225 522 q 1278 614 1255 588 m 369 555 q 383 511 370 532 q 415 484 396 490 q 394 441 406 451 q 369 436 383 432 q 356 474 356 439 q 363 536 355 509 q 369 555 366 544 m 648 144 q 634 149 640 144 q 629 162 629 155 q 632 176 629 170 q 641 186 635 183 q 655 191 647 191 q 669 185 664 191 q 675 172 675 180 q 671 158 675 165 q 663 148 668 152 q 648 144 656 144 m 1152 94 l 243 94 l 272 243 l 1181 243 l 1152 94 m 1124 203 l 1061 203 l 1058 190 l 1081 190 l 1069 131 l 1086 131 l 1098 190 l 1121 190 l 1124 203 m 967 203 l 953 131 l 969 131 l 978 176 l 1005 131 l 1019 131 l 1034 203 l 1017 203 l 1008 158 l 981 203 l 967 203 m 871 199 q 854 183 860 192 q 849 161 849 174 q 853 144 849 152 q 865 134 857 138 q 884 130 873 130 q 907 136 897 130 q 924 151 918 142 q 929 173 929 160 q 925 190 929 183 q 913 201 921 197 q 894 205 905 205 q 871 199 881 205 m 777 203 l 763 131 l 780 131 l 785 157 l 819 157 l 821 171 l 787 171 l 791 190 l 829 190 l 832 203 l 777 203 m 633 199 q 617 183 623 192 q 612 161 612 174 q 616 144 612 152 q 628 134 620 138 q 647 130 636 130 q 670 136 660 130 q 686 151 681 142 q 692 173 692 160 q 688 190 692 183 q 675 201 684 197 q 656 205 667 205 q 633 199 644 205 m 520 203 l 507 203 l 492 131 l 508 131 l 517 174 l 532 138 l 539 138 l 566 174 l 558 131 l 574 131 l 588 203 l 574 203 l 538 158 l 520 203 m 418 203 l 404 131 l 460 131 l 463 144 l 424 144 l 427 161 l 460 161 l 463 174 l 429 174 l 433 190 l 471 190 l 473 203 l 418 203 m 345 203 l 315 203 l 300 131 l 336 131 q 359 136 349 131 q 375 151 368 140 q 380 173 380 159 q 376 189 380 182 q 364 199 373 195 q 345 203 356 203 m 886 144 q 871 149 877 144 q 866 162 866 155 q 869 176 866 170 q 878 186 873 183 q 892 191 884 191 q 907 185 901 191 q 912 172 912 180 q 909 158 912 165 q 900 148 905 152 q 886 144 894 144 m 351 149 q 336 144 345 144 l 320 144 l 329 190 l 343 190 q 359 185 354 190 q 363 172 363 180 q 361 158 363 163 q 351 149 359 154 z "},"2":{"ha":1423,"x_min":26,"x_max":1398,"o":"m 869 401 q 938 452 888 429 q 910 387 922 408 q 885 361 899 366 q 859 367 863 353 q 869 401 855 380 m 392 570 q 418 555 410 600 q 419 498 424 519 l 419 497 q 392 530 401 507 q 392 570 382 553 m 1396 578 q 1386 533 1398 553 q 1392 516 1392 526 q 1375 465 1392 482 q 1327 430 1358 445 q 1268 415 1297 415 q 1219 431 1239 415 q 1202 449 1210 438 q 1125 412 1168 412 q 1092 418 1109 412 q 1091 415 1092 417 q 1090 413 1090 414 q 1068 323 1067 336 q 1067 303 1071 313 q 1055 288 1063 294 q 1038 283 1047 283 q 1017 292 1025 283 q 988 326 1000 306 q 956 292 973 304 q 894 269 924 269 q 840 302 868 269 q 817 336 827 315 q 810 371 809 350 q 808 372 810 372 q 807 374 807 373 q 782 368 796 368 q 722 407 746 368 q 716 419 718 414 q 714 421 715 420 q 712 424 713 423 l 709 401 q 692 374 707 383 q 677 370 686 370 q 661 374 669 370 q 659 376 661 375 q 655 378 657 376 q 650 381 652 379 q 643 379 650 381 l 639 378 q 631 378 635 378 q 578 406 597 378 q 536 380 559 382 q 532 380 534 380 q 528 380 529 380 q 477 404 494 380 q 399 358 445 358 q 340 382 366 358 q 343 356 340 372 q 329 324 347 335 q 312 319 321 319 q 294 325 301 319 l 292 327 q 287 331 290 328 q 280 336 284 333 q 272 345 277 340 q 263 355 268 349 q 254 368 259 361 q 244 384 249 376 q 225 411 232 399 q 231 351 220 370 q 230 320 239 336 q 203 304 221 304 q 144 333 169 304 q 100 417 106 378 q 83 411 91 411 q 72 413 77 411 q 38 444 49 422 q 28 480 26 465 q 29 489 28 482 q 37 508 31 495 q 53 532 43 520 q 83 556 63 544 q 129 576 103 569 q 156 662 144 633 q 173 696 168 690 q 187 705 178 701 q 200 707 193 707 q 264 668 227 707 q 268 663 267 665 q 317 756 284 701 q 374 787 336 787 q 425 774 399 787 q 449 746 433 770 q 465 713 465 722 q 451 685 467 695 q 432 667 444 680 q 470 635 455 654 q 476 618 475 628 l 477 618 q 479 616 479 617 q 499 643 489 634 q 555 665 522 665 q 610 640 592 665 q 625 641 615 641 q 684 768 646 706 q 741 798 703 798 q 791 785 766 798 q 808 758 807 777 l 808 756 q 930 759 851 759 l 985 759 q 1022 762 1004 759 q 1048 768 1040 765 l 1057 770 q 1068 772 1063 772 q 1091 763 1082 772 q 1104 744 1095 759 q 1114 729 1114 730 q 1121 694 1128 711 q 1113 680 1118 688 q 1141 656 1136 675 q 1141 648 1141 654 q 1155 650 1149 650 q 1199 631 1181 650 q 1225 656 1209 643 q 1290 678 1255 678 q 1375 629 1339 678 q 1396 578 1394 606 m 288 385 q 298 523 279 442 q 350 666 318 604 q 410 746 382 728 q 396 752 405 749 q 370 754 388 755 q 344 740 352 753 q 288 631 309 684 q 262 540 267 578 q 257 481 258 502 q 260 447 257 461 q 235 531 240 481 q 236 613 231 581 l 241 646 q 232 654 238 649 q 215 668 227 660 q 198 675 203 677 q 154 550 187 671 q 110 535 129 545 q 82 516 92 526 q 67 497 73 507 q 61 483 62 488 l 60 477 q 144 513 74 498 q 133 460 134 469 q 132 417 129 434 q 143 390 135 399 q 159 376 151 380 q 174 371 167 372 l 180 370 q 169 421 170 389 q 176 484 169 452 q 191 544 182 515 q 206 591 199 573 l 214 609 q 226 494 215 546 q 249 432 233 460 q 277 395 264 405 l 288 385 m 576 471 q 589 450 579 456 q 606 444 598 443 l 614 444 q 610 450 612 446 q 605 471 608 454 q 607 513 602 488 q 616 558 610 534 q 627 595 622 582 l 631 610 q 586 595 595 611 q 559 539 571 568 q 534 492 547 511 q 507 472 515 465 q 509 508 500 478 q 531 566 517 537 q 557 607 547 599 q 587 609 567 615 q 579 627 590 619 q 551 633 568 634 q 520 620 533 631 q 477 525 492 593 q 448 496 465 503 q 454 545 455 526 q 439 599 452 585 q 405 611 427 614 q 445 616 422 623 q 436 626 441 620 q 413 641 430 633 q 381 643 396 648 q 333 568 355 633 q 321 468 310 503 q 366 424 334 431 q 429 456 399 418 q 443 481 437 468 q 473 500 458 485 q 473 472 471 483 q 511 446 478 443 q 544 476 524 446 q 575 535 563 506 l 587 564 q 583 548 585 557 q 575 510 580 538 q 576 471 570 483 m 772 437 q 766 445 769 439 q 758 470 763 450 q 761 515 753 489 q 774 561 766 538 q 786 594 781 583 l 791 604 l 761 618 q 751 618 755 621 q 663 518 696 579 q 715 667 680 594 q 777 757 749 739 q 763 763 772 760 q 737 766 755 766 q 711 751 719 765 q 640 574 662 673 q 625 471 622 495 q 634 453 627 462 q 647 439 641 444 l 654 435 q 688 530 655 488 q 718 567 704 552 q 739 586 732 582 l 745 591 q 741 580 743 587 q 732 554 738 573 q 722 519 726 536 q 719 485 719 503 q 726 457 720 467 q 747 436 736 441 q 765 434 759 431 l 772 437 m 834 408 q 841 523 815 439 q 906 690 867 606 q 1005 692 993 691 q 1040 706 1025 694 q 1062 730 1056 718 l 1068 741 q 985 727 1035 728 q 933 727 968 727 q 876 726 898 726 q 830 725 854 726 q 792 723 805 724 q 756 707 772 720 q 735 681 741 693 l 730 669 q 800 686 740 681 q 858 688 812 686 q 829 612 856 682 q 793 500 803 542 q 791 465 789 480 q 801 439 793 450 q 815 421 808 428 q 829 411 823 414 l 834 408 m 1170 524 q 1188 571 1186 552 q 1183 598 1190 589 q 1137 614 1171 628 q 1104 594 1120 608 q 1080 567 1088 579 l 1071 555 q 1110 648 1108 648 l 1091 648 q 1059 631 1067 644 q 1019 519 1040 580 q 1017 514 1018 518 q 1015 509 1015 510 q 982 490 996 496 q 1003 550 989 514 q 1026 610 1017 587 l 1036 634 q 988 619 1000 632 q 966 587 986 616 q 927 536 945 557 q 903 521 909 516 q 902 529 901 523 q 908 546 903 536 q 919 567 913 556 q 931 590 924 578 q 943 611 937 602 q 952 626 948 620 l 956 632 q 942 631 950 632 q 919 624 935 631 q 897 607 903 618 q 866 504 852 522 q 883 497 871 497 q 910 504 895 496 q 938 528 926 512 l 983 588 q 945 473 962 521 q 919 457 936 467 q 895 443 902 448 q 878 429 888 439 q 858 408 867 420 q 842 372 844 390 q 847 344 840 354 q 873 335 855 334 q 914 352 892 336 q 941 384 929 363 q 959 418 954 404 q 977 473 964 432 q 1008 491 996 485 q 985 412 991 440 q 989 383 981 399 q 1005 358 996 368 l 1015 349 q 1037 456 1010 366 q 1073 542 1053 506 q 1115 587 1088 568 q 1150 600 1142 606 q 1151 580 1154 595 q 1141 551 1148 565 q 1107 509 1128 524 q 1073 493 1086 494 l 1059 492 q 1066 487 1061 490 q 1084 480 1070 484 q 1110 478 1097 477 q 1140 490 1123 479 q 1170 524 1156 502 m 1278 614 q 1308 630 1293 630 q 1321 618 1322 630 q 1303 589 1320 606 q 1283 578 1295 581 q 1263 577 1271 576 l 1256 578 q 1259 572 1257 576 q 1271 562 1261 568 q 1293 557 1280 556 q 1330 574 1318 558 q 1341 611 1343 590 q 1326 635 1341 625 q 1290 647 1312 646 q 1244 631 1269 648 q 1207 590 1222 615 q 1193 536 1192 565 q 1215 490 1193 508 q 1254 481 1232 477 q 1297 496 1276 485 q 1329 519 1317 507 q 1334 531 1332 524 q 1336 545 1336 539 l 1337 550 q 1283 507 1320 524 q 1235 506 1245 490 q 1240 555 1225 522 q 1278 614 1255 588 m 369 555 q 383 511 370 532 q 415 484 396 490 q 394 441 406 451 q 369 436 383 432 q 356 474 356 439 q 363 536 355 509 q 369 555 366 544 m 648 144 q 634 149 640 144 q 629 162 629 155 q 632 176 629 170 q 641 186 635 183 q 655 191 647 191 q 669 185 664 191 q 675 172 675 180 q 671 158 675 165 q 663 148 668 152 q 648 144 656 144 m 1152 94 l 243 94 l 272 243 l 1181 243 l 1152 94 m 1124 203 l 1061 203 l 1058 190 l 1081 190 l 1069 131 l 1086 131 l 1098 190 l 1121 190 l 1124 203 m 967 203 l 953 131 l 969 131 l 978 176 l 1005 131 l 1019 131 l 1034 203 l 1017 203 l 1008 158 l 981 203 l 967 203 m 871 199 q 854 183 860 192 q 849 161 849 174 q 853 144 849 152 q 865 134 857 138 q 884 130 873 130 q 907 136 897 130 q 924 151 918 142 q 929 173 929 160 q 925 190 929 183 q 913 201 921 197 q 894 205 905 205 q 871 199 881 205 m 777 203 l 763 131 l 780 131 l 785 157 l 819 157 l 821 171 l 787 171 l 791 190 l 829 190 l 832 203 l 777 203 m 633 199 q 617 183 623 192 q 612 161 612 174 q 616 144 612 152 q 628 134 620 138 q 647 130 636 130 q 670 136 660 130 q 686 151 681 142 q 692 173 692 160 q 688 190 692 183 q 675 201 684 197 q 656 205 667 205 q 633 199 644 205 m 520 203 l 507 203 l 492 131 l 508 131 l 517 174 l 532 138 l 539 138 l 566 174 l 558 131 l 574 131 l 588 203 l 574 203 l 538 158 l 520 203 m 418 203 l 404 131 l 460 131 l 463 144 l 424 144 l 427 161 l 460 161 l 463 174 l 429 174 l 433 190 l 471 190 l 473 203 l 418 203 m 345 203 l 315 203 l 300 131 l 336 131 q 359 136 349 131 q 375 151 368 140 q 380 173 380 159 q 376 189 380 182 q 364 199 373 195 q 345 203 356 203 m 886 144 q 871 149 877 144 q 866 162 866 155 q 869 176 866 170 q 878 186 873 183 q 892 191 884 191 q 907 185 901 191 q 912 172 912 180 q 909 158 912 165 q 900 148 905 152 q 886 144 894 144 m 351 149 q 336 144 345 144 l 320 144 l 329 190 l 343 190 q 359 185 354 190 q 363 172 363 180 q 361 158 363 163 q 351 149 359 154 z "},"3":{"ha":1423,"x_min":26,"x_max":1398,"o":"m 869 401 q 938 452 888 429 q 910 387 922 408 q 885 361 899 366 q 859 367 863 353 q 869 401 855 380 m 392 570 q 418 555 410 600 q 419 498 424 519 l 419 497 q 392 530 401 507 q 392 570 382 553 m 1396 578 q 1386 533 1398 553 q 1392 516 1392 526 q 1375 465 1392 482 q 1327 430 1358 445 q 1268 415 1297 415 q 1219 431 1239 415 q 1202 449 1210 438 q 1125 412 1168 412 q 1092 418 1109 412 q 1091 415 1092 417 q 1090 413 1090 414 q 1068 323 1067 336 q 1067 303 1071 313 q 1055 288 1063 294 q 1038 283 1047 283 q 1017 292 1025 283 q 988 326 1000 306 q 956 292 973 304 q 894 269 924 269 q 840 302 868 269 q 817 336 827 315 q 810 371 809 350 q 808 372 810 372 q 807 374 807 373 q 782 368 796 368 q 722 407 746 368 q 716 419 718 414 q 714 421 715 420 q 712 424 713 423 l 709 401 q 692 374 707 383 q 677 370 686 370 q 661 374 669 370 q 659 376 661 375 q 655 378 657 376 q 650 381 652 379 q 643 379 650 381 l 639 378 q 631 378 635 378 q 578 406 597 378 q 536 380 559 382 q 532 380 534 380 q 528 380 529 380 q 477 404 494 380 q 399 358 445 358 q 340 382 366 358 q 343 356 340 372 q 329 324 347 335 q 312 319 321 319 q 294 325 301 319 l 292 327 q 287 331 290 328 q 280 336 284 333 q 272 345 277 340 q 263 355 268 349 q 254 368 259 361 q 244 384 249 376 q 225 411 232 399 q 231 351 220 370 q 230 320 239 336 q 203 304 221 304 q 144 333 169 304 q 100 417 106 378 q 83 411 91 411 q 72 413 77 411 q 38 444 49 422 q 28 480 26 465 q 29 489 28 482 q 37 508 31 495 q 53 532 43 520 q 83 556 63 544 q 129 576 103 569 q 156 662 144 633 q 173 696 168 690 q 187 705 178 701 q 200 707 193 707 q 264 668 227 707 q 268 663 267 665 q 317 756 284 701 q 374 787 336 787 q 425 774 399 787 q 449 746 433 770 q 465 713 465 722 q 451 685 467 695 q 432 667 444 680 q 470 635 455 654 q 476 618 475 628 l 477 618 q 479 616 479 617 q 499 643 489 634 q 555 665 522 665 q 610 640 592 665 q 625 641 615 641 q 684 768 646 706 q 741 798 703 798 q 791 785 766 798 q 808 758 807 777 l 808 756 q 930 759 851 759 l 985 759 q 1022 762 1004 759 q 1048 768 1040 765 l 1057 770 q 1068 772 1063 772 q 1091 763 1082 772 q 1104 744 1095 759 q 1114 729 1114 730 q 1121 694 1128 711 q 1113 680 1118 688 q 1141 656 1136 675 q 1141 648 1141 654 q 1155 650 1149 650 q 1199 631 1181 650 q 1225 656 1209 643 q 1290 678 1255 678 q 1375 629 1339 678 q 1396 578 1394 606 m 288 385 q 298 523 279 442 q 350 666 318 604 q 410 746 382 728 q 396 752 405 749 q 370 754 388 755 q 344 740 352 753 q 288 631 309 684 q 262 540 267 578 q 257 481 258 502 q 260 447 257 461 q 235 531 240 481 q 236 613 231 581 l 241 646 q 232 654 238 649 q 215 668 227 660 q 198 675 203 677 q 154 550 187 671 q 110 535 129 545 q 82 516 92 526 q 67 497 73 507 q 61 483 62 488 l 60 477 q 144 513 74 498 q 133 460 134 469 q 132 417 129 434 q 143 390 135 399 q 159 376 151 380 q 174 371 167 372 l 180 370 q 169 421 170 389 q 176 484 169 452 q 191 544 182 515 q 206 591 199 573 l 214 609 q 226 494 215 546 q 249 432 233 460 q 277 395 264 405 l 288 385 m 576 471 q 589 450 579 456 q 606 444 598 443 l 614 444 q 610 450 612 446 q 605 471 608 454 q 607 513 602 488 q 616 558 610 534 q 627 595 622 582 l 631 610 q 586 595 595 611 q 559 539 571 568 q 534 492 547 511 q 507 472 515 465 q 509 508 500 478 q 531 566 517 537 q 557 607 547 599 q 587 609 567 615 q 579 627 590 619 q 551 633 568 634 q 520 620 533 631 q 477 525 492 593 q 448 496 465 503 q 454 545 455 526 q 439 599 452 585 q 405 611 427 614 q 445 616 422 623 q 436 626 441 620 q 413 641 430 633 q 381 643 396 648 q 333 568 355 633 q 321 468 310 503 q 366 424 334 431 q 429 456 399 418 q 443 481 437 468 q 473 500 458 485 q 473 472 471 483 q 511 446 478 443 q 544 476 524 446 q 575 535 563 506 l 587 564 q 583 548 585 557 q 575 510 580 538 q 576 471 570 483 m 772 437 q 766 445 769 439 q 758 470 763 450 q 761 515 753 489 q 774 561 766 538 q 786 594 781 583 l 791 604 l 761 618 q 751 618 755 621 q 663 518 696 579 q 715 667 680 594 q 777 757 749 739 q 763 763 772 760 q 737 766 755 766 q 711 751 719 765 q 640 574 662 673 q 625 471 622 495 q 634 453 627 462 q 647 439 641 444 l 654 435 q 688 530 655 488 q 718 567 704 552 q 739 586 732 582 l 745 591 q 741 580 743 587 q 732 554 738 573 q 722 519 726 536 q 719 485 719 503 q 726 457 720 467 q 747 436 736 441 q 765 434 759 431 l 772 437 m 834 408 q 841 523 815 439 q 906 690 867 606 q 1005 692 993 691 q 1040 706 1025 694 q 1062 730 1056 718 l 1068 741 q 985 727 1035 728 q 933 727 968 727 q 876 726 898 726 q 830 725 854 726 q 792 723 805 724 q 756 707 772 720 q 735 681 741 693 l 730 669 q 800 686 740 681 q 858 688 812 686 q 829 612 856 682 q 793 500 803 542 q 791 465 789 480 q 801 439 793 450 q 815 421 808 428 q 829 411 823 414 l 834 408 m 1170 524 q 1188 571 1186 552 q 1183 598 1190 589 q 1137 614 1171 628 q 1104 594 1120 608 q 1080 567 1088 579 l 1071 555 q 1110 648 1108 648 l 1091 648 q 1059 631 1067 644 q 1019 519 1040 580 q 1017 514 1018 518 q 1015 509 1015 510 q 982 490 996 496 q 1003 550 989 514 q 1026 610 1017 587 l 1036 634 q 988 619 1000 632 q 966 587 986 616 q 927 536 945 557 q 903 521 909 516 q 902 529 901 523 q 908 546 903 536 q 919 567 913 556 q 931 590 924 578 q 943 611 937 602 q 952 626 948 620 l 956 632 q 942 631 950 632 q 919 624 935 631 q 897 607 903 618 q 866 504 852 522 q 883 497 871 497 q 910 504 895 496 q 938 528 926 512 l 983 588 q 945 473 962 521 q 919 457 936 467 q 895 443 902 448 q 878 429 888 439 q 858 408 867 420 q 842 372 844 390 q 847 344 840 354 q 873 335 855 334 q 914 352 892 336 q 941 384 929 363 q 959 418 954 404 q 977 473 964 432 q 1008 491 996 485 q 985 412 991 440 q 989 383 981 399 q 1005 358 996 368 l 1015 349 q 1037 456 1010 366 q 1073 542 1053 506 q 1115 587 1088 568 q 1150 600 1142 606 q 1151 580 1154 595 q 1141 551 1148 565 q 1107 509 1128 524 q 1073 493 1086 494 l 1059 492 q 1066 487 1061 490 q 1084 480 1070 484 q 1110 478 1097 477 q 1140 490 1123 479 q 1170 524 1156 502 m 1278 614 q 1308 630 1293 630 q 1321 618 1322 630 q 1303 589 1320 606 q 1283 578 1295 581 q 1263 577 1271 576 l 1256 578 q 1259 572 1257 576 q 1271 562 1261 568 q 1293 557 1280 556 q 1330 574 1318 558 q 1341 611 1343 590 q 1326 635 1341 625 q 1290 647 1312 646 q 1244 631 1269 648 q 1207 590 1222 615 q 1193 536 1192 565 q 1215 490 1193 508 q 1254 481 1232 477 q 1297 496 1276 485 q 1329 519 1317 507 q 1334 531 1332 524 q 1336 545 1336 539 l 1337 550 q 1283 507 1320 524 q 1235 506 1245 490 q 1240 555 1225 522 q 1278 614 1255 588 m 369 555 q 383 511 370 532 q 415 484 396 490 q 394 441 406 451 q 369 436 383 432 q 356 474 356 439 q 363 536 355 509 q 369 555 366 544 m 648 144 q 634 149 640 144 q 629 162 629 155 q 632 176 629 170 q 641 186 635 183 q 655 191 647 191 q 669 185 664 191 q 675 172 675 180 q 671 158 675 165 q 663 148 668 152 q 648 144 656 144 m 1152 94 l 243 94 l 272 243 l 1181 243 l 1152 94 m 1124 203 l 1061 203 l 1058 190 l 1081 190 l 1069 131 l 1086 131 l 1098 190 l 1121 190 l 1124 203 m 967 203 l 953 131 l 969 131 l 978 176 l 1005 131 l 1019 131 l 1034 203 l 1017 203 l 1008 158 l 981 203 l 967 203 m 871 199 q 854 183 860 192 q 849 161 849 174 q 853 144 849 152 q 865 134 857 138 q 884 130 873 130 q 907 136 897 130 q 924 151 918 142 q 929 173 929 160 q 925 190 929 183 q 913 201 921 197 q 894 205 905 205 q 871 199 881 205 m 777 203 l 763 131 l 780 131 l 785 157 l 819 157 l 821 171 l 787 171 l 791 190 l 829 190 l 832 203 l 777 203 m 633 199 q 617 183 623 192 q 612 161 612 174 q 616 144 612 152 q 628 134 620 138 q 647 130 636 130 q 670 136 660 130 q 686 151 681 142 q 692 173 692 160 q 688 190 692 183 q 675 201 684 197 q 656 205 667 205 q 633 199 644 205 m 520 203 l 507 203 l 492 131 l 508 131 l 517 174 l 532 138 l 539 138 l 566 174 l 558 131 l 574 131 l 588 203 l 574 203 l 538 158 l 520 203 m 418 203 l 404 131 l 460 131 l 463 144 l 424 144 l 427 161 l 460 161 l 463 174 l 429 174 l 433 190 l 471 190 l 473 203 l 418 203 m 345 203 l 315 203 l 300 131 l 336 131 q 359 136 349 131 q 375 151 368 140 q 380 173 380 159 q 376 189 380 182 q 364 199 373 195 q 345 203 356 203 m 886 144 q 871 149 877 144 q 866 162 866 155 q 869 176 866 170 q 878 186 873 183 q 892 191 884 191 q 907 185 901 191 q 912 172 912 180 q 909 158 912 165 q 900 148 905 152 q 886 144 894 144 m 351 149 q 336 144 345 144 l 320 144 l 329 190 l 343 190 q 359 185 354 190 q 363 172 363 180 q 361 158 363 163 q 351 149 359 154 z "},"4":{"ha":1423,"x_min":26,"x_max":1398,"o":"m 869 401 q 938 452 888 429 q 910 387 922 408 q 885 361 899 366 q 859 367 863 353 q 869 401 855 380 m 392 570 q 418 555 410 600 q 419 498 424 519 l 419 497 q 392 530 401 507 q 392 570 382 553 m 1396 578 q 1386 533 1398 553 q 1392 516 1392 526 q 1375 465 1392 482 q 1327 430 1358 445 q 1268 415 1297 415 q 1219 431 1239 415 q 1202 449 1210 438 q 1125 412 1168 412 q 1092 418 1109 412 q 1091 415 1092 417 q 1090 413 1090 414 q 1068 323 1067 336 q 1067 303 1071 313 q 1055 288 1063 294 q 1038 283 1047 283 q 1017 292 1025 283 q 988 326 1000 306 q 956 292 973 304 q 894 269 924 269 q 840 302 868 269 q 817 336 827 315 q 810 371 809 350 q 808 372 810 372 q 807 374 807 373 q 782 368 796 368 q 722 407 746 368 q 716 419 718 414 q 714 421 715 420 q 712 424 713 423 l 709 401 q 692 374 707 383 q 677 370 686 370 q 661 374 669 370 q 659 376 661 375 q 655 378 657 376 q 650 381 652 379 q 643 379 650 381 l 639 378 q 631 378 635 378 q 578 406 597 378 q 536 380 559 382 q 532 380 534 380 q 528 380 529 380 q 477 404 494 380 q 399 358 445 358 q 340 382 366 358 q 343 356 340 372 q 329 324 347 335 q 312 319 321 319 q 294 325 301 319 l 292 327 q 287 331 290 328 q 280 336 284 333 q 272 345 277 340 q 263 355 268 349 q 254 368 259 361 q 244 384 249 376 q 225 411 232 399 q 231 351 220 370 q 230 320 239 336 q 203 304 221 304 q 144 333 169 304 q 100 417 106 378 q 83 411 91 411 q 72 413 77 411 q 38 444 49 422 q 28 480 26 465 q 29 489 28 482 q 37 508 31 495 q 53 532 43 520 q 83 556 63 544 q 129 576 103 569 q 156 662 144 633 q 173 696 168 690 q 187 705 178 701 q 200 707 193 707 q 264 668 227 707 q 268 663 267 665 q 317 756 284 701 q 374 787 336 787 q 425 774 399 787 q 449 746 433 770 q 465 713 465 722 q 451 685 467 695 q 432 667 444 680 q 470 635 455 654 q 476 618 475 628 l 477 618 q 479 616 479 617 q 499 643 489 634 q 555 665 522 665 q 610 640 592 665 q 625 641 615 641 q 684 768 646 706 q 741 798 703 798 q 791 785 766 798 q 808 758 807 777 l 808 756 q 930 759 851 759 l 985 759 q 1022 762 1004 759 q 1048 768 1040 765 l 1057 770 q 1068 772 1063 772 q 1091 763 1082 772 q 1104 744 1095 759 q 1114 729 1114 730 q 1121 694 1128 711 q 1113 680 1118 688 q 1141 656 1136 675 q 1141 648 1141 654 q 1155 650 1149 650 q 1199 631 1181 650 q 1225 656 1209 643 q 1290 678 1255 678 q 1375 629 1339 678 q 1396 578 1394 606 m 288 385 q 298 523 279 442 q 350 666 318 604 q 410 746 382 728 q 396 752 405 749 q 370 754 388 755 q 344 740 352 753 q 288 631 309 684 q 262 540 267 578 q 257 481 258 502 q 260 447 257 461 q 235 531 240 481 q 236 613 231 581 l 241 646 q 232 654 238 649 q 215 668 227 660 q 198 675 203 677 q 154 550 187 671 q 110 535 129 545 q 82 516 92 526 q 67 497 73 507 q 61 483 62 488 l 60 477 q 144 513 74 498 q 133 460 134 469 q 132 417 129 434 q 143 390 135 399 q 159 376 151 380 q 174 371 167 372 l 180 370 q 169 421 170 389 q 176 484 169 452 q 191 544 182 515 q 206 591 199 573 l 214 609 q 226 494 215 546 q 249 432 233 460 q 277 395 264 405 l 288 385 m 576 471 q 589 450 579 456 q 606 444 598 443 l 614 444 q 610 450 612 446 q 605 471 608 454 q 607 513 602 488 q 616 558 610 534 q 627 595 622 582 l 631 610 q 586 595 595 611 q 559 539 571 568 q 534 492 547 511 q 507 472 515 465 q 509 508 500 478 q 531 566 517 537 q 557 607 547 599 q 587 609 567 615 q 579 627 590 619 q 551 633 568 634 q 520 620 533 631 q 477 525 492 593 q 448 496 465 503 q 454 545 455 526 q 439 599 452 585 q 405 611 427 614 q 445 616 422 623 q 436 626 441 620 q 413 641 430 633 q 381 643 396 648 q 333 568 355 633 q 321 468 310 503 q 366 424 334 431 q 429 456 399 418 q 443 481 437 468 q 473 500 458 485 q 473 472 471 483 q 511 446 478 443 q 544 476 524 446 q 575 535 563 506 l 587 564 q 583 548 585 557 q 575 510 580 538 q 576 471 570 483 m 772 437 q 766 445 769 439 q 758 470 763 450 q 761 515 753 489 q 774 561 766 538 q 786 594 781 583 l 791 604 l 761 618 q 751 618 755 621 q 663 518 696 579 q 715 667 680 594 q 777 757 749 739 q 763 763 772 760 q 737 766 755 766 q 711 751 719 765 q 640 574 662 673 q 625 471 622 495 q 634 453 627 462 q 647 439 641 444 l 654 435 q 688 530 655 488 q 718 567 704 552 q 739 586 732 582 l 745 591 q 741 580 743 587 q 732 554 738 573 q 722 519 726 536 q 719 485 719 503 q 726 457 720 467 q 747 436 736 441 q 765 434 759 431 l 772 437 m 834 408 q 841 523 815 439 q 906 690 867 606 q 1005 692 993 691 q 1040 706 1025 694 q 1062 730 1056 718 l 1068 741 q 985 727 1035 728 q 933 727 968 727 q 876 726 898 726 q 830 725 854 726 q 792 723 805 724 q 756 707 772 720 q 735 681 741 693 l 730 669 q 800 686 740 681 q 858 688 812 686 q 829 612 856 682 q 793 500 803 542 q 791 465 789 480 q 801 439 793 450 q 815 421 808 428 q 829 411 823 414 l 834 408 m 1170 524 q 1188 571 1186 552 q 1183 598 1190 589 q 1137 614 1171 628 q 1104 594 1120 608 q 1080 567 1088 579 l 1071 555 q 1110 648 1108 648 l 1091 648 q 1059 631 1067 644 q 1019 519 1040 580 q 1017 514 1018 518 q 1015 509 1015 510 q 982 490 996 496 q 1003 550 989 514 q 1026 610 1017 587 l 1036 634 q 988 619 1000 632 q 966 587 986 616 q 927 536 945 557 q 903 521 909 516 q 902 529 901 523 q 908 546 903 536 q 919 567 913 556 q 931 590 924 578 q 943 611 937 602 q 952 626 948 620 l 956 632 q 942 631 950 632 q 919 624 935 631 q 897 607 903 618 q 866 504 852 522 q 883 497 871 497 q 910 504 895 496 q 938 528 926 512 l 983 588 q 945 473 962 521 q 919 457 936 467 q 895 443 902 448 q 878 429 888 439 q 858 408 867 420 q 842 372 844 390 q 847 344 840 354 q 873 335 855 334 q 914 352 892 336 q 941 384 929 363 q 959 418 954 404 q 977 473 964 432 q 1008 491 996 485 q 985 412 991 440 q 989 383 981 399 q 1005 358 996 368 l 1015 349 q 1037 456 1010 366 q 1073 542 1053 506 q 1115 587 1088 568 q 1150 600 1142 606 q 1151 580 1154 595 q 1141 551 1148 565 q 1107 509 1128 524 q 1073 493 1086 494 l 1059 492 q 1066 487 1061 490 q 1084 480 1070 484 q 1110 478 1097 477 q 1140 490 1123 479 q 1170 524 1156 502 m 1278 614 q 1308 630 1293 630 q 1321 618 1322 630 q 1303 589 1320 606 q 1283 578 1295 581 q 1263 577 1271 576 l 1256 578 q 1259 572 1257 576 q 1271 562 1261 568 q 1293 557 1280 556 q 1330 574 1318 558 q 1341 611 1343 590 q 1326 635 1341 625 q 1290 647 1312 646 q 1244 631 1269 648 q 1207 590 1222 615 q 1193 536 1192 565 q 1215 490 1193 508 q 1254 481 1232 477 q 1297 496 1276 485 q 1329 519 1317 507 q 1334 531 1332 524 q 1336 545 1336 539 l 1337 550 q 1283 507 1320 524 q 1235 506 1245 490 q 1240 555 1225 522 q 1278 614 1255 588 m 369 555 q 383 511 370 532 q 415 484 396 490 q 394 441 406 451 q 369 436 383 432 q 356 474 356 439 q 363 536 355 509 q 369 555 366 544 m 648 144 q 634 149 640 144 q 629 162 629 155 q 632 176 629 170 q 641 186 635 183 q 655 191 647 191 q 669 185 664 191 q 675 172 675 180 q 671 158 675 165 q 663 148 668 152 q 648 144 656 144 m 1152 94 l 243 94 l 272 243 l 1181 243 l 1152 94 m 1124 203 l 1061 203 l 1058 190 l 1081 190 l 1069 131 l 1086 131 l 1098 190 l 1121 190 l 1124 203 m 967 203 l 953 131 l 969 131 l 978 176 l 1005 131 l 1019 131 l 1034 203 l 1017 203 l 1008 158 l 981 203 l 967 203 m 871 199 q 854 183 860 192 q 849 161 849 174 q 853 144 849 152 q 865 134 857 138 q 884 130 873 130 q 907 136 897 130 q 924 151 918 142 q 929 173 929 160 q 925 190 929 183 q 913 201 921 197 q 894 205 905 205 q 871 199 881 205 m 777 203 l 763 131 l 780 131 l 785 157 l 819 157 l 821 171 l 787 171 l 791 190 l 829 190 l 832 203 l 777 203 m 633 199 q 617 183 623 192 q 612 161 612 174 q 616 144 612 152 q 628 134 620 138 q 647 130 636 130 q 670 136 660 130 q 686 151 681 142 q 692 173 692 160 q 688 190 692 183 q 675 201 684 197 q 656 205 667 205 q 633 199 644 205 m 520 203 l 507 203 l 492 131 l 508 131 l 517 174 l 532 138 l 539 138 l 566 174 l 558 131 l 574 131 l 588 203 l 574 203 l 538 158 l 520 203 m 418 203 l 404 131 l 460 131 l 463 144 l 424 144 l 427 161 l 460 161 l 463 174 l 429 174 l 433 190 l 471 190 l 473 203 l 418 203 m 345 203 l 315 203 l 300 131 l 336 131 q 359 136 349 131 q 375 151 368 140 q 380 173 380 159 q 376 189 380 182 q 364 199 373 195 q 345 203 356 203 m 886 144 q 871 149 877 144 q 866 162 866 155 q 869 176 866 170 q 878 186 873 183 q 892 191 884 191 q 907 185 901 191 q 912 172 912 180 q 909 158 912 165 q 900 148 905 152 q 886 144 894 144 m 351 149 q 336 144 345 144 l 320 144 l 329 190 l 343 190 q 359 185 354 190 q 363 172 363 180 q 361 158 363 163 q 351 149 359 154 z "},"5":{"ha":1423,"x_min":26,"x_max":1398,"o":"m 869 401 q 938 452 888 429 q 910 387 922 408 q 885 361 899 366 q 859 367 863 353 q 869 401 855 380 m 392 570 q 418 555 410 600 q 419 498 424 519 l 419 497 q 392 530 401 507 q 392 570 382 553 m 1396 578 q 1386 533 1398 553 q 1392 516 1392 526 q 1375 465 1392 482 q 1327 430 1358 445 q 1268 415 1297 415 q 1219 431 1239 415 q 1202 449 1210 438 q 1125 412 1168 412 q 1092 418 1109 412 q 1091 415 1092 417 q 1090 413 1090 414 q 1068 323 1067 336 q 1067 303 1071 313 q 1055 288 1063 294 q 1038 283 1047 283 q 1017 292 1025 283 q 988 326 1000 306 q 956 292 973 304 q 894 269 924 269 q 840 302 868 269 q 817 336 827 315 q 810 371 809 350 q 808 372 810 372 q 807 374 807 373 q 782 368 796 368 q 722 407 746 368 q 716 419 718 414 q 714 421 715 420 q 712 424 713 423 l 709 401 q 692 374 707 383 q 677 370 686 370 q 661 374 669 370 q 659 376 661 375 q 655 378 657 376 q 650 381 652 379 q 643 379 650 381 l 639 378 q 631 378 635 378 q 578 406 597 378 q 536 380 559 382 q 532 380 534 380 q 528 380 529 380 q 477 404 494 380 q 399 358 445 358 q 340 382 366 358 q 343 356 340 372 q 329 324 347 335 q 312 319 321 319 q 294 325 301 319 l 292 327 q 287 331 290 328 q 280 336 284 333 q 272 345 277 340 q 263 355 268 349 q 254 368 259 361 q 244 384 249 376 q 225 411 232 399 q 231 351 220 370 q 230 320 239 336 q 203 304 221 304 q 144 333 169 304 q 100 417 106 378 q 83 411 91 411 q 72 413 77 411 q 38 444 49 422 q 28 480 26 465 q 29 489 28 482 q 37 508 31 495 q 53 532 43 520 q 83 556 63 544 q 129 576 103 569 q 156 662 144 633 q 173 696 168 690 q 187 705 178 701 q 200 707 193 707 q 264 668 227 707 q 268 663 267 665 q 317 756 284 701 q 374 787 336 787 q 425 774 399 787 q 449 746 433 770 q 465 713 465 722 q 451 685 467 695 q 432 667 444 680 q 470 635 455 654 q 476 618 475 628 l 477 618 q 479 616 479 617 q 499 643 489 634 q 555 665 522 665 q 610 640 592 665 q 625 641 615 641 q 684 768 646 706 q 741 798 703 798 q 791 785 766 798 q 808 758 807 777 l 808 756 q 930 759 851 759 l 985 759 q 1022 762 1004 759 q 1048 768 1040 765 l 1057 770 q 1068 772 1063 772 q 1091 763 1082 772 q 1104 744 1095 759 q 1114 729 1114 730 q 1121 694 1128 711 q 1113 680 1118 688 q 1141 656 1136 675 q 1141 648 1141 654 q 1155 650 1149 650 q 1199 631 1181 650 q 1225 656 1209 643 q 1290 678 1255 678 q 1375 629 1339 678 q 1396 578 1394 606 m 288 385 q 298 523 279 442 q 350 666 318 604 q 410 746 382 728 q 396 752 405 749 q 370 754 388 755 q 344 740 352 753 q 288 631 309 684 q 262 540 267 578 q 257 481 258 502 q 260 447 257 461 q 235 531 240 481 q 236 613 231 581 l 241 646 q 232 654 238 649 q 215 668 227 660 q 198 675 203 677 q 154 550 187 671 q 110 535 129 545 q 82 516 92 526 q 67 497 73 507 q 61 483 62 488 l 60 477 q 144 513 74 498 q 133 460 134 469 q 132 417 129 434 q 143 390 135 399 q 159 376 151 380 q 174 371 167 372 l 180 370 q 169 421 170 389 q 176 484 169 452 q 191 544 182 515 q 206 591 199 573 l 214 609 q 226 494 215 546 q 249 432 233 460 q 277 395 264 405 l 288 385 m 576 471 q 589 450 579 456 q 606 444 598 443 l 614 444 q 610 450 612 446 q 605 471 608 454 q 607 513 602 488 q 616 558 610 534 q 627 595 622 582 l 631 610 q 586 595 595 611 q 559 539 571 568 q 534 492 547 511 q 507 472 515 465 q 509 508 500 478 q 531 566 517 537 q 557 607 547 599 q 587 609 567 615 q 579 627 590 619 q 551 633 568 634 q 520 620 533 631 q 477 525 492 593 q 448 496 465 503 q 454 545 455 526 q 439 599 452 585 q 405 611 427 614 q 445 616 422 623 q 436 626 441 620 q 413 641 430 633 q 381 643 396 648 q 333 568 355 633 q 321 468 310 503 q 366 424 334 431 q 429 456 399 418 q 443 481 437 468 q 473 500 458 485 q 473 472 471 483 q 511 446 478 443 q 544 476 524 446 q 575 535 563 506 l 587 564 q 583 548 585 557 q 575 510 580 538 q 576 471 570 483 m 772 437 q 766 445 769 439 q 758 470 763 450 q 761 515 753 489 q 774 561 766 538 q 786 594 781 583 l 791 604 l 761 618 q 751 618 755 621 q 663 518 696 579 q 715 667 680 594 q 777 757 749 739 q 763 763 772 760 q 737 766 755 766 q 711 751 719 765 q 640 574 662 673 q 625 471 622 495 q 634 453 627 462 q 647 439 641 444 l 654 435 q 688 530 655 488 q 718 567 704 552 q 739 586 732 582 l 745 591 q 741 580 743 587 q 732 554 738 573 q 722 519 726 536 q 719 485 719 503 q 726 457 720 467 q 747 436 736 441 q 765 434 759 431 l 772 437 m 834 408 q 841 523 815 439 q 906 690 867 606 q 1005 692 993 691 q 1040 706 1025 694 q 1062 730 1056 718 l 1068 741 q 985 727 1035 728 q 933 727 968 727 q 876 726 898 726 q 830 725 854 726 q 792 723 805 724 q 756 707 772 720 q 735 681 741 693 l 730 669 q 800 686 740 681 q 858 688 812 686 q 829 612 856 682 q 793 500 803 542 q 791 465 789 480 q 801 439 793 450 q 815 421 808 428 q 829 411 823 414 l 834 408 m 1170 524 q 1188 571 1186 552 q 1183 598 1190 589 q 1137 614 1171 628 q 1104 594 1120 608 q 1080 567 1088 579 l 1071 555 q 1110 648 1108 648 l 1091 648 q 1059 631 1067 644 q 1019 519 1040 580 q 1017 514 1018 518 q 1015 509 1015 510 q 982 490 996 496 q 1003 550 989 514 q 1026 610 1017 587 l 1036 634 q 988 619 1000 632 q 966 587 986 616 q 927 536 945 557 q 903 521 909 516 q 902 529 901 523 q 908 546 903 536 q 919 567 913 556 q 931 590 924 578 q 943 611 937 602 q 952 626 948 620 l 956 632 q 942 631 950 632 q 919 624 935 631 q 897 607 903 618 q 866 504 852 522 q 883 497 871 497 q 910 504 895 496 q 938 528 926 512 l 983 588 q 945 473 962 521 q 919 457 936 467 q 895 443 902 448 q 878 429 888 439 q 858 408 867 420 q 842 372 844 390 q 847 344 840 354 q 873 335 855 334 q 914 352 892 336 q 941 384 929 363 q 959 418 954 404 q 977 473 964 432 q 1008 491 996 485 q 985 412 991 440 q 989 383 981 399 q 1005 358 996 368 l 1015 349 q 1037 456 1010 366 q 1073 542 1053 506 q 1115 587 1088 568 q 1150 600 1142 606 q 1151 580 1154 595 q 1141 551 1148 565 q 1107 509 1128 524 q 1073 493 1086 494 l 1059 492 q 1066 487 1061 490 q 1084 480 1070 484 q 1110 478 1097 477 q 1140 490 1123 479 q 1170 524 1156 502 m 1278 614 q 1308 630 1293 630 q 1321 618 1322 630 q 1303 589 1320 606 q 1283 578 1295 581 q 1263 577 1271 576 l 1256 578 q 1259 572 1257 576 q 1271 562 1261 568 q 1293 557 1280 556 q 1330 574 1318 558 q 1341 611 1343 590 q 1326 635 1341 625 q 1290 647 1312 646 q 1244 631 1269 648 q 1207 590 1222 615 q 1193 536 1192 565 q 1215 490 1193 508 q 1254 481 1232 477 q 1297 496 1276 485 q 1329 519 1317 507 q 1334 531 1332 524 q 1336 545 1336 539 l 1337 550 q 1283 507 1320 524 q 1235 506 1245 490 q 1240 555 1225 522 q 1278 614 1255 588 m 369 555 q 383 511 370 532 q 415 484 396 490 q 394 441 406 451 q 369 436 383 432 q 356 474 356 439 q 363 536 355 509 q 369 555 366 544 m 648 144 q 634 149 640 144 q 629 162 629 155 q 632 176 629 170 q 641 186 635 183 q 655 191 647 191 q 669 185 664 191 q 675 172 675 180 q 671 158 675 165 q 663 148 668 152 q 648 144 656 144 m 1152 94 l 243 94 l 272 243 l 1181 243 l 1152 94 m 1124 203 l 1061 203 l 1058 190 l 1081 190 l 1069 131 l 1086 131 l 1098 190 l 1121 190 l 1124 203 m 967 203 l 953 131 l 969 131 l 978 176 l 1005 131 l 1019 131 l 1034 203 l 1017 203 l 1008 158 l 981 203 l 967 203 m 871 199 q 854 183 860 192 q 849 161 849 174 q 853 144 849 152 q 865 134 857 138 q 884 130 873 130 q 907 136 897 130 q 924 151 918 142 q 929 173 929 160 q 925 190 929 183 q 913 201 921 197 q 894 205 905 205 q 871 199 881 205 m 777 203 l 763 131 l 780 131 l 785 157 l 819 157 l 821 171 l 787 171 l 791 190 l 829 190 l 832 203 l 777 203 m 633 199 q 617 183 623 192 q 612 161 612 174 q 616 144 612 152 q 628 134 620 138 q 647 130 636 130 q 670 136 660 130 q 686 151 681 142 q 692 173 692 160 q 688 190 692 183 q 675 201 684 197 q 656 205 667 205 q 633 199 644 205 m 520 203 l 507 203 l 492 131 l 508 131 l 517 174 l 532 138 l 539 138 l 566 174 l 558 131 l 574 131 l 588 203 l 574 203 l 538 158 l 520 203 m 418 203 l 404 131 l 460 131 l 463 144 l 424 144 l 427 161 l 460 161 l 463 174 l 429 174 l 433 190 l 471 190 l 473 203 l 418 203 m 345 203 l 315 203 l 300 131 l 336 131 q 359 136 349 131 q 375 151 368 140 q 380 173 380 159 q 376 189 380 182 q 364 199 373 195 q 345 203 356 203 m 886 144 q 871 149 877 144 q 866 162 866 155 q 869 176 866 170 q 878 186 873 183 q 892 191 884 191 q 907 185 901 191 q 912 172 912 180 q 909 158 912 165 q 900 148 905 152 q 886 144 894 144 m 351 149 q 336 144 345 144 l 320 144 l 329 190 l 343 190 q 359 185 354 190 q 363 172 363 180 q 361 158 363 163 q 351 149 359 154 z "},"6":{"ha":1423,"x_min":26,"x_max":1398,"o":"m 869 401 q 938 452 888 429 q 910 387 922 408 q 885 361 899 366 q 859 367 863 353 q 869 401 855 380 m 392 570 q 418 555 410 600 q 419 498 424 519 l 419 497 q 392 530 401 507 q 392 570 382 553 m 1396 578 q 1386 533 1398 553 q 1392 516 1392 526 q 1375 465 1392 482 q 1327 430 1358 445 q 1268 415 1297 415 q 1219 431 1239 415 q 1202 449 1210 438 q 1125 412 1168 412 q 1092 418 1109 412 q 1091 415 1092 417 q 1090 413 1090 414 q 1068 323 1067 336 q 1067 303 1071 313 q 1055 288 1063 294 q 1038 283 1047 283 q 1017 292 1025 283 q 988 326 1000 306 q 956 292 973 304 q 894 269 924 269 q 840 302 868 269 q 817 336 827 315 q 810 371 809 350 q 808 372 810 372 q 807 374 807 373 q 782 368 796 368 q 722 407 746 368 q 716 419 718 414 q 714 421 715 420 q 712 424 713 423 l 709 401 q 692 374 707 383 q 677 370 686 370 q 661 374 669 370 q 659 376 661 375 q 655 378 657 376 q 650 381 652 379 q 643 379 650 381 l 639 378 q 631 378 635 378 q 578 406 597 378 q 536 380 559 382 q 532 380 534 380 q 528 380 529 380 q 477 404 494 380 q 399 358 445 358 q 340 382 366 358 q 343 356 340 372 q 329 324 347 335 q 312 319 321 319 q 294 325 301 319 l 292 327 q 287 331 290 328 q 280 336 284 333 q 272 345 277 340 q 263 355 268 349 q 254 368 259 361 q 244 384 249 376 q 225 411 232 399 q 231 351 220 370 q 230 320 239 336 q 203 304 221 304 q 144 333 169 304 q 100 417 106 378 q 83 411 91 411 q 72 413 77 411 q 38 444 49 422 q 28 480 26 465 q 29 489 28 482 q 37 508 31 495 q 53 532 43 520 q 83 556 63 544 q 129 576 103 569 q 156 662 144 633 q 173 696 168 690 q 187 705 178 701 q 200 707 193 707 q 264 668 227 707 q 268 663 267 665 q 317 756 284 701 q 374 787 336 787 q 425 774 399 787 q 449 746 433 770 q 465 713 465 722 q 451 685 467 695 q 432 667 444 680 q 470 635 455 654 q 476 618 475 628 l 477 618 q 479 616 479 617 q 499 643 489 634 q 555 665 522 665 q 610 640 592 665 q 625 641 615 641 q 684 768 646 706 q 741 798 703 798 q 791 785 766 798 q 808 758 807 777 l 808 756 q 930 759 851 759 l 985 759 q 1022 762 1004 759 q 1048 768 1040 765 l 1057 770 q 1068 772 1063 772 q 1091 763 1082 772 q 1104 744 1095 759 q 1114 729 1114 730 q 1121 694 1128 711 q 1113 680 1118 688 q 1141 656 1136 675 q 1141 648 1141 654 q 1155 650 1149 650 q 1199 631 1181 650 q 1225 656 1209 643 q 1290 678 1255 678 q 1375 629 1339 678 q 1396 578 1394 606 m 288 385 q 298 523 279 442 q 350 666 318 604 q 410 746 382 728 q 396 752 405 749 q 370 754 388 755 q 344 740 352 753 q 288 631 309 684 q 262 540 267 578 q 257 481 258 502 q 260 447 257 461 q 235 531 240 481 q 236 613 231 581 l 241 646 q 232 654 238 649 q 215 668 227 660 q 198 675 203 677 q 154 550 187 671 q 110 535 129 545 q 82 516 92 526 q 67 497 73 507 q 61 483 62 488 l 60 477 q 144 513 74 498 q 133 460 134 469 q 132 417 129 434 q 143 390 135 399 q 159 376 151 380 q 174 371 167 372 l 180 370 q 169 421 170 389 q 176 484 169 452 q 191 544 182 515 q 206 591 199 573 l 214 609 q 226 494 215 546 q 249 432 233 460 q 277 395 264 405 l 288 385 m 576 471 q 589 450 579 456 q 606 444 598 443 l 614 444 q 610 450 612 446 q 605 471 608 454 q 607 513 602 488 q 616 558 610 534 q 627 595 622 582 l 631 610 q 586 595 595 611 q 559 539 571 568 q 534 492 547 511 q 507 472 515 465 q 509 508 500 478 q 531 566 517 537 q 557 607 547 599 q 587 609 567 615 q 579 627 590 619 q 551 633 568 634 q 520 620 533 631 q 477 525 492 593 q 448 496 465 503 q 454 545 455 526 q 439 599 452 585 q 405 611 427 614 q 445 616 422 623 q 436 626 441 620 q 413 641 430 633 q 381 643 396 648 q 333 568 355 633 q 321 468 310 503 q 366 424 334 431 q 429 456 399 418 q 443 481 437 468 q 473 500 458 485 q 473 472 471 483 q 511 446 478 443 q 544 476 524 446 q 575 535 563 506 l 587 564 q 583 548 585 557 q 575 510 580 538 q 576 471 570 483 m 772 437 q 766 445 769 439 q 758 470 763 450 q 761 515 753 489 q 774 561 766 538 q 786 594 781 583 l 791 604 l 761 618 q 751 618 755 621 q 663 518 696 579 q 715 667 680 594 q 777 757 749 739 q 763 763 772 760 q 737 766 755 766 q 711 751 719 765 q 640 574 662 673 q 625 471 622 495 q 634 453 627 462 q 647 439 641 444 l 654 435 q 688 530 655 488 q 718 567 704 552 q 739 586 732 582 l 745 591 q 741 580 743 587 q 732 554 738 573 q 722 519 726 536 q 719 485 719 503 q 726 457 720 467 q 747 436 736 441 q 765 434 759 431 l 772 437 m 834 408 q 841 523 815 439 q 906 690 867 606 q 1005 692 993 691 q 1040 706 1025 694 q 1062 730 1056 718 l 1068 741 q 985 727 1035 728 q 933 727 968 727 q 876 726 898 726 q 830 725 854 726 q 792 723 805 724 q 756 707 772 720 q 735 681 741 693 l 730 669 q 800 686 740 681 q 858 688 812 686 q 829 612 856 682 q 793 500 803 542 q 791 465 789 480 q 801 439 793 450 q 815 421 808 428 q 829 411 823 414 l 834 408 m 1170 524 q 1188 571 1186 552 q 1183 598 1190 589 q 1137 614 1171 628 q 1104 594 1120 608 q 1080 567 1088 579 l 1071 555 q 1110 648 1108 648 l 1091 648 q 1059 631 1067 644 q 1019 519 1040 580 q 1017 514 1018 518 q 1015 509 1015 510 q 982 490 996 496 q 1003 550 989 514 q 1026 610 1017 587 l 1036 634 q 988 619 1000 632 q 966 587 986 616 q 927 536 945 557 q 903 521 909 516 q 902 529 901 523 q 908 546 903 536 q 919 567 913 556 q 931 590 924 578 q 943 611 937 602 q 952 626 948 620 l 956 632 q 942 631 950 632 q 919 624 935 631 q 897 607 903 618 q 866 504 852 522 q 883 497 871 497 q 910 504 895 496 q 938 528 926 512 l 983 588 q 945 473 962 521 q 919 457 936 467 q 895 443 902 448 q 878 429 888 439 q 858 408 867 420 q 842 372 844 390 q 847 344 840 354 q 873 335 855 334 q 914 352 892 336 q 941 384 929 363 q 959 418 954 404 q 977 473 964 432 q 1008 491 996 485 q 985 412 991 440 q 989 383 981 399 q 1005 358 996 368 l 1015 349 q 1037 456 1010 366 q 1073 542 1053 506 q 1115 587 1088 568 q 1150 600 1142 606 q 1151 580 1154 595 q 1141 551 1148 565 q 1107 509 1128 524 q 1073 493 1086 494 l 1059 492 q 1066 487 1061 490 q 1084 480 1070 484 q 1110 478 1097 477 q 1140 490 1123 479 q 1170 524 1156 502 m 1278 614 q 1308 630 1293 630 q 1321 618 1322 630 q 1303 589 1320 606 q 1283 578 1295 581 q 1263 577 1271 576 l 1256 578 q 1259 572 1257 576 q 1271 562 1261 568 q 1293 557 1280 556 q 1330 574 1318 558 q 1341 611 1343 590 q 1326 635 1341 625 q 1290 647 1312 646 q 1244 631 1269 648 q 1207 590 1222 615 q 1193 536 1192 565 q 1215 490 1193 508 q 1254 481 1232 477 q 1297 496 1276 485 q 1329 519 1317 507 q 1334 531 1332 524 q 1336 545 1336 539 l 1337 550 q 1283 507 1320 524 q 1235 506 1245 490 q 1240 555 1225 522 q 1278 614 1255 588 m 369 555 q 383 511 370 532 q 415 484 396 490 q 394 441 406 451 q 369 436 383 432 q 356 474 356 439 q 363 536 355 509 q 369 555 366 544 m 648 144 q 634 149 640 144 q 629 162 629 155 q 632 176 629 170 q 641 186 635 183 q 655 191 647 191 q 669 185 664 191 q 675 172 675 180 q 671 158 675 165 q 663 148 668 152 q 648 144 656 144 m 1152 94 l 243 94 l 272 243 l 1181 243 l 1152 94 m 1124 203 l 1061 203 l 1058 190 l 1081 190 l 1069 131 l 1086 131 l 1098 190 l 1121 190 l 1124 203 m 967 203 l 953 131 l 969 131 l 978 176 l 1005 131 l 1019 131 l 1034 203 l 1017 203 l 1008 158 l 981 203 l 967 203 m 871 199 q 854 183 860 192 q 849 161 849 174 q 853 144 849 152 q 865 134 857 138 q 884 130 873 130 q 907 136 897 130 q 924 151 918 142 q 929 173 929 160 q 925 190 929 183 q 913 201 921 197 q 894 205 905 205 q 871 199 881 205 m 777 203 l 763 131 l 780 131 l 785 157 l 819 157 l 821 171 l 787 171 l 791 190 l 829 190 l 832 203 l 777 203 m 633 199 q 617 183 623 192 q 612 161 612 174 q 616 144 612 152 q 628 134 620 138 q 647 130 636 130 q 670 136 660 130 q 686 151 681 142 q 692 173 692 160 q 688 190 692 183 q 675 201 684 197 q 656 205 667 205 q 633 199 644 205 m 520 203 l 507 203 l 492 131 l 508 131 l 517 174 l 532 138 l 539 138 l 566 174 l 558 131 l 574 131 l 588 203 l 574 203 l 538 158 l 520 203 m 418 203 l 404 131 l 460 131 l 463 144 l 424 144 l 427 161 l 460 161 l 463 174 l 429 174 l 433 190 l 471 190 l 473 203 l 418 203 m 345 203 l 315 203 l 300 131 l 336 131 q 359 136 349 131 q 375 151 368 140 q 380 173 380 159 q 376 189 380 182 q 364 199 373 195 q 345 203 356 203 m 886 144 q 871 149 877 144 q 866 162 866 155 q 869 176 866 170 q 878 186 873 183 q 892 191 884 191 q 907 185 901 191 q 912 172 912 180 q 909 158 912 165 q 900 148 905 152 q 886 144 894 144 m 351 149 q 336 144 345 144 l 320 144 l 329 190 l 343 190 q 359 185 354 190 q 363 172 363 180 q 361 158 363 163 q 351 149 359 154 z "},"7":{"ha":1423,"x_min":26,"x_max":1398,"o":"m 869 401 q 938 452 888 429 q 910 387 922 408 q 885 361 899 366 q 859 367 863 353 q 869 401 855 380 m 392 570 q 418 555 410 600 q 419 498 424 519 l 419 497 q 392 530 401 507 q 392 570 382 553 m 1396 578 q 1386 533 1398 553 q 1392 516 1392 526 q 1375 465 1392 482 q 1327 430 1358 445 q 1268 415 1297 415 q 1219 431 1239 415 q 1202 449 1210 438 q 1125 412 1168 412 q 1092 418 1109 412 q 1091 415 1092 417 q 1090 413 1090 414 q 1068 323 1067 336 q 1067 303 1071 313 q 1055 288 1063 294 q 1038 283 1047 283 q 1017 292 1025 283 q 988 326 1000 306 q 956 292 973 304 q 894 269 924 269 q 840 302 868 269 q 817 336 827 315 q 810 371 809 350 q 808 372 810 372 q 807 374 807 373 q 782 368 796 368 q 722 407 746 368 q 716 419 718 414 q 714 421 715 420 q 712 424 713 423 l 709 401 q 692 374 707 383 q 677 370 686 370 q 661 374 669 370 q 659 376 661 375 q 655 378 657 376 q 650 381 652 379 q 643 379 650 381 l 639 378 q 631 378 635 378 q 578 406 597 378 q 536 380 559 382 q 532 380 534 380 q 528 380 529 380 q 477 404 494 380 q 399 358 445 358 q 340 382 366 358 q 343 356 340 372 q 329 324 347 335 q 312 319 321 319 q 294 325 301 319 l 292 327 q 287 331 290 328 q 280 336 284 333 q 272 345 277 340 q 263 355 268 349 q 254 368 259 361 q 244 384 249 376 q 225 411 232 399 q 231 351 220 370 q 230 320 239 336 q 203 304 221 304 q 144 333 169 304 q 100 417 106 378 q 83 411 91 411 q 72 413 77 411 q 38 444 49 422 q 28 480 26 465 q 29 489 28 482 q 37 508 31 495 q 53 532 43 520 q 83 556 63 544 q 129 576 103 569 q 156 662 144 633 q 173 696 168 690 q 187 705 178 701 q 200 707 193 707 q 264 668 227 707 q 268 663 267 665 q 317 756 284 701 q 374 787 336 787 q 425 774 399 787 q 449 746 433 770 q 465 713 465 722 q 451 685 467 695 q 432 667 444 680 q 470 635 455 654 q 476 618 475 628 l 477 618 q 479 616 479 617 q 499 643 489 634 q 555 665 522 665 q 610 640 592 665 q 625 641 615 641 q 684 768 646 706 q 741 798 703 798 q 791 785 766 798 q 808 758 807 777 l 808 756 q 930 759 851 759 l 985 759 q 1022 762 1004 759 q 1048 768 1040 765 l 1057 770 q 1068 772 1063 772 q 1091 763 1082 772 q 1104 744 1095 759 q 1114 729 1114 730 q 1121 694 1128 711 q 1113 680 1118 688 q 1141 656 1136 675 q 1141 648 1141 654 q 1155 650 1149 650 q 1199 631 1181 650 q 1225 656 1209 643 q 1290 678 1255 678 q 1375 629 1339 678 q 1396 578 1394 606 m 288 385 q 298 523 279 442 q 350 666 318 604 q 410 746 382 728 q 396 752 405 749 q 370 754 388 755 q 344 740 352 753 q 288 631 309 684 q 262 540 267 578 q 257 481 258 502 q 260 447 257 461 q 235 531 240 481 q 236 613 231 581 l 241 646 q 232 654 238 649 q 215 668 227 660 q 198 675 203 677 q 154 550 187 671 q 110 535 129 545 q 82 516 92 526 q 67 497 73 507 q 61 483 62 488 l 60 477 q 144 513 74 498 q 133 460 134 469 q 132 417 129 434 q 143 390 135 399 q 159 376 151 380 q 174 371 167 372 l 180 370 q 169 421 170 389 q 176 484 169 452 q 191 544 182 515 q 206 591 199 573 l 214 609 q 226 494 215 546 q 249 432 233 460 q 277 395 264 405 l 288 385 m 576 471 q 589 450 579 456 q 606 444 598 443 l 614 444 q 610 450 612 446 q 605 471 608 454 q 607 513 602 488 q 616 558 610 534 q 627 595 622 582 l 631 610 q 586 595 595 611 q 559 539 571 568 q 534 492 547 511 q 507 472 515 465 q 509 508 500 478 q 531 566 517 537 q 557 607 547 599 q 587 609 567 615 q 579 627 590 619 q 551 633 568 634 q 520 620 533 631 q 477 525 492 593 q 448 496 465 503 q 454 545 455 526 q 439 599 452 585 q 405 611 427 614 q 445 616 422 623 q 436 626 441 620 q 413 641 430 633 q 381 643 396 648 q 333 568 355 633 q 321 468 310 503 q 366 424 334 431 q 429 456 399 418 q 443 481 437 468 q 473 500 458 485 q 473 472 471 483 q 511 446 478 443 q 544 476 524 446 q 575 535 563 506 l 587 564 q 583 548 585 557 q 575 510 580 538 q 576 471 570 483 m 772 437 q 766 445 769 439 q 758 470 763 450 q 761 515 753 489 q 774 561 766 538 q 786 594 781 583 l 791 604 l 761 618 q 751 618 755 621 q 663 518 696 579 q 715 667 680 594 q 777 757 749 739 q 763 763 772 760 q 737 766 755 766 q 711 751 719 765 q 640 574 662 673 q 625 471 622 495 q 634 453 627 462 q 647 439 641 444 l 654 435 q 688 530 655 488 q 718 567 704 552 q 739 586 732 582 l 745 591 q 741 580 743 587 q 732 554 738 573 q 722 519 726 536 q 719 485 719 503 q 726 457 720 467 q 747 436 736 441 q 765 434 759 431 l 772 437 m 834 408 q 841 523 815 439 q 906 690 867 606 q 1005 692 993 691 q 1040 706 1025 694 q 1062 730 1056 718 l 1068 741 q 985 727 1035 728 q 933 727 968 727 q 876 726 898 726 q 830 725 854 726 q 792 723 805 724 q 756 707 772 720 q 735 681 741 693 l 730 669 q 800 686 740 681 q 858 688 812 686 q 829 612 856 682 q 793 500 803 542 q 791 465 789 480 q 801 439 793 450 q 815 421 808 428 q 829 411 823 414 l 834 408 m 1170 524 q 1188 571 1186 552 q 1183 598 1190 589 q 1137 614 1171 628 q 1104 594 1120 608 q 1080 567 1088 579 l 1071 555 q 1110 648 1108 648 l 1091 648 q 1059 631 1067 644 q 1019 519 1040 580 q 1017 514 1018 518 q 1015 509 1015 510 q 982 490 996 496 q 1003 550 989 514 q 1026 610 1017 587 l 1036 634 q 988 619 1000 632 q 966 587 986 616 q 927 536 945 557 q 903 521 909 516 q 902 529 901 523 q 908 546 903 536 q 919 567 913 556 q 931 590 924 578 q 943 611 937 602 q 952 626 948 620 l 956 632 q 942 631 950 632 q 919 624 935 631 q 897 607 903 618 q 866 504 852 522 q 883 497 871 497 q 910 504 895 496 q 938 528 926 512 l 983 588 q 945 473 962 521 q 919 457 936 467 q 895 443 902 448 q 878 429 888 439 q 858 408 867 420 q 842 372 844 390 q 847 344 840 354 q 873 335 855 334 q 914 352 892 336 q 941 384 929 363 q 959 418 954 404 q 977 473 964 432 q 1008 491 996 485 q 985 412 991 440 q 989 383 981 399 q 1005 358 996 368 l 1015 349 q 1037 456 1010 366 q 1073 542 1053 506 q 1115 587 1088 568 q 1150 600 1142 606 q 1151 580 1154 595 q 1141 551 1148 565 q 1107 509 1128 524 q 1073 493 1086 494 l 1059 492 q 1066 487 1061 490 q 1084 480 1070 484 q 1110 478 1097 477 q 1140 490 1123 479 q 1170 524 1156 502 m 1278 614 q 1308 630 1293 630 q 1321 618 1322 630 q 1303 589 1320 606 q 1283 578 1295 581 q 1263 577 1271 576 l 1256 578 q 1259 572 1257 576 q 1271 562 1261 568 q 1293 557 1280 556 q 1330 574 1318 558 q 1341 611 1343 590 q 1326 635 1341 625 q 1290 647 1312 646 q 1244 631 1269 648 q 1207 590 1222 615 q 1193 536 1192 565 q 1215 490 1193 508 q 1254 481 1232 477 q 1297 496 1276 485 q 1329 519 1317 507 q 1334 531 1332 524 q 1336 545 1336 539 l 1337 550 q 1283 507 1320 524 q 1235 506 1245 490 q 1240 555 1225 522 q 1278 614 1255 588 m 369 555 q 383 511 370 532 q 415 484 396 490 q 394 441 406 451 q 369 436 383 432 q 356 474 356 439 q 363 536 355 509 q 369 555 366 544 m 648 144 q 634 149 640 144 q 629 162 629 155 q 632 176 629 170 q 641 186 635 183 q 655 191 647 191 q 669 185 664 191 q 675 172 675 180 q 671 158 675 165 q 663 148 668 152 q 648 144 656 144 m 1152 94 l 243 94 l 272 243 l 1181 243 l 1152 94 m 1124 203 l 1061 203 l 1058 190 l 1081 190 l 1069 131 l 1086 131 l 1098 190 l 1121 190 l 1124 203 m 967 203 l 953 131 l 969 131 l 978 176 l 1005 131 l 1019 131 l 1034 203 l 1017 203 l 1008 158 l 981 203 l 967 203 m 871 199 q 854 183 860 192 q 849 161 849 174 q 853 144 849 152 q 865 134 857 138 q 884 130 873 130 q 907 136 897 130 q 924 151 918 142 q 929 173 929 160 q 925 190 929 183 q 913 201 921 197 q 894 205 905 205 q 871 199 881 205 m 777 203 l 763 131 l 780 131 l 785 157 l 819 157 l 821 171 l 787 171 l 791 190 l 829 190 l 832 203 l 777 203 m 633 199 q 617 183 623 192 q 612 161 612 174 q 616 144 612 152 q 628 134 620 138 q 647 130 636 130 q 670 136 660 130 q 686 151 681 142 q 692 173 692 160 q 688 190 692 183 q 675 201 684 197 q 656 205 667 205 q 633 199 644 205 m 520 203 l 507 203 l 492 131 l 508 131 l 517 174 l 532 138 l 539 138 l 566 174 l 558 131 l 574 131 l 588 203 l 574 203 l 538 158 l 520 203 m 418 203 l 404 131 l 460 131 l 463 144 l 424 144 l 427 161 l 460 161 l 463 174 l 429 174 l 433 190 l 471 190 l 473 203 l 418 203 m 345 203 l 315 203 l 300 131 l 336 131 q 359 136 349 131 q 375 151 368 140 q 380 173 380 159 q 376 189 380 182 q 364 199 373 195 q 345 203 356 203 m 886 144 q 871 149 877 144 q 866 162 866 155 q 869 176 866 170 q 878 186 873 183 q 892 191 884 191 q 907 185 901 191 q 912 172 912 180 q 909 158 912 165 q 900 148 905 152 q 886 144 894 144 m 351 149 q 336 144 345 144 l 320 144 l 329 190 l 343 190 q 359 185 354 190 q 363 172 363 180 q 361 158 363 163 q 351 149 359 154 z "},"8":{"ha":1423,"x_min":26,"x_max":1398,"o":"m 869 401 q 938 452 888 429 q 910 387 922 408 q 885 361 899 366 q 859 367 863 353 q 869 401 855 380 m 392 570 q 418 555 410 600 q 419 498 424 519 l 419 497 q 392 530 401 507 q 392 570 382 553 m 1396 578 q 1386 533 1398 553 q 1392 516 1392 526 q 1375 465 1392 482 q 1327 430 1358 445 q 1268 415 1297 415 q 1219 431 1239 415 q 1202 449 1210 438 q 1125 412 1168 412 q 1092 418 1109 412 q 1091 415 1092 417 q 1090 413 1090 414 q 1068 323 1067 336 q 1067 303 1071 313 q 1055 288 1063 294 q 1038 283 1047 283 q 1017 292 1025 283 q 988 326 1000 306 q 956 292 973 304 q 894 269 924 269 q 840 302 868 269 q 817 336 827 315 q 810 371 809 350 q 808 372 810 372 q 807 374 807 373 q 782 368 796 368 q 722 407 746 368 q 716 419 718 414 q 714 421 715 420 q 712 424 713 423 l 709 401 q 692 374 707 383 q 677 370 686 370 q 661 374 669 370 q 659 376 661 375 q 655 378 657 376 q 650 381 652 379 q 643 379 650 381 l 639 378 q 631 378 635 378 q 578 406 597 378 q 536 380 559 382 q 532 380 534 380 q 528 380 529 380 q 477 404 494 380 q 399 358 445 358 q 340 382 366 358 q 343 356 340 372 q 329 324 347 335 q 312 319 321 319 q 294 325 301 319 l 292 327 q 287 331 290 328 q 280 336 284 333 q 272 345 277 340 q 263 355 268 349 q 254 368 259 361 q 244 384 249 376 q 225 411 232 399 q 231 351 220 370 q 230 320 239 336 q 203 304 221 304 q 144 333 169 304 q 100 417 106 378 q 83 411 91 411 q 72 413 77 411 q 38 444 49 422 q 28 480 26 465 q 29 489 28 482 q 37 508 31 495 q 53 532 43 520 q 83 556 63 544 q 129 576 103 569 q 156 662 144 633 q 173 696 168 690 q 187 705 178 701 q 200 707 193 707 q 264 668 227 707 q 268 663 267 665 q 317 756 284 701 q 374 787 336 787 q 425 774 399 787 q 449 746 433 770 q 465 713 465 722 q 451 685 467 695 q 432 667 444 680 q 470 635 455 654 q 476 618 475 628 l 477 618 q 479 616 479 617 q 499 643 489 634 q 555 665 522 665 q 610 640 592 665 q 625 641 615 641 q 684 768 646 706 q 741 798 703 798 q 791 785 766 798 q 808 758 807 777 l 808 756 q 930 759 851 759 l 985 759 q 1022 762 1004 759 q 1048 768 1040 765 l 1057 770 q 1068 772 1063 772 q 1091 763 1082 772 q 1104 744 1095 759 q 1114 729 1114 730 q 1121 694 1128 711 q 1113 680 1118 688 q 1141 656 1136 675 q 1141 648 1141 654 q 1155 650 1149 650 q 1199 631 1181 650 q 1225 656 1209 643 q 1290 678 1255 678 q 1375 629 1339 678 q 1396 578 1394 606 m 288 385 q 298 523 279 442 q 350 666 318 604 q 410 746 382 728 q 396 752 405 749 q 370 754 388 755 q 344 740 352 753 q 288 631 309 684 q 262 540 267 578 q 257 481 258 502 q 260 447 257 461 q 235 531 240 481 q 236 613 231 581 l 241 646 q 232 654 238 649 q 215 668 227 660 q 198 675 203 677 q 154 550 187 671 q 110 535 129 545 q 82 516 92 526 q 67 497 73 507 q 61 483 62 488 l 60 477 q 144 513 74 498 q 133 460 134 469 q 132 417 129 434 q 143 390 135 399 q 159 376 151 380 q 174 371 167 372 l 180 370 q 169 421 170 389 q 176 484 169 452 q 191 544 182 515 q 206 591 199 573 l 214 609 q 226 494 215 546 q 249 432 233 460 q 277 395 264 405 l 288 385 m 576 471 q 589 450 579 456 q 606 444 598 443 l 614 444 q 610 450 612 446 q 605 471 608 454 q 607 513 602 488 q 616 558 610 534 q 627 595 622 582 l 631 610 q 586 595 595 611 q 559 539 571 568 q 534 492 547 511 q 507 472 515 465 q 509 508 500 478 q 531 566 517 537 q 557 607 547 599 q 587 609 567 615 q 579 627 590 619 q 551 633 568 634 q 520 620 533 631 q 477 525 492 593 q 448 496 465 503 q 454 545 455 526 q 439 599 452 585 q 405 611 427 614 q 445 616 422 623 q 436 626 441 620 q 413 641 430 633 q 381 643 396 648 q 333 568 355 633 q 321 468 310 503 q 366 424 334 431 q 429 456 399 418 q 443 481 437 468 q 473 500 458 485 q 473 472 471 483 q 511 446 478 443 q 544 476 524 446 q 575 535 563 506 l 587 564 q 583 548 585 557 q 575 510 580 538 q 576 471 570 483 m 772 437 q 766 445 769 439 q 758 470 763 450 q 761 515 753 489 q 774 561 766 538 q 786 594 781 583 l 791 604 l 761 618 q 751 618 755 621 q 663 518 696 579 q 715 667 680 594 q 777 757 749 739 q 763 763 772 760 q 737 766 755 766 q 711 751 719 765 q 640 574 662 673 q 625 471 622 495 q 634 453 627 462 q 647 439 641 444 l 654 435 q 688 530 655 488 q 718 567 704 552 q 739 586 732 582 l 745 591 q 741 580 743 587 q 732 554 738 573 q 722 519 726 536 q 719 485 719 503 q 726 457 720 467 q 747 436 736 441 q 765 434 759 431 l 772 437 m 834 408 q 841 523 815 439 q 906 690 867 606 q 1005 692 993 691 q 1040 706 1025 694 q 1062 730 1056 718 l 1068 741 q 985 727 1035 728 q 933 727 968 727 q 876 726 898 726 q 830 725 854 726 q 792 723 805 724 q 756 707 772 720 q 735 681 741 693 l 730 669 q 800 686 740 681 q 858 688 812 686 q 829 612 856 682 q 793 500 803 542 q 791 465 789 480 q 801 439 793 450 q 815 421 808 428 q 829 411 823 414 l 834 408 m 1170 524 q 1188 571 1186 552 q 1183 598 1190 589 q 1137 614 1171 628 q 1104 594 1120 608 q 1080 567 1088 579 l 1071 555 q 1110 648 1108 648 l 1091 648 q 1059 631 1067 644 q 1019 519 1040 580 q 1017 514 1018 518 q 1015 509 1015 510 q 982 490 996 496 q 1003 550 989 514 q 1026 610 1017 587 l 1036 634 q 988 619 1000 632 q 966 587 986 616 q 927 536 945 557 q 903 521 909 516 q 902 529 901 523 q 908 546 903 536 q 919 567 913 556 q 931 590 924 578 q 943 611 937 602 q 952 626 948 620 l 956 632 q 942 631 950 632 q 919 624 935 631 q 897 607 903 618 q 866 504 852 522 q 883 497 871 497 q 910 504 895 496 q 938 528 926 512 l 983 588 q 945 473 962 521 q 919 457 936 467 q 895 443 902 448 q 878 429 888 439 q 858 408 867 420 q 842 372 844 390 q 847 344 840 354 q 873 335 855 334 q 914 352 892 336 q 941 384 929 363 q 959 418 954 404 q 977 473 964 432 q 1008 491 996 485 q 985 412 991 440 q 989 383 981 399 q 1005 358 996 368 l 1015 349 q 1037 456 1010 366 q 1073 542 1053 506 q 1115 587 1088 568 q 1150 600 1142 606 q 1151 580 1154 595 q 1141 551 1148 565 q 1107 509 1128 524 q 1073 493 1086 494 l 1059 492 q 1066 487 1061 490 q 1084 480 1070 484 q 1110 478 1097 477 q 1140 490 1123 479 q 1170 524 1156 502 m 1278 614 q 1308 630 1293 630 q 1321 618 1322 630 q 1303 589 1320 606 q 1283 578 1295 581 q 1263 577 1271 576 l 1256 578 q 1259 572 1257 576 q 1271 562 1261 568 q 1293 557 1280 556 q 1330 574 1318 558 q 1341 611 1343 590 q 1326 635 1341 625 q 1290 647 1312 646 q 1244 631 1269 648 q 1207 590 1222 615 q 1193 536 1192 565 q 1215 490 1193 508 q 1254 481 1232 477 q 1297 496 1276 485 q 1329 519 1317 507 q 1334 531 1332 524 q 1336 545 1336 539 l 1337 550 q 1283 507 1320 524 q 1235 506 1245 490 q 1240 555 1225 522 q 1278 614 1255 588 m 369 555 q 383 511 370 532 q 415 484 396 490 q 394 441 406 451 q 369 436 383 432 q 356 474 356 439 q 363 536 355 509 q 369 555 366 544 m 648 144 q 634 149 640 144 q 629 162 629 155 q 632 176 629 170 q 641 186 635 183 q 655 191 647 191 q 669 185 664 191 q 675 172 675 180 q 671 158 675 165 q 663 148 668 152 q 648 144 656 144 m 1152 94 l 243 94 l 272 243 l 1181 243 l 1152 94 m 1124 203 l 1061 203 l 1058 190 l 1081 190 l 1069 131 l 1086 131 l 1098 190 l 1121 190 l 1124 203 m 967 203 l 953 131 l 969 131 l 978 176 l 1005 131 l 1019 131 l 1034 203 l 1017 203 l 1008 158 l 981 203 l 967 203 m 871 199 q 854 183 860 192 q 849 161 849 174 q 853 144 849 152 q 865 134 857 138 q 884 130 873 130 q 907 136 897 130 q 924 151 918 142 q 929 173 929 160 q 925 190 929 183 q 913 201 921 197 q 894 205 905 205 q 871 199 881 205 m 777 203 l 763 131 l 780 131 l 785 157 l 819 157 l 821 171 l 787 171 l 791 190 l 829 190 l 832 203 l 777 203 m 633 199 q 617 183 623 192 q 612 161 612 174 q 616 144 612 152 q 628 134 620 138 q 647 130 636 130 q 670 136 660 130 q 686 151 681 142 q 692 173 692 160 q 688 190 692 183 q 675 201 684 197 q 656 205 667 205 q 633 199 644 205 m 520 203 l 507 203 l 492 131 l 508 131 l 517 174 l 532 138 l 539 138 l 566 174 l 558 131 l 574 131 l 588 203 l 574 203 l 538 158 l 520 203 m 418 203 l 404 131 l 460 131 l 463 144 l 424 144 l 427 161 l 460 161 l 463 174 l 429 174 l 433 190 l 471 190 l 473 203 l 418 203 m 345 203 l 315 203 l 300 131 l 336 131 q 359 136 349 131 q 375 151 368 140 q 380 173 380 159 q 376 189 380 182 q 364 199 373 195 q 345 203 356 203 m 886 144 q 871 149 877 144 q 866 162 866 155 q 869 176 866 170 q 878 186 873 183 q 892 191 884 191 q 907 185 901 191 q 912 172 912 180 q 909 158 912 165 q 900 148 905 152 q 886 144 894 144 m 351 149 q 336 144 345 144 l 320 144 l 329 190 l 343 190 q 359 185 354 190 q 363 172 363 180 q 361 158 363 163 q 351 149 359 154 z "},"9":{"ha":1423,"x_min":26,"x_max":1398,"o":"m 869 401 q 938 452 888 429 q 910 387 922 408 q 885 361 899 366 q 859 367 863 353 q 869 401 855 380 m 392 570 q 418 555 410 600 q 419 498 424 519 l 419 497 q 392 530 401 507 q 392 570 382 553 m 1396 578 q 1386 533 1398 553 q 1392 516 1392 526 q 1375 465 1392 482 q 1327 430 1358 445 q 1268 415 1297 415 q 1219 431 1239 415 q 1202 449 1210 438 q 1125 412 1168 412 q 1092 418 1109 412 q 1091 415 1092 417 q 1090 413 1090 414 q 1068 323 1067 336 q 1067 303 1071 313 q 1055 288 1063 294 q 1038 283 1047 283 q 1017 292 1025 283 q 988 326 1000 306 q 956 292 973 304 q 894 269 924 269 q 840 302 868 269 q 817 336 827 315 q 810 371 809 350 q 808 372 810 372 q 807 374 807 373 q 782 368 796 368 q 722 407 746 368 q 716 419 718 414 q 714 421 715 420 q 712 424 713 423 l 709 401 q 692 374 707 383 q 677 370 686 370 q 661 374 669 370 q 659 376 661 375 q 655 378 657 376 q 650 381 652 379 q 643 379 650 381 l 639 378 q 631 378 635 378 q 578 406 597 378 q 536 380 559 382 q 532 380 534 380 q 528 380 529 380 q 477 404 494 380 q 399 358 445 358 q 340 382 366 358 q 343 356 340 372 q 329 324 347 335 q 312 319 321 319 q 294 325 301 319 l 292 327 q 287 331 290 328 q 280 336 284 333 q 272 345 277 340 q 263 355 268 349 q 254 368 259 361 q 244 384 249 376 q 225 411 232 399 q 231 351 220 370 q 230 320 239 336 q 203 304 221 304 q 144 333 169 304 q 100 417 106 378 q 83 411 91 411 q 72 413 77 411 q 38 444 49 422 q 28 480 26 465 q 29 489 28 482 q 37 508 31 495 q 53 532 43 520 q 83 556 63 544 q 129 576 103 569 q 156 662 144 633 q 173 696 168 690 q 187 705 178 701 q 200 707 193 707 q 264 668 227 707 q 268 663 267 665 q 317 756 284 701 q 374 787 336 787 q 425 774 399 787 q 449 746 433 770 q 465 713 465 722 q 451 685 467 695 q 432 667 444 680 q 470 635 455 654 q 476 618 475 628 l 477 618 q 479 616 479 617 q 499 643 489 634 q 555 665 522 665 q 610 640 592 665 q 625 641 615 641 q 684 768 646 706 q 741 798 703 798 q 791 785 766 798 q 808 758 807 777 l 808 756 q 930 759 851 759 l 985 759 q 1022 762 1004 759 q 1048 768 1040 765 l 1057 770 q 1068 772 1063 772 q 1091 763 1082 772 q 1104 744 1095 759 q 1114 729 1114 730 q 1121 694 1128 711 q 1113 680 1118 688 q 1141 656 1136 675 q 1141 648 1141 654 q 1155 650 1149 650 q 1199 631 1181 650 q 1225 656 1209 643 q 1290 678 1255 678 q 1375 629 1339 678 q 1396 578 1394 606 m 288 385 q 298 523 279 442 q 350 666 318 604 q 410 746 382 728 q 396 752 405 749 q 370 754 388 755 q 344 740 352 753 q 288 631 309 684 q 262 540 267 578 q 257 481 258 502 q 260 447 257 461 q 235 531 240 481 q 236 613 231 581 l 241 646 q 232 654 238 649 q 215 668 227 660 q 198 675 203 677 q 154 550 187 671 q 110 535 129 545 q 82 516 92 526 q 67 497 73 507 q 61 483 62 488 l 60 477 q 144 513 74 498 q 133 460 134 469 q 132 417 129 434 q 143 390 135 399 q 159 376 151 380 q 174 371 167 372 l 180 370 q 169 421 170 389 q 176 484 169 452 q 191 544 182 515 q 206 591 199 573 l 214 609 q 226 494 215 546 q 249 432 233 460 q 277 395 264 405 l 288 385 m 576 471 q 589 450 579 456 q 606 444 598 443 l 614 444 q 610 450 612 446 q 605 471 608 454 q 607 513 602 488 q 616 558 610 534 q 627 595 622 582 l 631 610 q 586 595 595 611 q 559 539 571 568 q 534 492 547 511 q 507 472 515 465 q 509 508 500 478 q 531 566 517 537 q 557 607 547 599 q 587 609 567 615 q 579 627 590 619 q 551 633 568 634 q 520 620 533 631 q 477 525 492 593 q 448 496 465 503 q 454 545 455 526 q 439 599 452 585 q 405 611 427 614 q 445 616 422 623 q 436 626 441 620 q 413 641 430 633 q 381 643 396 648 q 333 568 355 633 q 321 468 310 503 q 366 424 334 431 q 429 456 399 418 q 443 481 437 468 q 473 500 458 485 q 473 472 471 483 q 511 446 478 443 q 544 476 524 446 q 575 535 563 506 l 587 564 q 583 548 585 557 q 575 510 580 538 q 576 471 570 483 m 772 437 q 766 445 769 439 q 758 470 763 450 q 761 515 753 489 q 774 561 766 538 q 786 594 781 583 l 791 604 l 761 618 q 751 618 755 621 q 663 518 696 579 q 715 667 680 594 q 777 757 749 739 q 763 763 772 760 q 737 766 755 766 q 711 751 719 765 q 640 574 662 673 q 625 471 622 495 q 634 453 627 462 q 647 439 641 444 l 654 435 q 688 530 655 488 q 718 567 704 552 q 739 586 732 582 l 745 591 q 741 580 743 587 q 732 554 738 573 q 722 519 726 536 q 719 485 719 503 q 726 457 720 467 q 747 436 736 441 q 765 434 759 431 l 772 437 m 834 408 q 841 523 815 439 q 906 690 867 606 q 1005 692 993 691 q 1040 706 1025 694 q 1062 730 1056 718 l 1068 741 q 985 727 1035 728 q 933 727 968 727 q 876 726 898 726 q 830 725 854 726 q 792 723 805 724 q 756 707 772 720 q 735 681 741 693 l 730 669 q 800 686 740 681 q 858 688 812 686 q 829 612 856 682 q 793 500 803 542 q 791 465 789 480 q 801 439 793 450 q 815 421 808 428 q 829 411 823 414 l 834 408 m 1170 524 q 1188 571 1186 552 q 1183 598 1190 589 q 1137 614 1171 628 q 1104 594 1120 608 q 1080 567 1088 579 l 1071 555 q 1110 648 1108 648 l 1091 648 q 1059 631 1067 644 q 1019 519 1040 580 q 1017 514 1018 518 q 1015 509 1015 510 q 982 490 996 496 q 1003 550 989 514 q 1026 610 1017 587 l 1036 634 q 988 619 1000 632 q 966 587 986 616 q 927 536 945 557 q 903 521 909 516 q 902 529 901 523 q 908 546 903 536 q 919 567 913 556 q 931 590 924 578 q 943 611 937 602 q 952 626 948 620 l 956 632 q 942 631 950 632 q 919 624 935 631 q 897 607 903 618 q 866 504 852 522 q 883 497 871 497 q 910 504 895 496 q 938 528 926 512 l 983 588 q 945 473 962 521 q 919 457 936 467 q 895 443 902 448 q 878 429 888 439 q 858 408 867 420 q 842 372 844 390 q 847 344 840 354 q 873 335 855 334 q 914 352 892 336 q 941 384 929 363 q 959 418 954 404 q 977 473 964 432 q 1008 491 996 485 q 985 412 991 440 q 989 383 981 399 q 1005 358 996 368 l 1015 349 q 1037 456 1010 366 q 1073 542 1053 506 q 1115 587 1088 568 q 1150 600 1142 606 q 1151 580 1154 595 q 1141 551 1148 565 q 1107 509 1128 524 q 1073 493 1086 494 l 1059 492 q 1066 487 1061 490 q 1084 480 1070 484 q 1110 478 1097 477 q 1140 490 1123 479 q 1170 524 1156 502 m 1278 614 q 1308 630 1293 630 q 1321 618 1322 630 q 1303 589 1320 606 q 1283 578 1295 581 q 1263 577 1271 576 l 1256 578 q 1259 572 1257 576 q 1271 562 1261 568 q 1293 557 1280 556 q 1330 574 1318 558 q 1341 611 1343 590 q 1326 635 1341 625 q 1290 647 1312 646 q 1244 631 1269 648 q 1207 590 1222 615 q 1193 536 1192 565 q 1215 490 1193 508 q 1254 481 1232 477 q 1297 496 1276 485 q 1329 519 1317 507 q 1334 531 1332 524 q 1336 545 1336 539 l 1337 550 q 1283 507 1320 524 q 1235 506 1245 490 q 1240 555 1225 522 q 1278 614 1255 588 m 369 555 q 383 511 370 532 q 415 484 396 490 q 394 441 406 451 q 369 436 383 432 q 356 474 356 439 q 363 536 355 509 q 369 555 366 544 m 648 144 q 634 149 640 144 q 629 162 629 155 q 632 176 629 170 q 641 186 635 183 q 655 191 647 191 q 669 185 664 191 q 675 172 675 180 q 671 158 675 165 q 663 148 668 152 q 648 144 656 144 m 1152 94 l 243 94 l 272 243 l 1181 243 l 1152 94 m 1124 203 l 1061 203 l 1058 190 l 1081 190 l 1069 131 l 1086 131 l 1098 190 l 1121 190 l 1124 203 m 967 203 l 953 131 l 969 131 l 978 176 l 1005 131 l 1019 131 l 1034 203 l 1017 203 l 1008 158 l 981 203 l 967 203 m 871 199 q 854 183 860 192 q 849 161 849 174 q 853 144 849 152 q 865 134 857 138 q 884 130 873 130 q 907 136 897 130 q 924 151 918 142 q 929 173 929 160 q 925 190 929 183 q 913 201 921 197 q 894 205 905 205 q 871 199 881 205 m 777 203 l 763 131 l 780 131 l 785 157 l 819 157 l 821 171 l 787 171 l 791 190 l 829 190 l 832 203 l 777 203 m 633 199 q 617 183 623 192 q 612 161 612 174 q 616 144 612 152 q 628 134 620 138 q 647 130 636 130 q 670 136 660 130 q 686 151 681 142 q 692 173 692 160 q 688 190 692 183 q 675 201 684 197 q 656 205 667 205 q 633 199 644 205 m 520 203 l 507 203 l 492 131 l 508 131 l 517 174 l 532 138 l 539 138 l 566 174 l 558 131 l 574 131 l 588 203 l 574 203 l 538 158 l 520 203 m 418 203 l 404 131 l 460 131 l 463 144 l 424 144 l 427 161 l 460 161 l 463 174 l 429 174 l 433 190 l 471 190 l 473 203 l 418 203 m 345 203 l 315 203 l 300 131 l 336 131 q 359 136 349 131 q 375 151 368 140 q 380 173 380 159 q 376 189 380 182 q 364 199 373 195 q 345 203 356 203 m 886 144 q 871 149 877 144 q 866 162 866 155 q 869 176 866 170 q 878 186 873 183 q 892 191 884 191 q 907 185 901 191 q 912 172 912 180 q 909 158 912 165 q 900 148 905 152 q 886 144 894 144 m 351 149 q 336 144 345 144 l 320 144 l 329 190 l 343 190 q 359 185 354 190 q 363 172 363 180 q 361 158 363 163 q 351 149 359 154 z "},"\u0000":{"ha":0,"x_min":0,"x_max":0,"o":""},"\n":{"ha":0,"x_min":0,"x_max":0,"o":""},"\r":{"ha":0,"x_min":0,"x_max":0,"o":""}," ":{"ha":394,"x_min":0,"x_max":0,"o":""},"!":{"ha":1423,"x_min":26,"x_max":1398,"o":"m 869 401 q 938 452 888 429 q 910 387 922 408 q 885 361 899 366 q 859 367 863 353 q 869 401 855 380 m 392 570 q 418 555 410 600 q 419 498 424 519 l 419 497 q 392 530 401 507 q 392 570 382 553 m 1396 578 q 1386 533 1398 553 q 1392 516 1392 526 q 1375 465 1392 482 q 1327 430 1358 445 q 1268 415 1297 415 q 1219 431 1239 415 q 1202 449 1210 438 q 1125 412 1168 412 q 1092 418 1109 412 q 1091 415 1092 417 q 1090 413 1090 414 q 1068 323 1067 336 q 1067 303 1071 313 q 1055 288 1063 294 q 1038 283 1047 283 q 1017 292 1025 283 q 988 326 1000 306 q 956 292 973 304 q 894 269 924 269 q 840 302 868 269 q 817 336 827 315 q 810 371 809 350 q 808 372 810 372 q 807 374 807 373 q 782 368 796 368 q 722 407 746 368 q 716 419 718 414 q 714 421 715 420 q 712 424 713 423 l 709 401 q 692 374 707 383 q 677 370 686 370 q 661 374 669 370 q 659 376 661 375 q 655 378 657 376 q 650 381 652 379 q 643 379 650 381 l 639 378 q 631 378 635 378 q 578 406 597 378 q 536 380 559 382 q 532 380 534 380 q 528 380 529 380 q 477 404 494 380 q 399 358 445 358 q 340 382 366 358 q 343 356 340 372 q 329 324 347 335 q 312 319 321 319 q 294 325 301 319 l 292 327 q 287 331 290 328 q 280 336 284 333 q 272 345 277 340 q 263 355 268 349 q 254 368 259 361 q 244 384 249 376 q 225 411 232 399 q 231 351 220 370 q 230 320 239 336 q 203 304 221 304 q 144 333 169 304 q 100 417 106 378 q 83 411 91 411 q 72 413 77 411 q 38 444 49 422 q 28 480 26 465 q 29 489 28 482 q 37 508 31 495 q 53 532 43 520 q 83 556 63 544 q 129 576 103 569 q 156 662 144 633 q 173 696 168 690 q 187 705 178 701 q 200 707 193 707 q 264 668 227 707 q 268 663 267 665 q 317 756 284 701 q 374 787 336 787 q 425 774 399 787 q 449 746 433 770 q 465 713 465 722 q 451 685 467 695 q 432 667 444 680 q 470 635 455 654 q 476 618 475 628 l 477 618 q 479 616 479 617 q 499 643 489 634 q 555 665 522 665 q 610 640 592 665 q 625 641 615 641 q 684 768 646 706 q 741 798 703 798 q 791 785 766 798 q 808 758 807 777 l 808 756 q 930 759 851 759 l 985 759 q 1022 762 1004 759 q 1048 768 1040 765 l 1057 770 q 1068 772 1063 772 q 1091 763 1082 772 q 1104 744 1095 759 q 1114 729 1114 730 q 1121 694 1128 711 q 1113 680 1118 688 q 1141 656 1136 675 q 1141 648 1141 654 q 1155 650 1149 650 q 1199 631 1181 650 q 1225 656 1209 643 q 1290 678 1255 678 q 1375 629 1339 678 q 1396 578 1394 606 m 288 385 q 298 523 279 442 q 350 666 318 604 q 410 746 382 728 q 396 752 405 749 q 370 754 388 755 q 344 740 352 753 q 288 631 309 684 q 262 540 267 578 q 257 481 258 502 q 260 447 257 461 q 235 531 240 481 q 236 613 231 581 l 241 646 q 232 654 238 649 q 215 668 227 660 q 198 675 203 677 q 154 550 187 671 q 110 535 129 545 q 82 516 92 526 q 67 497 73 507 q 61 483 62 488 l 60 477 q 144 513 74 498 q 133 460 134 469 q 132 417 129 434 q 143 390 135 399 q 159 376 151 380 q 174 371 167 372 l 180 370 q 169 421 170 389 q 176 484 169 452 q 191 544 182 515 q 206 591 199 573 l 214 609 q 226 494 215 546 q 249 432 233 460 q 277 395 264 405 l 288 385 m 576 471 q 589 450 579 456 q 606 444 598 443 l 614 444 q 610 450 612 446 q 605 471 608 454 q 607 513 602 488 q 616 558 610 534 q 627 595 622 582 l 631 610 q 586 595 595 611 q 559 539 571 568 q 534 492 547 511 q 507 472 515 465 q 509 508 500 478 q 531 566 517 537 q 557 607 547 599 q 587 609 567 615 q 579 627 590 619 q 551 633 568 634 q 520 620 533 631 q 477 525 492 593 q 448 496 465 503 q 454 545 455 526 q 439 599 452 585 q 405 611 427 614 q 445 616 422 623 q 436 626 441 620 q 413 641 430 633 q 381 643 396 648 q 333 568 355 633 q 321 468 310 503 q 366 424 334 431 q 429 456 399 418 q 443 481 437 468 q 473 500 458 485 q 473 472 471 483 q 511 446 478 443 q 544 476 524 446 q 575 535 563 506 l 587 564 q 583 548 585 557 q 575 510 580 538 q 576 471 570 483 m 772 437 q 766 445 769 439 q 758 470 763 450 q 761 515 753 489 q 774 561 766 538 q 786 594 781 583 l 791 604 l 761 618 q 751 618 755 621 q 663 518 696 579 q 715 667 680 594 q 777 757 749 739 q 763 763 772 760 q 737 766 755 766 q 711 751 719 765 q 640 574 662 673 q 625 471 622 495 q 634 453 627 462 q 647 439 641 444 l 654 435 q 688 530 655 488 q 718 567 704 552 q 739 586 732 582 l 745 591 q 741 580 743 587 q 732 554 738 573 q 722 519 726 536 q 719 485 719 503 q 726 457 720 467 q 747 436 736 441 q 765 434 759 431 l 772 437 m 834 408 q 841 523 815 439 q 906 690 867 606 q 1005 692 993 691 q 1040 706 1025 694 q 1062 730 1056 718 l 1068 741 q 985 727 1035 728 q 933 727 968 727 q 876 726 898 726 q 830 725 854 726 q 792 723 805 724 q 756 707 772 720 q 735 681 741 693 l 730 669 q 800 686 740 681 q 858 688 812 686 q 829 612 856 682 q 793 500 803 542 q 791 465 789 480 q 801 439 793 450 q 815 421 808 428 q 829 411 823 414 l 834 408 m 1170 524 q 1188 571 1186 552 q 1183 598 1190 589 q 1137 614 1171 628 q 1104 594 1120 608 q 1080 567 1088 579 l 1071 555 q 1110 648 1108 648 l 1091 648 q 1059 631 1067 644 q 1019 519 1040 580 q 1017 514 1018 518 q 1015 509 1015 510 q 982 490 996 496 q 1003 550 989 514 q 1026 610 1017 587 l 1036 634 q 988 619 1000 632 q 966 587 986 616 q 927 536 945 557 q 903 521 909 516 q 902 529 901 523 q 908 546 903 536 q 919 567 913 556 q 931 590 924 578 q 943 611 937 602 q 952 626 948 620 l 956 632 q 942 631 950 632 q 919 624 935 631 q 897 607 903 618 q 866 504 852 522 q 883 497 871 497 q 910 504 895 496 q 938 528 926 512 l 983 588 q 945 473 962 521 q 919 457 936 467 q 895 443 902 448 q 878 429 888 439 q 858 408 867 420 q 842 372 844 390 q 847 344 840 354 q 873 335 855 334 q 914 352 892 336 q 941 384 929 363 q 959 418 954 404 q 977 473 964 432 q 1008 491 996 485 q 985 412 991 440 q 989 383 981 399 q 1005 358 996 368 l 1015 349 q 1037 456 1010 366 q 1073 542 1053 506 q 1115 587 1088 568 q 1150 600 1142 606 q 1151 580 1154 595 q 1141 551 1148 565 q 1107 509 1128 524 q 1073 493 1086 494 l 1059 492 q 1066 487 1061 490 q 1084 480 1070 484 q 1110 478 1097 477 q 1140 490 1123 479 q 1170 524 1156 502 m 1278 614 q 1308 630 1293 630 q 1321 618 1322 630 q 1303 589 1320 606 q 1283 578 1295 581 q 1263 577 1271 576 l 1256 578 q 1259 572 1257 576 q 1271 562 1261 568 q 1293 557 1280 556 q 1330 574 1318 558 q 1341 611 1343 590 q 1326 635 1341 625 q 1290 647 1312 646 q 1244 631 1269 648 q 1207 590 1222 615 q 1193 536 1192 565 q 1215 490 1193 508 q 1254 481 1232 477 q 1297 496 1276 485 q 1329 519 1317 507 q 1334 531 1332 524 q 1336 545 1336 539 l 1337 550 q 1283 507 1320 524 q 1235 506 1245 490 q 1240 555 1225 522 q 1278 614 1255 588 m 369 555 q 383 511 370 532 q 415 484 396 490 q 394 441 406 451 q 369 436 383 432 q 356 474 356 439 q 363 536 355 509 q 369 555 366 544 m 648 144 q 634 149 640 144 q 629 162 629 155 q 632 176 629 170 q 641 186 635 183 q 655 191 647 191 q 669 185 664 191 q 675 172 675 180 q 671 158 675 165 q 663 148 668 152 q 648 144 656 144 m 1152 94 l 243 94 l 272 243 l 1181 243 l 1152 94 m 1124 203 l 1061 203 l 1058 190 l 1081 190 l 1069 131 l 1086 131 l 1098 190 l 1121 190 l 1124 203 m 967 203 l 953 131 l 969 131 l 978 176 l 1005 131 l 1019 131 l 1034 203 l 1017 203 l 1008 158 l 981 203 l 967 203 m 871 199 q 854 183 860 192 q 849 161 849 174 q 853 144 849 152 q 865 134 857 138 q 884 130 873 130 q 907 136 897 130 q 924 151 918 142 q 929 173 929 160 q 925 190 929 183 q 913 201 921 197 q 894 205 905 205 q 871 199 881 205 m 777 203 l 763 131 l 780 131 l 785 157 l 819 157 l 821 171 l 787 171 l 791 190 l 829 190 l 832 203 l 777 203 m 633 199 q 617 183 623 192 q 612 161 612 174 q 616 144 612 152 q 628 134 620 138 q 647 130 636 130 q 670 136 660 130 q 686 151 681 142 q 692 173 692 160 q 688 190 692 183 q 675 201 684 197 q 656 205 667 205 q 633 199 644 205 m 520 203 l 507 203 l 492 131 l 508 131 l 517 174 l 532 138 l 539 138 l 566 174 l 558 131 l 574 131 l 588 203 l 574 203 l 538 158 l 520 203 m 418 203 l 404 131 l 460 131 l 463 144 l 424 144 l 427 161 l 460 161 l 463 174 l 429 174 l 433 190 l 471 190 l 473 203 l 418 203 m 345 203 l 315 203 l 300 131 l 336 131 q 359 136 349 131 q 375 151 368 140 q 380 173 380 159 q 376 189 380 182 q 364 199 373 195 q 345 203 356 203 m 886 144 q 871 149 877 144 q 866 162 866 155 q 869 176 866 170 q 878 186 873 183 q 892 191 884 191 q 907 185 901 191 q 912 172 912 180 q 909 158 912 165 q 900 148 905 152 q 886 144 894 144 m 351 149 q 336 144 345 144 l 320 144 l 329 190 l 343 190 q 359 185 354 190 q 363 172 363 180 q 361 158 363 163 q 351 149 359 154 z "},"\"":{"ha":1423,"x_min":26,"x_max":1398,"o":"m 869 401 q 938 452 888 429 q 910 387 922 408 q 885 361 899 366 q 859 367 863 353 q 869 401 855 380 m 392 570 q 418 555 410 600 q 419 498 424 519 l 419 497 q 392 530 401 507 q 392 570 382 553 m 1396 578 q 1386 533 1398 553 q 1392 516 1392 526 q 1375 465 1392 482 q 1327 430 1358 445 q 1268 415 1297 415 q 1219 431 1239 415 q 1202 449 1210 438 q 1125 412 1168 412 q 1092 418 1109 412 q 1091 415 1092 417 q 1090 413 1090 414 q 1068 323 1067 336 q 1067 303 1071 313 q 1055 288 1063 294 q 1038 283 1047 283 q 1017 292 1025 283 q 988 326 1000 306 q 956 292 973 304 q 894 269 924 269 q 840 302 868 269 q 817 336 827 315 q 810 371 809 350 q 808 372 810 372 q 807 374 807 373 q 782 368 796 368 q 722 407 746 368 q 716 419 718 414 q 714 421 715 420 q 712 424 713 423 l 709 401 q 692 374 707 383 q 677 370 686 370 q 661 374 669 370 q 659 376 661 375 q 655 378 657 376 q 650 381 652 379 q 643 379 650 381 l 639 378 q 631 378 635 378 q 578 406 597 378 q 536 380 559 382 q 532 380 534 380 q 528 380 529 380 q 477 404 494 380 q 399 358 445 358 q 340 382 366 358 q 343 356 340 372 q 329 324 347 335 q 312 319 321 319 q 294 325 301 319 l 292 327 q 287 331 290 328 q 280 336 284 333 q 272 345 277 340 q 263 355 268 349 q 254 368 259 361 q 244 384 249 376 q 225 411 232 399 q 231 351 220 370 q 230 320 239 336 q 203 304 221 304 q 144 333 169 304 q 100 417 106 378 q 83 411 91 411 q 72 413 77 411 q 38 444 49 422 q 28 480 26 465 q 29 489 28 482 q 37 508 31 495 q 53 532 43 520 q 83 556 63 544 q 129 576 103 569 q 156 662 144 633 q 173 696 168 690 q 187 705 178 701 q 200 707 193 707 q 264 668 227 707 q 268 663 267 665 q 317 756 284 701 q 374 787 336 787 q 425 774 399 787 q 449 746 433 770 q 465 713 465 722 q 451 685 467 695 q 432 667 444 680 q 470 635 455 654 q 476 618 475 628 l 477 618 q 479 616 479 617 q 499 643 489 634 q 555 665 522 665 q 610 640 592 665 q 625 641 615 641 q 684 768 646 706 q 741 798 703 798 q 791 785 766 798 q 808 758 807 777 l 808 756 q 930 759 851 759 l 985 759 q 1022 762 1004 759 q 1048 768 1040 765 l 1057 770 q 1068 772 1063 772 q 1091 763 1082 772 q 1104 744 1095 759 q 1114 729 1114 730 q 1121 694 1128 711 q 1113 680 1118 688 q 1141 656 1136 675 q 1141 648 1141 654 q 1155 650 1149 650 q 1199 631 1181 650 q 1225 656 1209 643 q 1290 678 1255 678 q 1375 629 1339 678 q 1396 578 1394 606 m 288 385 q 298 523 279 442 q 350 666 318 604 q 410 746 382 728 q 396 752 405 749 q 370 754 388 755 q 344 740 352 753 q 288 631 309 684 q 262 540 267 578 q 257 481 258 502 q 260 447 257 461 q 235 531 240 481 q 236 613 231 581 l 241 646 q 232 654 238 649 q 215 668 227 660 q 198 675 203 677 q 154 550 187 671 q 110 535 129 545 q 82 516 92 526 q 67 497 73 507 q 61 483 62 488 l 60 477 q 144 513 74 498 q 133 460 134 469 q 132 417 129 434 q 143 390 135 399 q 159 376 151 380 q 174 371 167 372 l 180 370 q 169 421 170 389 q 176 484 169 452 q 191 544 182 515 q 206 591 199 573 l 214 609 q 226 494 215 546 q 249 432 233 460 q 277 395 264 405 l 288 385 m 576 471 q 589 450 579 456 q 606 444 598 443 l 614 444 q 610 450 612 446 q 605 471 608 454 q 607 513 602 488 q 616 558 610 534 q 627 595 622 582 l 631 610 q 586 595 595 611 q 559 539 571 568 q 534 492 547 511 q 507 472 515 465 q 509 508 500 478 q 531 566 517 537 q 557 607 547 599 q 587 609 567 615 q 579 627 590 619 q 551 633 568 634 q 520 620 533 631 q 477 525 492 593 q 448 496 465 503 q 454 545 455 526 q 439 599 452 585 q 405 611 427 614 q 445 616 422 623 q 436 626 441 620 q 413 641 430 633 q 381 643 396 648 q 333 568 355 633 q 321 468 310 503 q 366 424 334 431 q 429 456 399 418 q 443 481 437 468 q 473 500 458 485 q 473 472 471 483 q 511 446 478 443 q 544 476 524 446 q 575 535 563 506 l 587 564 q 583 548 585 557 q 575 510 580 538 q 576 471 570 483 m 772 437 q 766 445 769 439 q 758 470 763 450 q 761 515 753 489 q 774 561 766 538 q 786 594 781 583 l 791 604 l 761 618 q 751 618 755 621 q 663 518 696 579 q 715 667 680 594 q 777 757 749 739 q 763 763 772 760 q 737 766 755 766 q 711 751 719 765 q 640 574 662 673 q 625 471 622 495 q 634 453 627 462 q 647 439 641 444 l 654 435 q 688 530 655 488 q 718 567 704 552 q 739 586 732 582 l 745 591 q 741 580 743 587 q 732 554 738 573 q 722 519 726 536 q 719 485 719 503 q 726 457 720 467 q 747 436 736 441 q 765 434 759 431 l 772 437 m 834 408 q 841 523 815 439 q 906 690 867 606 q 1005 692 993 691 q 1040 706 1025 694 q 1062 730 1056 718 l 1068 741 q 985 727 1035 728 q 933 727 968 727 q 876 726 898 726 q 830 725 854 726 q 792 723 805 724 q 756 707 772 720 q 735 681 741 693 l 730 669 q 800 686 740 681 q 858 688 812 686 q 829 612 856 682 q 793 500 803 542 q 791 465 789 480 q 801 439 793 450 q 815 421 808 428 q 829 411 823 414 l 834 408 m 1170 524 q 1188 571 1186 552 q 1183 598 1190 589 q 1137 614 1171 628 q 1104 594 1120 608 q 1080 567 1088 579 l 1071 555 q 1110 648 1108 648 l 1091 648 q 1059 631 1067 644 q 1019 519 1040 580 q 1017 514 1018 518 q 1015 509 1015 510 q 982 490 996 496 q 1003 550 989 514 q 1026 610 1017 587 l 1036 634 q 988 619 1000 632 q 966 587 986 616 q 927 536 945 557 q 903 521 909 516 q 902 529 901 523 q 908 546 903 536 q 919 567 913 556 q 931 590 924 578 q 943 611 937 602 q 952 626 948 620 l 956 632 q 942 631 950 632 q 919 624 935 631 q 897 607 903 618 q 866 504 852 522 q 883 497 871 497 q 910 504 895 496 q 938 528 926 512 l 983 588 q 945 473 962 521 q 919 457 936 467 q 895 443 902 448 q 878 429 888 439 q 858 408 867 420 q 842 372 844 390 q 847 344 840 354 q 873 335 855 334 q 914 352 892 336 q 941 384 929 363 q 959 418 954 404 q 977 473 964 432 q 1008 491 996 485 q 985 412 991 440 q 989 383 981 399 q 1005 358 996 368 l 1015 349 q 1037 456 1010 366 q 1073 542 1053 506 q 1115 587 1088 568 q 1150 600 1142 606 q 1151 580 1154 595 q 1141 551 1148 565 q 1107 509 1128 524 q 1073 493 1086 494 l 1059 492 q 1066 487 1061 490 q 1084 480 1070 484 q 1110 478 1097 477 q 1140 490 1123 479 q 1170 524 1156 502 m 1278 614 q 1308 630 1293 630 q 1321 618 1322 630 q 1303 589 1320 606 q 1283 578 1295 581 q 1263 577 1271 576 l 1256 578 q 1259 572 1257 576 q 1271 562 1261 568 q 1293 557 1280 556 q 1330 574 1318 558 q 1341 611 1343 590 q 1326 635 1341 625 q 1290 647 1312 646 q 1244 631 1269 648 q 1207 590 1222 615 q 1193 536 1192 565 q 1215 490 1193 508 q 1254 481 1232 477 q 1297 496 1276 485 q 1329 519 1317 507 q 1334 531 1332 524 q 1336 545 1336 539 l 1337 550 q 1283 507 1320 524 q 1235 506 1245 490 q 1240 555 1225 522 q 1278 614 1255 588 m 369 555 q 383 511 370 532 q 415 484 396 490 q 394 441 406 451 q 369 436 383 432 q 356 474 356 439 q 363 536 355 509 q 369 555 366 544 m 648 144 q 634 149 640 144 q 629 162 629 155 q 632 176 629 170 q 641 186 635 183 q 655 191 647 191 q 669 185 664 191 q 675 172 675 180 q 671 158 675 165 q 663 148 668 152 q 648 144 656 144 m 1152 94 l 243 94 l 272 243 l 1181 243 l 1152 94 m 1124 203 l 1061 203 l 1058 190 l 1081 190 l 1069 131 l 1086 131 l 1098 190 l 1121 190 l 1124 203 m 967 203 l 953 131 l 969 131 l 978 176 l 1005 131 l 1019 131 l 1034 203 l 1017 203 l 1008 158 l 981 203 l 967 203 m 871 199 q 854 183 860 192 q 849 161 849 174 q 853 144 849 152 q 865 134 857 138 q 884 130 873 130 q 907 136 897 130 q 924 151 918 142 q 929 173 929 160 q 925 190 929 183 q 913 201 921 197 q 894 205 905 205 q 871 199 881 205 m 777 203 l 763 131 l 780 131 l 785 157 l 819 157 l 821 171 l 787 171 l 791 190 l 829 190 l 832 203 l 777 203 m 633 199 q 617 183 623 192 q 612 161 612 174 q 616 144 612 152 q 628 134 620 138 q 647 130 636 130 q 670 136 660 130 q 686 151 681 142 q 692 173 692 160 q 688 190 692 183 q 675 201 684 197 q 656 205 667 205 q 633 199 644 205 m 520 203 l 507 203 l 492 131 l 508 131 l 517 174 l 532 138 l 539 138 l 566 174 l 558 131 l 574 131 l 588 203 l 574 203 l 538 158 l 520 203 m 418 203 l 404 131 l 460 131 l 463 144 l 424 144 l 427 161 l 460 161 l 463 174 l 429 174 l 433 190 l 471 190 l 473 203 l 418 203 m 345 203 l 315 203 l 300 131 l 336 131 q 359 136 349 131 q 375 151 368 140 q 380 173 380 159 q 376 189 380 182 q 364 199 373 195 q 345 203 356 203 m 886 144 q 871 149 877 144 q 866 162 866 155 q 869 176 866 170 q 878 186 873 183 q 892 191 884 191 q 907 185 901 191 q 912 172 912 180 q 909 158 912 165 q 900 148 905 152 q 886 144 894 144 m 351 149 q 336 144 345 144 l 320 144 l 329 190 l 343 190 q 359 185 354 190 q 363 172 363 180 q 361 158 363 163 q 351 149 359 154 z "},"#":{"ha":1423,"x_min":26,"x_max":1398,"o":"m 869 401 q 938 452 888 429 q 910 387 922 408 q 885 361 899 366 q 859 367 863 353 q 869 401 855 380 m 392 570 q 418 555 410 600 q 419 498 424 519 l 419 497 q 392 530 401 507 q 392 570 382 553 m 1396 578 q 1386 533 1398 553 q 1392 516 1392 526 q 1375 465 1392 482 q 1327 430 1358 445 q 1268 415 1297 415 q 1219 431 1239 415 q 1202 449 1210 438 q 1125 412 1168 412 q 1092 418 1109 412 q 1091 415 1092 417 q 1090 413 1090 414 q 1068 323 1067 336 q 1067 303 1071 313 q 1055 288 1063 294 q 1038 283 1047 283 q 1017 292 1025 283 q 988 326 1000 306 q 956 292 973 304 q 894 269 924 269 q 840 302 868 269 q 817 336 827 315 q 810 371 809 350 q 808 372 810 372 q 807 374 807 373 q 782 368 796 368 q 722 407 746 368 q 716 419 718 414 q 714 421 715 420 q 712 424 713 423 l 709 401 q 692 374 707 383 q 677 370 686 370 q 661 374 669 370 q 659 376 661 375 q 655 378 657 376 q 650 381 652 379 q 643 379 650 381 l 639 378 q 631 378 635 378 q 578 406 597 378 q 536 380 559 382 q 532 380 534 380 q 528 380 529 380 q 477 404 494 380 q 399 358 445 358 q 340 382 366 358 q 343 356 340 372 q 329 324 347 335 q 312 319 321 319 q 294 325 301 319 l 292 327 q 287 331 290 328 q 280 336 284 333 q 272 345 277 340 q 263 355 268 349 q 254 368 259 361 q 244 384 249 376 q 225 411 232 399 q 231 351 220 370 q 230 320 239 336 q 203 304 221 304 q 144 333 169 304 q 100 417 106 378 q 83 411 91 411 q 72 413 77 411 q 38 444 49 422 q 28 480 26 465 q 29 489 28 482 q 37 508 31 495 q 53 532 43 520 q 83 556 63 544 q 129 576 103 569 q 156 662 144 633 q 173 696 168 690 q 187 705 178 701 q 200 707 193 707 q 264 668 227 707 q 268 663 267 665 q 317 756 284 701 q 374 787 336 787 q 425 774 399 787 q 449 746 433 770 q 465 713 465 722 q 451 685 467 695 q 432 667 444 680 q 470 635 455 654 q 476 618 475 628 l 477 618 q 479 616 479 617 q 499 643 489 634 q 555 665 522 665 q 610 640 592 665 q 625 641 615 641 q 684 768 646 706 q 741 798 703 798 q 791 785 766 798 q 808 758 807 777 l 808 756 q 930 759 851 759 l 985 759 q 1022 762 1004 759 q 1048 768 1040 765 l 1057 770 q 1068 772 1063 772 q 1091 763 1082 772 q 1104 744 1095 759 q 1114 729 1114 730 q 1121 694 1128 711 q 1113 680 1118 688 q 1141 656 1136 675 q 1141 648 1141 654 q 1155 650 1149 650 q 1199 631 1181 650 q 1225 656 1209 643 q 1290 678 1255 678 q 1375 629 1339 678 q 1396 578 1394 606 m 288 385 q 298 523 279 442 q 350 666 318 604 q 410 746 382 728 q 396 752 405 749 q 370 754 388 755 q 344 740 352 753 q 288 631 309 684 q 262 540 267 578 q 257 481 258 502 q 260 447 257 461 q 235 531 240 481 q 236 613 231 581 l 241 646 q 232 654 238 649 q 215 668 227 660 q 198 675 203 677 q 154 550 187 671 q 110 535 129 545 q 82 516 92 526 q 67 497 73 507 q 61 483 62 488 l 60 477 q 144 513 74 498 q 133 460 134 469 q 132 417 129 434 q 143 390 135 399 q 159 376 151 380 q 174 371 167 372 l 180 370 q 169 421 170 389 q 176 484 169 452 q 191 544 182 515 q 206 591 199 573 l 214 609 q 226 494 215 546 q 249 432 233 460 q 277 395 264 405 l 288 385 m 576 471 q 589 450 579 456 q 606 444 598 443 l 614 444 q 610 450 612 446 q 605 471 608 454 q 607 513 602 488 q 616 558 610 534 q 627 595 622 582 l 631 610 q 586 595 595 611 q 559 539 571 568 q 534 492 547 511 q 507 472 515 465 q 509 508 500 478 q 531 566 517 537 q 557 607 547 599 q 587 609 567 615 q 579 627 590 619 q 551 633 568 634 q 520 620 533 631 q 477 525 492 593 q 448 496 465 503 q 454 545 455 526 q 439 599 452 585 q 405 611 427 614 q 445 616 422 623 q 436 626 441 620 q 413 641 430 633 q 381 643 396 648 q 333 568 355 633 q 321 468 310 503 q 366 424 334 431 q 429 456 399 418 q 443 481 437 468 q 473 500 458 485 q 473 472 471 483 q 511 446 478 443 q 544 476 524 446 q 575 535 563 506 l 587 564 q 583 548 585 557 q 575 510 580 538 q 576 471 570 483 m 772 437 q 766 445 769 439 q 758 470 763 450 q 761 515 753 489 q 774 561 766 538 q 786 594 781 583 l 791 604 l 761 618 q 751 618 755 621 q 663 518 696 579 q 715 667 680 594 q 777 757 749 739 q 763 763 772 760 q 737 766 755 766 q 711 751 719 765 q 640 574 662 673 q 625 471 622 495 q 634 453 627 462 q 647 439 641 444 l 654 435 q 688 530 655 488 q 718 567 704 552 q 739 586 732 582 l 745 591 q 741 580 743 587 q 732 554 738 573 q 722 519 726 536 q 719 485 719 503 q 726 457 720 467 q 747 436 736 441 q 765 434 759 431 l 772 437 m 834 408 q 841 523 815 439 q 906 690 867 606 q 1005 692 993 691 q 1040 706 1025 694 q 1062 730 1056 718 l 1068 741 q 985 727 1035 728 q 933 727 968 727 q 876 726 898 726 q 830 725 854 726 q 792 723 805 724 q 756 707 772 720 q 735 681 741 693 l 730 669 q 800 686 740 681 q 858 688 812 686 q 829 612 856 682 q 793 500 803 542 q 791 465 789 480 q 801 439 793 450 q 815 421 808 428 q 829 411 823 414 l 834 408 m 1170 524 q 1188 571 1186 552 q 1183 598 1190 589 q 1137 614 1171 628 q 1104 594 1120 608 q 1080 567 1088 579 l 1071 555 q 1110 648 1108 648 l 1091 648 q 1059 631 1067 644 q 1019 519 1040 580 q 1017 514 1018 518 q 1015 509 1015 510 q 982 490 996 496 q 1003 550 989 514 q 1026 610 1017 587 l 1036 634 q 988 619 1000 632 q 966 587 986 616 q 927 536 945 557 q 903 521 909 516 q 902 529 901 523 q 908 546 903 536 q 919 567 913 556 q 931 590 924 578 q 943 611 937 602 q 952 626 948 620 l 956 632 q 942 631 950 632 q 919 624 935 631 q 897 607 903 618 q 866 504 852 522 q 883 497 871 497 q 910 504 895 496 q 938 528 926 512 l 983 588 q 945 473 962 521 q 919 457 936 467 q 895 443 902 448 q 878 429 888 439 q 858 408 867 420 q 842 372 844 390 q 847 344 840 354 q 873 335 855 334 q 914 352 892 336 q 941 384 929 363 q 959 418 954 404 q 977 473 964 432 q 1008 491 996 485 q 985 412 991 440 q 989 383 981 399 q 1005 358 996 368 l 1015 349 q 1037 456 1010 366 q 1073 542 1053 506 q 1115 587 1088 568 q 1150 600 1142 606 q 1151 580 1154 595 q 1141 551 1148 565 q 1107 509 1128 524 q 1073 493 1086 494 l 1059 492 q 1066 487 1061 490 q 1084 480 1070 484 q 1110 478 1097 477 q 1140 490 1123 479 q 1170 524 1156 502 m 1278 614 q 1308 630 1293 630 q 1321 618 1322 630 q 1303 589 1320 606 q 1283 578 1295 581 q 1263 577 1271 576 l 1256 578 q 1259 572 1257 576 q 1271 562 1261 568 q 1293 557 1280 556 q 1330 574 1318 558 q 1341 611 1343 590 q 1326 635 1341 625 q 1290 647 1312 646 q 1244 631 1269 648 q 1207 590 1222 615 q 1193 536 1192 565 q 1215 490 1193 508 q 1254 481 1232 477 q 1297 496 1276 485 q 1329 519 1317 507 q 1334 531 1332 524 q 1336 545 1336 539 l 1337 550 q 1283 507 1320 524 q 1235 506 1245 490 q 1240 555 1225 522 q 1278 614 1255 588 m 369 555 q 383 511 370 532 q 415 484 396 490 q 394 441 406 451 q 369 436 383 432 q 356 474 356 439 q 363 536 355 509 q 369 555 366 544 m 648 144 q 634 149 640 144 q 629 162 629 155 q 632 176 629 170 q 641 186 635 183 q 655 191 647 191 q 669 185 664 191 q 675 172 675 180 q 671 158 675 165 q 663 148 668 152 q 648 144 656 144 m 1152 94 l 243 94 l 272 243 l 1181 243 l 1152 94 m 1124 203 l 1061 203 l 1058 190 l 1081 190 l 1069 131 l 1086 131 l 1098 190 l 1121 190 l 1124 203 m 967 203 l 953 131 l 969 131 l 978 176 l 1005 131 l 1019 131 l 1034 203 l 1017 203 l 1008 158 l 981 203 l 967 203 m 871 199 q 854 183 860 192 q 849 161 849 174 q 853 144 849 152 q 865 134 857 138 q 884 130 873 130 q 907 136 897 130 q 924 151 918 142 q 929 173 929 160 q 925 190 929 183 q 913 201 921 197 q 894 205 905 205 q 871 199 881 205 m 777 203 l 763 131 l 780 131 l 785 157 l 819 157 l 821 171 l 787 171 l 791 190 l 829 190 l 832 203 l 777 203 m 633 199 q 617 183 623 192 q 612 161 612 174 q 616 144 612 152 q 628 134 620 138 q 647 130 636 130 q 670 136 660 130 q 686 151 681 142 q 692 173 692 160 q 688 190 692 183 q 675 201 684 197 q 656 205 667 205 q 633 199 644 205 m 520 203 l 507 203 l 492 131 l 508 131 l 517 174 l 532 138 l 539 138 l 566 174 l 558 131 l 574 131 l 588 203 l 574 203 l 538 158 l 520 203 m 418 203 l 404 131 l 460 131 l 463 144 l 424 144 l 427 161 l 460 161 l 463 174 l 429 174 l 433 190 l 471 190 l 473 203 l 418 203 m 345 203 l 315 203 l 300 131 l 336 131 q 359 136 349 131 q 375 151 368 140 q 380 173 380 159 q 376 189 380 182 q 364 199 373 195 q 345 203 356 203 m 886 144 q 871 149 877 144 q 866 162 866 155 q 869 176 866 170 q 878 186 873 183 q 892 191 884 191 q 907 185 901 191 q 912 172 912 180 q 909 158 912 165 q 900 148 905 152 q 886 144 894 144 m 351 149 q 336 144 345 144 l 320 144 l 329 190 l 343 190 q 359 185 354 190 q 363 172 363 180 q 361 158 363 163 q 351 149 359 154 z "},"$":{"ha":1423,"x_min":26,"x_max":1398,"o":"m 869 401 q 938 452 888 429 q 910 387 922 408 q 885 361 899 366 q 859 367 863 353 q 869 401 855 380 m 392 570 q 418 555 410 600 q 419 498 424 519 l 419 497 q 392 530 401 507 q 392 570 382 553 m 1396 578 q 1386 533 1398 553 q 1392 516 1392 526 q 1375 465 1392 482 q 1327 430 1358 445 q 1268 415 1297 415 q 1219 431 1239 415 q 1202 449 1210 438 q 1125 412 1168 412 q 1092 418 1109 412 q 1091 415 1092 417 q 1090 413 1090 414 q 1068 323 1067 336 q 1067 303 1071 313 q 1055 288 1063 294 q 1038 283 1047 283 q 1017 292 1025 283 q 988 326 1000 306 q 956 292 973 304 q 894 269 924 269 q 840 302 868 269 q 817 336 827 315 q 810 371 809 350 q 808 372 810 372 q 807 374 807 373 q 782 368 796 368 q 722 407 746 368 q 716 419 718 414 q 714 421 715 420 q 712 424 713 423 l 709 401 q 692 374 707 383 q 677 370 686 370 q 661 374 669 370 q 659 376 661 375 q 655 378 657 376 q 650 381 652 379 q 643 379 650 381 l 639 378 q 631 378 635 378 q 578 406 597 378 q 536 380 559 382 q 532 380 534 380 q 528 380 529 380 q 477 404 494 380 q 399 358 445 358 q 340 382 366 358 q 343 356 340 372 q 329 324 347 335 q 312 319 321 319 q 294 325 301 319 l 292 327 q 287 331 290 328 q 280 336 284 333 q 272 345 277 340 q 263 355 268 349 q 254 368 259 361 q 244 384 249 376 q 225 411 232 399 q 231 351 220 370 q 230 320 239 336 q 203 304 221 304 q 144 333 169 304 q 100 417 106 378 q 83 411 91 411 q 72 413 77 411 q 38 444 49 422 q 28 480 26 465 q 29 489 28 482 q 37 508 31 495 q 53 532 43 520 q 83 556 63 544 q 129 576 103 569 q 156 662 144 633 q 173 696 168 690 q 187 705 178 701 q 200 707 193 707 q 264 668 227 707 q 268 663 267 665 q 317 756 284 701 q 374 787 336 787 q 425 774 399 787 q 449 746 433 770 q 465 713 465 722 q 451 685 467 695 q 432 667 444 680 q 470 635 455 654 q 476 618 475 628 l 477 618 q 479 616 479 617 q 499 643 489 634 q 555 665 522 665 q 610 640 592 665 q 625 641 615 641 q 684 768 646 706 q 741 798 703 798 q 791 785 766 798 q 808 758 807 777 l 808 756 q 930 759 851 759 l 985 759 q 1022 762 1004 759 q 1048 768 1040 765 l 1057 770 q 1068 772 1063 772 q 1091 763 1082 772 q 1104 744 1095 759 q 1114 729 1114 730 q 1121 694 1128 711 q 1113 680 1118 688 q 1141 656 1136 675 q 1141 648 1141 654 q 1155 650 1149 650 q 1199 631 1181 650 q 1225 656 1209 643 q 1290 678 1255 678 q 1375 629 1339 678 q 1396 578 1394 606 m 288 385 q 298 523 279 442 q 350 666 318 604 q 410 746 382 728 q 396 752 405 749 q 370 754 388 755 q 344 740 352 753 q 288 631 309 684 q 262 540 267 578 q 257 481 258 502 q 260 447 257 461 q 235 531 240 481 q 236 613 231 581 l 241 646 q 232 654 238 649 q 215 668 227 660 q 198 675 203 677 q 154 550 187 671 q 110 535 129 545 q 82 516 92 526 q 67 497 73 507 q 61 483 62 488 l 60 477 q 144 513 74 498 q 133 460 134 469 q 132 417 129 434 q 143 390 135 399 q 159 376 151 380 q 174 371 167 372 l 180 370 q 169 421 170 389 q 176 484 169 452 q 191 544 182 515 q 206 591 199 573 l 214 609 q 226 494 215 546 q 249 432 233 460 q 277 395 264 405 l 288 385 m 576 471 q 589 450 579 456 q 606 444 598 443 l 614 444 q 610 450 612 446 q 605 471 608 454 q 607 513 602 488 q 616 558 610 534 q 627 595 622 582 l 631 610 q 586 595 595 611 q 559 539 571 568 q 534 492 547 511 q 507 472 515 465 q 509 508 500 478 q 531 566 517 537 q 557 607 547 599 q 587 609 567 615 q 579 627 590 619 q 551 633 568 634 q 520 620 533 631 q 477 525 492 593 q 448 496 465 503 q 454 545 455 526 q 439 599 452 585 q 405 611 427 614 q 445 616 422 623 q 436 626 441 620 q 413 641 430 633 q 381 643 396 648 q 333 568 355 633 q 321 468 310 503 q 366 424 334 431 q 429 456 399 418 q 443 481 437 468 q 473 500 458 485 q 473 472 471 483 q 511 446 478 443 q 544 476 524 446 q 575 535 563 506 l 587 564 q 583 548 585 557 q 575 510 580 538 q 576 471 570 483 m 772 437 q 766 445 769 439 q 758 470 763 450 q 761 515 753 489 q 774 561 766 538 q 786 594 781 583 l 791 604 l 761 618 q 751 618 755 621 q 663 518 696 579 q 715 667 680 594 q 777 757 749 739 q 763 763 772 760 q 737 766 755 766 q 711 751 719 765 q 640 574 662 673 q 625 471 622 495 q 634 453 627 462 q 647 439 641 444 l 654 435 q 688 530 655 488 q 718 567 704 552 q 739 586 732 582 l 745 591 q 741 580 743 587 q 732 554 738 573 q 722 519 726 536 q 719 485 719 503 q 726 457 720 467 q 747 436 736 441 q 765 434 759 431 l 772 437 m 834 408 q 841 523 815 439 q 906 690 867 606 q 1005 692 993 691 q 1040 706 1025 694 q 1062 730 1056 718 l 1068 741 q 985 727 1035 728 q 933 727 968 727 q 876 726 898 726 q 830 725 854 726 q 792 723 805 724 q 756 707 772 720 q 735 681 741 693 l 730 669 q 800 686 740 681 q 858 688 812 686 q 829 612 856 682 q 793 500 803 542 q 791 465 789 480 q 801 439 793 450 q 815 421 808 428 q 829 411 823 414 l 834 408 m 1170 524 q 1188 571 1186 552 q 1183 598 1190 589 q 1137 614 1171 628 q 1104 594 1120 608 q 1080 567 1088 579 l 1071 555 q 1110 648 1108 648 l 1091 648 q 1059 631 1067 644 q 1019 519 1040 580 q 1017 514 1018 518 q 1015 509 1015 510 q 982 490 996 496 q 1003 550 989 514 q 1026 610 1017 587 l 1036 634 q 988 619 1000 632 q 966 587 986 616 q 927 536 945 557 q 903 521 909 516 q 902 529 901 523 q 908 546 903 536 q 919 567 913 556 q 931 590 924 578 q 943 611 937 602 q 952 626 948 620 l 956 632 q 942 631 950 632 q 919 624 935 631 q 897 607 903 618 q 866 504 852 522 q 883 497 871 497 q 910 504 895 496 q 938 528 926 512 l 983 588 q 945 473 962 521 q 919 457 936 467 q 895 443 902 448 q 878 429 888 439 q 858 408 867 420 q 842 372 844 390 q 847 344 840 354 q 873 335 855 334 q 914 352 892 336 q 941 384 929 363 q 959 418 954 404 q 977 473 964 432 q 1008 491 996 485 q 985 412 991 440 q 989 383 981 399 q 1005 358 996 368 l 1015 349 q 1037 456 1010 366 q 1073 542 1053 506 q 1115 587 1088 568 q 1150 600 1142 606 q 1151 580 1154 595 q 1141 551 1148 565 q 1107 509 1128 524 q 1073 493 1086 494 l 1059 492 q 1066 487 1061 490 q 1084 480 1070 484 q 1110 478 1097 477 q 1140 490 1123 479 q 1170 524 1156 502 m 1278 614 q 1308 630 1293 630 q 1321 618 1322 630 q 1303 589 1320 606 q 1283 578 1295 581 q 1263 577 1271 576 l 1256 578 q 1259 572 1257 576 q 1271 562 1261 568 q 1293 557 1280 556 q 1330 574 1318 558 q 1341 611 1343 590 q 1326 635 1341 625 q 1290 647 1312 646 q 1244 631 1269 648 q 1207 590 1222 615 q 1193 536 1192 565 q 1215 490 1193 508 q 1254 481 1232 477 q 1297 496 1276 485 q 1329 519 1317 507 q 1334 531 1332 524 q 1336 545 1336 539 l 1337 550 q 1283 507 1320 524 q 1235 506 1245 490 q 1240 555 1225 522 q 1278 614 1255 588 m 369 555 q 383 511 370 532 q 415 484 396 490 q 394 441 406 451 q 369 436 383 432 q 356 474 356 439 q 363 536 355 509 q 369 555 366 544 m 648 144 q 634 149 640 144 q 629 162 629 155 q 632 176 629 170 q 641 186 635 183 q 655 191 647 191 q 669 185 664 191 q 675 172 675 180 q 671 158 675 165 q 663 148 668 152 q 648 144 656 144 m 1152 94 l 243 94 l 272 243 l 1181 243 l 1152 94 m 1124 203 l 1061 203 l 1058 190 l 1081 190 l 1069 131 l 1086 131 l 1098 190 l 1121 190 l 1124 203 m 967 203 l 953 131 l 969 131 l 978 176 l 1005 131 l 1019 131 l 1034 203 l 1017 203 l 1008 158 l 981 203 l 967 203 m 871 199 q 854 183 860 192 q 849 161 849 174 q 853 144 849 152 q 865 134 857 138 q 884 130 873 130 q 907 136 897 130 q 924 151 918 142 q 929 173 929 160 q 925 190 929 183 q 913 201 921 197 q 894 205 905 205 q 871 199 881 205 m 777 203 l 763 131 l 780 131 l 785 157 l 819 157 l 821 171 l 787 171 l 791 190 l 829 190 l 832 203 l 777 203 m 633 199 q 617 183 623 192 q 612 161 612 174 q 616 144 612 152 q 628 134 620 138 q 647 130 636 130 q 670 136 660 130 q 686 151 681 142 q 692 173 692 160 q 688 190 692 183 q 675 201 684 197 q 656 205 667 205 q 633 199 644 205 m 520 203 l 507 203 l 492 131 l 508 131 l 517 174 l 532 138 l 539 138 l 566 174 l 558 131 l 574 131 l 588 203 l 574 203 l 538 158 l 520 203 m 418 203 l 404 131 l 460 131 l 463 144 l 424 144 l 427 161 l 460 161 l 463 174 l 429 174 l 433 190 l 471 190 l 473 203 l 418 203 m 345 203 l 315 203 l 300 131 l 336 131 q 359 136 349 131 q 375 151 368 140 q 380 173 380 159 q 376 189 380 182 q 364 199 373 195 q 345 203 356 203 m 886 144 q 871 149 877 144 q 866 162 866 155 q 869 176 866 170 q 878 186 873 183 q 892 191 884 191 q 907 185 901 191 q 912 172 912 180 q 909 158 912 165 q 900 148 905 152 q 886 144 894 144 m 351 149 q 336 144 345 144 l 320 144 l 329 190 l 343 190 q 359 185 354 190 q 363 172 363 180 q 361 158 363 163 q 351 149 359 154 z "},"%":{"ha":1423,"x_min":26,"x_max":1398,"o":"m 869 401 q 938 452 888 429 q 910 387 922 408 q 885 361 899 366 q 859 367 863 353 q 869 401 855 380 m 392 570 q 418 555 410 600 q 419 498 424 519 l 419 497 q 392 530 401 507 q 392 570 382 553 m 1396 578 q 1386 533 1398 553 q 1392 516 1392 526 q 1375 465 1392 482 q 1327 430 1358 445 q 1268 415 1297 415 q 1219 431 1239 415 q 1202 449 1210 438 q 1125 412 1168 412 q 1092 418 1109 412 q 1091 415 1092 417 q 1090 413 1090 414 q 1068 323 1067 336 q 1067 303 1071 313 q 1055 288 1063 294 q 1038 283 1047 283 q 1017 292 1025 283 q 988 326 1000 306 q 956 292 973 304 q 894 269 924 269 q 840 302 868 269 q 817 336 827 315 q 810 371 809 350 q 808 372 810 372 q 807 374 807 373 q 782 368 796 368 q 722 407 746 368 q 716 419 718 414 q 714 421 715 420 q 712 424 713 423 l 709 401 q 692 374 707 383 q 677 370 686 370 q 661 374 669 370 q 659 376 661 375 q 655 378 657 376 q 650 381 652 379 q 643 379 650 381 l 639 378 q 631 378 635 378 q 578 406 597 378 q 536 380 559 382 q 532 380 534 380 q 528 380 529 380 q 477 404 494 380 q 399 358 445 358 q 340 382 366 358 q 343 356 340 372 q 329 324 347 335 q 312 319 321 319 q 294 325 301 319 l 292 327 q 287 331 290 328 q 280 336 284 333 q 272 345 277 340 q 263 355 268 349 q 254 368 259 361 q 244 384 249 376 q 225 411 232 399 q 231 351 220 370 q 230 320 239 336 q 203 304 221 304 q 144 333 169 304 q 100 417 106 378 q 83 411 91 411 q 72 413 77 411 q 38 444 49 422 q 28 480 26 465 q 29 489 28 482 q 37 508 31 495 q 53 532 43 520 q 83 556 63 544 q 129 576 103 569 q 156 662 144 633 q 173 696 168 690 q 187 705 178 701 q 200 707 193 707 q 264 668 227 707 q 268 663 267 665 q 317 756 284 701 q 374 787 336 787 q 425 774 399 787 q 449 746 433 770 q 465 713 465 722 q 451 685 467 695 q 432 667 444 680 q 470 635 455 654 q 476 618 475 628 l 477 618 q 479 616 479 617 q 499 643 489 634 q 555 665 522 665 q 610 640 592 665 q 625 641 615 641 q 684 768 646 706 q 741 798 703 798 q 791 785 766 798 q 808 758 807 777 l 808 756 q 930 759 851 759 l 985 759 q 1022 762 1004 759 q 1048 768 1040 765 l 1057 770 q 1068 772 1063 772 q 1091 763 1082 772 q 1104 744 1095 759 q 1114 729 1114 730 q 1121 694 1128 711 q 1113 680 1118 688 q 1141 656 1136 675 q 1141 648 1141 654 q 1155 650 1149 650 q 1199 631 1181 650 q 1225 656 1209 643 q 1290 678 1255 678 q 1375 629 1339 678 q 1396 578 1394 606 m 288 385 q 298 523 279 442 q 350 666 318 604 q 410 746 382 728 q 396 752 405 749 q 370 754 388 755 q 344 740 352 753 q 288 631 309 684 q 262 540 267 578 q 257 481 258 502 q 260 447 257 461 q 235 531 240 481 q 236 613 231 581 l 241 646 q 232 654 238 649 q 215 668 227 660 q 198 675 203 677 q 154 550 187 671 q 110 535 129 545 q 82 516 92 526 q 67 497 73 507 q 61 483 62 488 l 60 477 q 144 513 74 498 q 133 460 134 469 q 132 417 129 434 q 143 390 135 399 q 159 376 151 380 q 174 371 167 372 l 180 370 q 169 421 170 389 q 176 484 169 452 q 191 544 182 515 q 206 591 199 573 l 214 609 q 226 494 215 546 q 249 432 233 460 q 277 395 264 405 l 288 385 m 576 471 q 589 450 579 456 q 606 444 598 443 l 614 444 q 610 450 612 446 q 605 471 608 454 q 607 513 602 488 q 616 558 610 534 q 627 595 622 582 l 631 610 q 586 595 595 611 q 559 539 571 568 q 534 492 547 511 q 507 472 515 465 q 509 508 500 478 q 531 566 517 537 q 557 607 547 599 q 587 609 567 615 q 579 627 590 619 q 551 633 568 634 q 520 620 533 631 q 477 525 492 593 q 448 496 465 503 q 454 545 455 526 q 439 599 452 585 q 405 611 427 614 q 445 616 422 623 q 436 626 441 620 q 413 641 430 633 q 381 643 396 648 q 333 568 355 633 q 321 468 310 503 q 366 424 334 431 q 429 456 399 418 q 443 481 437 468 q 473 500 458 485 q 473 472 471 483 q 511 446 478 443 q 544 476 524 446 q 575 535 563 506 l 587 564 q 583 548 585 557 q 575 510 580 538 q 576 471 570 483 m 772 437 q 766 445 769 439 q 758 470 763 450 q 761 515 753 489 q 774 561 766 538 q 786 594 781 583 l 791 604 l 761 618 q 751 618 755 621 q 663 518 696 579 q 715 667 680 594 q 777 757 749 739 q 763 763 772 760 q 737 766 755 766 q 711 751 719 765 q 640 574 662 673 q 625 471 622 495 q 634 453 627 462 q 647 439 641 444 l 654 435 q 688 530 655 488 q 718 567 704 552 q 739 586 732 582 l 745 591 q 741 580 743 587 q 732 554 738 573 q 722 519 726 536 q 719 485 719 503 q 726 457 720 467 q 747 436 736 441 q 765 434 759 431 l 772 437 m 834 408 q 841 523 815 439 q 906 690 867 606 q 1005 692 993 691 q 1040 706 1025 694 q 1062 730 1056 718 l 1068 741 q 985 727 1035 728 q 933 727 968 727 q 876 726 898 726 q 830 725 854 726 q 792 723 805 724 q 756 707 772 720 q 735 681 741 693 l 730 669 q 800 686 740 681 q 858 688 812 686 q 829 612 856 682 q 793 500 803 542 q 791 465 789 480 q 801 439 793 450 q 815 421 808 428 q 829 411 823 414 l 834 408 m 1170 524 q 1188 571 1186 552 q 1183 598 1190 589 q 1137 614 1171 628 q 1104 594 1120 608 q 1080 567 1088 579 l 1071 555 q 1110 648 1108 648 l 1091 648 q 1059 631 1067 644 q 1019 519 1040 580 q 1017 514 1018 518 q 1015 509 1015 510 q 982 490 996 496 q 1003 550 989 514 q 1026 610 1017 587 l 1036 634 q 988 619 1000 632 q 966 587 986 616 q 927 536 945 557 q 903 521 909 516 q 902 529 901 523 q 908 546 903 536 q 919 567 913 556 q 931 590 924 578 q 943 611 937 602 q 952 626 948 620 l 956 632 q 942 631 950 632 q 919 624 935 631 q 897 607 903 618 q 866 504 852 522 q 883 497 871 497 q 910 504 895 496 q 938 528 926 512 l 983 588 q 945 473 962 521 q 919 457 936 467 q 895 443 902 448 q 878 429 888 439 q 858 408 867 420 q 842 372 844 390 q 847 344 840 354 q 873 335 855 334 q 914 352 892 336 q 941 384 929 363 q 959 418 954 404 q 977 473 964 432 q 1008 491 996 485 q 985 412 991 440 q 989 383 981 399 q 1005 358 996 368 l 1015 349 q 1037 456 1010 366 q 1073 542 1053 506 q 1115 587 1088 568 q 1150 600 1142 606 q 1151 580 1154 595 q 1141 551 1148 565 q 1107 509 1128 524 q 1073 493 1086 494 l 1059 492 q 1066 487 1061 490 q 1084 480 1070 484 q 1110 478 1097 477 q 1140 490 1123 479 q 1170 524 1156 502 m 1278 614 q 1308 630 1293 630 q 1321 618 1322 630 q 1303 589 1320 606 q 1283 578 1295 581 q 1263 577 1271 576 l 1256 578 q 1259 572 1257 576 q 1271 562 1261 568 q 1293 557 1280 556 q 1330 574 1318 558 q 1341 611 1343 590 q 1326 635 1341 625 q 1290 647 1312 646 q 1244 631 1269 648 q 1207 590 1222 615 q 1193 536 1192 565 q 1215 490 1193 508 q 1254 481 1232 477 q 1297 496 1276 485 q 1329 519 1317 507 q 1334 531 1332 524 q 1336 545 1336 539 l 1337 550 q 1283 507 1320 524 q 1235 506 1245 490 q 1240 555 1225 522 q 1278 614 1255 588 m 369 555 q 383 511 370 532 q 415 484 396 490 q 394 441 406 451 q 369 436 383 432 q 356 474 356 439 q 363 536 355 509 q 369 555 366 544 m 648 144 q 634 149 640 144 q 629 162 629 155 q 632 176 629 170 q 641 186 635 183 q 655 191 647 191 q 669 185 664 191 q 675 172 675 180 q 671 158 675 165 q 663 148 668 152 q 648 144 656 144 m 1152 94 l 243 94 l 272 243 l 1181 243 l 1152 94 m 1124 203 l 1061 203 l 1058 190 l 1081 190 l 1069 131 l 1086 131 l 1098 190 l 1121 190 l 1124 203 m 967 203 l 953 131 l 969 131 l 978 176 l 1005 131 l 1019 131 l 1034 203 l 1017 203 l 1008 158 l 981 203 l 967 203 m 871 199 q 854 183 860 192 q 849 161 849 174 q 853 144 849 152 q 865 134 857 138 q 884 130 873 130 q 907 136 897 130 q 924 151 918 142 q 929 173 929 160 q 925 190 929 183 q 913 201 921 197 q 894 205 905 205 q 871 199 881 205 m 777 203 l 763 131 l 780 131 l 785 157 l 819 157 l 821 171 l 787 171 l 791 190 l 829 190 l 832 203 l 777 203 m 633 199 q 617 183 623 192 q 612 161 612 174 q 616 144 612 152 q 628 134 620 138 q 647 130 636 130 q 670 136 660 130 q 686 151 681 142 q 692 173 692 160 q 688 190 692 183 q 675 201 684 197 q 656 205 667 205 q 633 199 644 205 m 520 203 l 507 203 l 492 131 l 508 131 l 517 174 l 532 138 l 539 138 l 566 174 l 558 131 l 574 131 l 588 203 l 574 203 l 538 158 l 520 203 m 418 203 l 404 131 l 460 131 l 463 144 l 424 144 l 427 161 l 460 161 l 463 174 l 429 174 l 433 190 l 471 190 l 473 203 l 418 203 m 345 203 l 315 203 l 300 131 l 336 131 q 359 136 349 131 q 375 151 368 140 q 380 173 380 159 q 376 189 380 182 q 364 199 373 195 q 345 203 356 203 m 886 144 q 871 149 877 144 q 866 162 866 155 q 869 176 866 170 q 878 186 873 183 q 892 191 884 191 q 907 185 901 191 q 912 172 912 180 q 909 158 912 165 q 900 148 905 152 q 886 144 894 144 m 351 149 q 336 144 345 144 l 320 144 l 329 190 l 343 190 q 359 185 354 190 q 363 172 363 180 q 361 158 363 163 q 351 149 359 154 z "},"&":{"ha":1423,"x_min":26,"x_max":1398,"o":"m 869 401 q 938 452 888 429 q 910 387 922 408 q 885 361 899 366 q 859 367 863 353 q 869 401 855 380 m 392 570 q 418 555 410 600 q 419 498 424 519 l 419 497 q 392 530 401 507 q 392 570 382 553 m 1396 578 q 1386 533 1398 553 q 1392 516 1392 526 q 1375 465 1392 482 q 1327 430 1358 445 q 1268 415 1297 415 q 1219 431 1239 415 q 1202 449 1210 438 q 1125 412 1168 412 q 1092 418 1109 412 q 1091 415 1092 417 q 1090 413 1090 414 q 1068 323 1067 336 q 1067 303 1071 313 q 1055 288 1063 294 q 1038 283 1047 283 q 1017 292 1025 283 q 988 326 1000 306 q 956 292 973 304 q 894 269 924 269 q 840 302 868 269 q 817 336 827 315 q 810 371 809 350 q 808 372 810 372 q 807 374 807 373 q 782 368 796 368 q 722 407 746 368 q 716 419 718 414 q 714 421 715 420 q 712 424 713 423 l 709 401 q 692 374 707 383 q 677 370 686 370 q 661 374 669 370 q 659 376 661 375 q 655 378 657 376 q 650 381 652 379 q 643 379 650 381 l 639 378 q 631 378 635 378 q 578 406 597 378 q 536 380 559 382 q 532 380 534 380 q 528 380 529 380 q 477 404 494 380 q 399 358 445 358 q 340 382 366 358 q 343 356 340 372 q 329 324 347 335 q 312 319 321 319 q 294 325 301 319 l 292 327 q 287 331 290 328 q 280 336 284 333 q 272 345 277 340 q 263 355 268 349 q 254 368 259 361 q 244 384 249 376 q 225 411 232 399 q 231 351 220 370 q 230 320 239 336 q 203 304 221 304 q 144 333 169 304 q 100 417 106 378 q 83 411 91 411 q 72 413 77 411 q 38 444 49 422 q 28 480 26 465 q 29 489 28 482 q 37 508 31 495 q 53 532 43 520 q 83 556 63 544 q 129 576 103 569 q 156 662 144 633 q 173 696 168 690 q 187 705 178 701 q 200 707 193 707 q 264 668 227 707 q 268 663 267 665 q 317 756 284 701 q 374 787 336 787 q 425 774 399 787 q 449 746 433 770 q 465 713 465 722 q 451 685 467 695 q 432 667 444 680 q 470 635 455 654 q 476 618 475 628 l 477 618 q 479 616 479 617 q 499 643 489 634 q 555 665 522 665 q 610 640 592 665 q 625 641 615 641 q 684 768 646 706 q 741 798 703 798 q 791 785 766 798 q 808 758 807 777 l 808 756 q 930 759 851 759 l 985 759 q 1022 762 1004 759 q 1048 768 1040 765 l 1057 770 q 1068 772 1063 772 q 1091 763 1082 772 q 1104 744 1095 759 q 1114 729 1114 730 q 1121 694 1128 711 q 1113 680 1118 688 q 1141 656 1136 675 q 1141 648 1141 654 q 1155 650 1149 650 q 1199 631 1181 650 q 1225 656 1209 643 q 1290 678 1255 678 q 1375 629 1339 678 q 1396 578 1394 606 m 288 385 q 298 523 279 442 q 350 666 318 604 q 410 746 382 728 q 396 752 405 749 q 370 754 388 755 q 344 740 352 753 q 288 631 309 684 q 262 540 267 578 q 257 481 258 502 q 260 447 257 461 q 235 531 240 481 q 236 613 231 581 l 241 646 q 232 654 238 649 q 215 668 227 660 q 198 675 203 677 q 154 550 187 671 q 110 535 129 545 q 82 516 92 526 q 67 497 73 507 q 61 483 62 488 l 60 477 q 144 513 74 498 q 133 460 134 469 q 132 417 129 434 q 143 390 135 399 q 159 376 151 380 q 174 371 167 372 l 180 370 q 169 421 170 389 q 176 484 169 452 q 191 544 182 515 q 206 591 199 573 l 214 609 q 226 494 215 546 q 249 432 233 460 q 277 395 264 405 l 288 385 m 576 471 q 589 450 579 456 q 606 444 598 443 l 614 444 q 610 450 612 446 q 605 471 608 454 q 607 513 602 488 q 616 558 610 534 q 627 595 622 582 l 631 610 q 586 595 595 611 q 559 539 571 568 q 534 492 547 511 q 507 472 515 465 q 509 508 500 478 q 531 566 517 537 q 557 607 547 599 q 587 609 567 615 q 579 627 590 619 q 551 633 568 634 q 520 620 533 631 q 477 525 492 593 q 448 496 465 503 q 454 545 455 526 q 439 599 452 585 q 405 611 427 614 q 445 616 422 623 q 436 626 441 620 q 413 641 430 633 q 381 643 396 648 q 333 568 355 633 q 321 468 310 503 q 366 424 334 431 q 429 456 399 418 q 443 481 437 468 q 473 500 458 485 q 473 472 471 483 q 511 446 478 443 q 544 476 524 446 q 575 535 563 506 l 587 564 q 583 548 585 557 q 575 510 580 538 q 576 471 570 483 m 772 437 q 766 445 769 439 q 758 470 763 450 q 761 515 753 489 q 774 561 766 538 q 786 594 781 583 l 791 604 l 761 618 q 751 618 755 621 q 663 518 696 579 q 715 667 680 594 q 777 757 749 739 q 763 763 772 760 q 737 766 755 766 q 711 751 719 765 q 640 574 662 673 q 625 471 622 495 q 634 453 627 462 q 647 439 641 444 l 654 435 q 688 530 655 488 q 718 567 704 552 q 739 586 732 582 l 745 591 q 741 580 743 587 q 732 554 738 573 q 722 519 726 536 q 719 485 719 503 q 726 457 720 467 q 747 436 736 441 q 765 434 759 431 l 772 437 m 834 408 q 841 523 815 439 q 906 690 867 606 q 1005 692 993 691 q 1040 706 1025 694 q 1062 730 1056 718 l 1068 741 q 985 727 1035 728 q 933 727 968 727 q 876 726 898 726 q 830 725 854 726 q 792 723 805 724 q 756 707 772 720 q 735 681 741 693 l 730 669 q 800 686 740 681 q 858 688 812 686 q 829 612 856 682 q 793 500 803 542 q 791 465 789 480 q 801 439 793 450 q 815 421 808 428 q 829 411 823 414 l 834 408 m 1170 524 q 1188 571 1186 552 q 1183 598 1190 589 q 1137 614 1171 628 q 1104 594 1120 608 q 1080 567 1088 579 l 1071 555 q 1110 648 1108 648 l 1091 648 q 1059 631 1067 644 q 1019 519 1040 580 q 1017 514 1018 518 q 1015 509 1015 510 q 982 490 996 496 q 1003 550 989 514 q 1026 610 1017 587 l 1036 634 q 988 619 1000 632 q 966 587 986 616 q 927 536 945 557 q 903 521 909 516 q 902 529 901 523 q 908 546 903 536 q 919 567 913 556 q 931 590 924 578 q 943 611 937 602 q 952 626 948 620 l 956 632 q 942 631 950 632 q 919 624 935 631 q 897 607 903 618 q 866 504 852 522 q 883 497 871 497 q 910 504 895 496 q 938 528 926 512 l 983 588 q 945 473 962 521 q 919 457 936 467 q 895 443 902 448 q 878 429 888 439 q 858 408 867 420 q 842 372 844 390 q 847 344 840 354 q 873 335 855 334 q 914 352 892 336 q 941 384 929 363 q 959 418 954 404 q 977 473 964 432 q 1008 491 996 485 q 985 412 991 440 q 989 383 981 399 q 1005 358 996 368 l 1015 349 q 1037 456 1010 366 q 1073 542 1053 506 q 1115 587 1088 568 q 1150 600 1142 606 q 1151 580 1154 595 q 1141 551 1148 565 q 1107 509 1128 524 q 1073 493 1086 494 l 1059 492 q 1066 487 1061 490 q 1084 480 1070 484 q 1110 478 1097 477 q 1140 490 1123 479 q 1170 524 1156 502 m 1278 614 q 1308 630 1293 630 q 1321 618 1322 630 q 1303 589 1320 606 q 1283 578 1295 581 q 1263 577 1271 576 l 1256 578 q 1259 572 1257 576 q 1271 562 1261 568 q 1293 557 1280 556 q 1330 574 1318 558 q 1341 611 1343 590 q 1326 635 1341 625 q 1290 647 1312 646 q 1244 631 1269 648 q 1207 590 1222 615 q 1193 536 1192 565 q 1215 490 1193 508 q 1254 481 1232 477 q 1297 496 1276 485 q 1329 519 1317 507 q 1334 531 1332 524 q 1336 545 1336 539 l 1337 550 q 1283 507 1320 524 q 1235 506 1245 490 q 1240 555 1225 522 q 1278 614 1255 588 m 369 555 q 383 511 370 532 q 415 484 396 490 q 394 441 406 451 q 369 436 383 432 q 356 474 356 439 q 363 536 355 509 q 369 555 366 544 m 648 144 q 634 149 640 144 q 629 162 629 155 q 632 176 629 170 q 641 186 635 183 q 655 191 647 191 q 669 185 664 191 q 675 172 675 180 q 671 158 675 165 q 663 148 668 152 q 648 144 656 144 m 1152 94 l 243 94 l 272 243 l 1181 243 l 1152 94 m 1124 203 l 1061 203 l 1058 190 l 1081 190 l 1069 131 l 1086 131 l 1098 190 l 1121 190 l 1124 203 m 967 203 l 953 131 l 969 131 l 978 176 l 1005 131 l 1019 131 l 1034 203 l 1017 203 l 1008 158 l 981 203 l 967 203 m 871 199 q 854 183 860 192 q 849 161 849 174 q 853 144 849 152 q 865 134 857 138 q 884 130 873 130 q 907 136 897 130 q 924 151 918 142 q 929 173 929 160 q 925 190 929 183 q 913 201 921 197 q 894 205 905 205 q 871 199 881 205 m 777 203 l 763 131 l 780 131 l 785 157 l 819 157 l 821 171 l 787 171 l 791 190 l 829 190 l 832 203 l 777 203 m 633 199 q 617 183 623 192 q 612 161 612 174 q 616 144 612 152 q 628 134 620 138 q 647 130 636 130 q 670 136 660 130 q 686 151 681 142 q 692 173 692 160 q 688 190 692 183 q 675 201 684 197 q 656 205 667 205 q 633 199 644 205 m 520 203 l 507 203 l 492 131 l 508 131 l 517 174 l 532 138 l 539 138 l 566 174 l 558 131 l 574 131 l 588 203 l 574 203 l 538 158 l 520 203 m 418 203 l 404 131 l 460 131 l 463 144 l 424 144 l 427 161 l 460 161 l 463 174 l 429 174 l 433 190 l 471 190 l 473 203 l 418 203 m 345 203 l 315 203 l 300 131 l 336 131 q 359 136 349 131 q 375 151 368 140 q 380 173 380 159 q 376 189 380 182 q 364 199 373 195 q 345 203 356 203 m 886 144 q 871 149 877 144 q 866 162 866 155 q 869 176 866 170 q 878 186 873 183 q 892 191 884 191 q 907 185 901 191 q 912 172 912 180 q 909 158 912 165 q 900 148 905 152 q 886 144 894 144 m 351 149 q 336 144 345 144 l 320 144 l 329 190 l 343 190 q 359 185 354 190 q 363 172 363 180 q 361 158 363 163 q 351 149 359 154 z "},"'":{"ha":1423,"x_min":26,"x_max":1398,"o":"m 869 401 q 938 452 888 429 q 910 387 922 408 q 885 361 899 366 q 859 367 863 353 q 869 401 855 380 m 392 570 q 418 555 410 600 q 419 498 424 519 l 419 497 q 392 530 401 507 q 392 570 382 553 m 1396 578 q 1386 533 1398 553 q 1392 516 1392 526 q 1375 465 1392 482 q 1327 430 1358 445 q 1268 415 1297 415 q 1219 431 1239 415 q 1202 449 1210 438 q 1125 412 1168 412 q 1092 418 1109 412 q 1091 415 1092 417 q 1090 413 1090 414 q 1068 323 1067 336 q 1067 303 1071 313 q 1055 288 1063 294 q 1038 283 1047 283 q 1017 292 1025 283 q 988 326 1000 306 q 956 292 973 304 q 894 269 924 269 q 840 302 868 269 q 817 336 827 315 q 810 371 809 350 q 808 372 810 372 q 807 374 807 373 q 782 368 796 368 q 722 407 746 368 q 716 419 718 414 q 714 421 715 420 q 712 424 713 423 l 709 401 q 692 374 707 383 q 677 370 686 370 q 661 374 669 370 q 659 376 661 375 q 655 378 657 376 q 650 381 652 379 q 643 379 650 381 l 639 378 q 631 378 635 378 q 578 406 597 378 q 536 380 559 382 q 532 380 534 380 q 528 380 529 380 q 477 404 494 380 q 399 358 445 358 q 340 382 366 358 q 343 356 340 372 q 329 324 347 335 q 312 319 321 319 q 294 325 301 319 l 292 327 q 287 331 290 328 q 280 336 284 333 q 272 345 277 340 q 263 355 268 349 q 254 368 259 361 q 244 384 249 376 q 225 411 232 399 q 231 351 220 370 q 230 320 239 336 q 203 304 221 304 q 144 333 169 304 q 100 417 106 378 q 83 411 91 411 q 72 413 77 411 q 38 444 49 422 q 28 480 26 465 q 29 489 28 482 q 37 508 31 495 q 53 532 43 520 q 83 556 63 544 q 129 576 103 569 q 156 662 144 633 q 173 696 168 690 q 187 705 178 701 q 200 707 193 707 q 264 668 227 707 q 268 663 267 665 q 317 756 284 701 q 374 787 336 787 q 425 774 399 787 q 449 746 433 770 q 465 713 465 722 q 451 685 467 695 q 432 667 444 680 q 470 635 455 654 q 476 618 475 628 l 477 618 q 479 616 479 617 q 499 643 489 634 q 555 665 522 665 q 610 640 592 665 q 625 641 615 641 q 684 768 646 706 q 741 798 703 798 q 791 785 766 798 q 808 758 807 777 l 808 756 q 930 759 851 759 l 985 759 q 1022 762 1004 759 q 1048 768 1040 765 l 1057 770 q 1068 772 1063 772 q 1091 763 1082 772 q 1104 744 1095 759 q 1114 729 1114 730 q 1121 694 1128 711 q 1113 680 1118 688 q 1141 656 1136 675 q 1141 648 1141 654 q 1155 650 1149 650 q 1199 631 1181 650 q 1225 656 1209 643 q 1290 678 1255 678 q 1375 629 1339 678 q 1396 578 1394 606 m 288 385 q 298 523 279 442 q 350 666 318 604 q 410 746 382 728 q 396 752 405 749 q 370 754 388 755 q 344 740 352 753 q 288 631 309 684 q 262 540 267 578 q 257 481 258 502 q 260 447 257 461 q 235 531 240 481 q 236 613 231 581 l 241 646 q 232 654 238 649 q 215 668 227 660 q 198 675 203 677 q 154 550 187 671 q 110 535 129 545 q 82 516 92 526 q 67 497 73 507 q 61 483 62 488 l 60 477 q 144 513 74 498 q 133 460 134 469 q 132 417 129 434 q 143 390 135 399 q 159 376 151 380 q 174 371 167 372 l 180 370 q 169 421 170 389 q 176 484 169 452 q 191 544 182 515 q 206 591 199 573 l 214 609 q 226 494 215 546 q 249 432 233 460 q 277 395 264 405 l 288 385 m 576 471 q 589 450 579 456 q 606 444 598 443 l 614 444 q 610 450 612 446 q 605 471 608 454 q 607 513 602 488 q 616 558 610 534 q 627 595 622 582 l 631 610 q 586 595 595 611 q 559 539 571 568 q 534 492 547 511 q 507 472 515 465 q 509 508 500 478 q 531 566 517 537 q 557 607 547 599 q 587 609 567 615 q 579 627 590 619 q 551 633 568 634 q 520 620 533 631 q 477 525 492 593 q 448 496 465 503 q 454 545 455 526 q 439 599 452 585 q 405 611 427 614 q 445 616 422 623 q 436 626 441 620 q 413 641 430 633 q 381 643 396 648 q 333 568 355 633 q 321 468 310 503 q 366 424 334 431 q 429 456 399 418 q 443 481 437 468 q 473 500 458 485 q 473 472 471 483 q 511 446 478 443 q 544 476 524 446 q 575 535 563 506 l 587 564 q 583 548 585 557 q 575 510 580 538 q 576 471 570 483 m 772 437 q 766 445 769 439 q 758 470 763 450 q 761 515 753 489 q 774 561 766 538 q 786 594 781 583 l 791 604 l 761 618 q 751 618 755 621 q 663 518 696 579 q 715 667 680 594 q 777 757 749 739 q 763 763 772 760 q 737 766 755 766 q 711 751 719 765 q 640 574 662 673 q 625 471 622 495 q 634 453 627 462 q 647 439 641 444 l 654 435 q 688 530 655 488 q 718 567 704 552 q 739 586 732 582 l 745 591 q 741 580 743 587 q 732 554 738 573 q 722 519 726 536 q 719 485 719 503 q 726 457 720 467 q 747 436 736 441 q 765 434 759 431 l 772 437 m 834 408 q 841 523 815 439 q 906 690 867 606 q 1005 692 993 691 q 1040 706 1025 694 q 1062 730 1056 718 l 1068 741 q 985 727 1035 728 q 933 727 968 727 q 876 726 898 726 q 830 725 854 726 q 792 723 805 724 q 756 707 772 720 q 735 681 741 693 l 730 669 q 800 686 740 681 q 858 688 812 686 q 829 612 856 682 q 793 500 803 542 q 791 465 789 480 q 801 439 793 450 q 815 421 808 428 q 829 411 823 414 l 834 408 m 1170 524 q 1188 571 1186 552 q 1183 598 1190 589 q 1137 614 1171 628 q 1104 594 1120 608 q 1080 567 1088 579 l 1071 555 q 1110 648 1108 648 l 1091 648 q 1059 631 1067 644 q 1019 519 1040 580 q 1017 514 1018 518 q 1015 509 1015 510 q 982 490 996 496 q 1003 550 989 514 q 1026 610 1017 587 l 1036 634 q 988 619 1000 632 q 966 587 986 616 q 927 536 945 557 q 903 521 909 516 q 902 529 901 523 q 908 546 903 536 q 919 567 913 556 q 931 590 924 578 q 943 611 937 602 q 952 626 948 620 l 956 632 q 942 631 950 632 q 919 624 935 631 q 897 607 903 618 q 866 504 852 522 q 883 497 871 497 q 910 504 895 496 q 938 528 926 512 l 983 588 q 945 473 962 521 q 919 457 936 467 q 895 443 902 448 q 878 429 888 439 q 858 408 867 420 q 842 372 844 390 q 847 344 840 354 q 873 335 855 334 q 914 352 892 336 q 941 384 929 363 q 959 418 954 404 q 977 473 964 432 q 1008 491 996 485 q 985 412 991 440 q 989 383 981 399 q 1005 358 996 368 l 1015 349 q 1037 456 1010 366 q 1073 542 1053 506 q 1115 587 1088 568 q 1150 600 1142 606 q 1151 580 1154 595 q 1141 551 1148 565 q 1107 509 1128 524 q 1073 493 1086 494 l 1059 492 q 1066 487 1061 490 q 1084 480 1070 484 q 1110 478 1097 477 q 1140 490 1123 479 q 1170 524 1156 502 m 1278 614 q 1308 630 1293 630 q 1321 618 1322 630 q 1303 589 1320 606 q 1283 578 1295 581 q 1263 577 1271 576 l 1256 578 q 1259 572 1257 576 q 1271 562 1261 568 q 1293 557 1280 556 q 1330 574 1318 558 q 1341 611 1343 590 q 1326 635 1341 625 q 1290 647 1312 646 q 1244 631 1269 648 q 1207 590 1222 615 q 1193 536 1192 565 q 1215 490 1193 508 q 1254 481 1232 477 q 1297 496 1276 485 q 1329 519 1317 507 q 1334 531 1332 524 q 1336 545 1336 539 l 1337 550 q 1283 507 1320 524 q 1235 506 1245 490 q 1240 555 1225 522 q 1278 614 1255 588 m 369 555 q 383 511 370 532 q 415 484 396 490 q 394 441 406 451 q 369 436 383 432 q 356 474 356 439 q 363 536 355 509 q 369 555 366 544 m 648 144 q 634 149 640 144 q 629 162 629 155 q 632 176 629 170 q 641 186 635 183 q 655 191 647 191 q 669 185 664 191 q 675 172 675 180 q 671 158 675 165 q 663 148 668 152 q 648 144 656 144 m 1152 94 l 243 94 l 272 243 l 1181 243 l 1152 94 m 1124 203 l 1061 203 l 1058 190 l 1081 190 l 1069 131 l 1086 131 l 1098 190 l 1121 190 l 1124 203 m 967 203 l 953 131 l 969 131 l 978 176 l 1005 131 l 1019 131 l 1034 203 l 1017 203 l 1008 158 l 981 203 l 967 203 m 871 199 q 854 183 860 192 q 849 161 849 174 q 853 144 849 152 q 865 134 857 138 q 884 130 873 130 q 907 136 897 130 q 924 151 918 142 q 929 173 929 160 q 925 190 929 183 q 913 201 921 197 q 894 205 905 205 q 871 199 881 205 m 777 203 l 763 131 l 780 131 l 785 157 l 819 157 l 821 171 l 787 171 l 791 190 l 829 190 l 832 203 l 777 203 m 633 199 q 617 183 623 192 q 612 161 612 174 q 616 144 612 152 q 628 134 620 138 q 647 130 636 130 q 670 136 660 130 q 686 151 681 142 q 692 173 692 160 q 688 190 692 183 q 675 201 684 197 q 656 205 667 205 q 633 199 644 205 m 520 203 l 507 203 l 492 131 l 508 131 l 517 174 l 532 138 l 539 138 l 566 174 l 558 131 l 574 131 l 588 203 l 574 203 l 538 158 l 520 203 m 418 203 l 404 131 l 460 131 l 463 144 l 424 144 l 427 161 l 460 161 l 463 174 l 429 174 l 433 190 l 471 190 l 473 203 l 418 203 m 345 203 l 315 203 l 300 131 l 336 131 q 359 136 349 131 q 375 151 368 140 q 380 173 380 159 q 376 189 380 182 q 364 199 373 195 q 345 203 356 203 m 886 144 q 871 149 877 144 q 866 162 866 155 q 869 176 866 170 q 878 186 873 183 q 892 191 884 191 q 907 185 901 191 q 912 172 912 180 q 909 158 912 165 q 900 148 905 152 q 886 144 894 144 m 351 149 q 336 144 345 144 l 320 144 l 329 190 l 343 190 q 359 185 354 190 q 363 172 363 180 q 361 158 363 163 q 351 149 359 154 z "},"(":{"ha":1423,"x_min":26,"x_max":1398,"o":"m 869 401 q 938 452 888 429 q 910 387 922 408 q 885 361 899 366 q 859 367 863 353 q 869 401 855 380 m 392 570 q 418 555 410 600 q 419 498 424 519 l 419 497 q 392 530 401 507 q 392 570 382 553 m 1396 578 q 1386 533 1398 553 q 1392 516 1392 526 q 1375 465 1392 482 q 1327 430 1358 445 q 1268 415 1297 415 q 1219 431 1239 415 q 1202 449 1210 438 q 1125 412 1168 412 q 1092 418 1109 412 q 1091 415 1092 417 q 1090 413 1090 414 q 1068 323 1067 336 q 1067 303 1071 313 q 1055 288 1063 294 q 1038 283 1047 283 q 1017 292 1025 283 q 988 326 1000 306 q 956 292 973 304 q 894 269 924 269 q 840 302 868 269 q 817 336 827 315 q 810 371 809 350 q 808 372 810 372 q 807 374 807 373 q 782 368 796 368 q 722 407 746 368 q 716 419 718 414 q 714 421 715 420 q 712 424 713 423 l 709 401 q 692 374 707 383 q 677 370 686 370 q 661 374 669 370 q 659 376 661 375 q 655 378 657 376 q 650 381 652 379 q 643 379 650 381 l 639 378 q 631 378 635 378 q 578 406 597 378 q 536 380 559 382 q 532 380 534 380 q 528 380 529 380 q 477 404 494 380 q 399 358 445 358 q 340 382 366 358 q 343 356 340 372 q 329 324 347 335 q 312 319 321 319 q 294 325 301 319 l 292 327 q 287 331 290 328 q 280 336 284 333 q 272 345 277 340 q 263 355 268 349 q 254 368 259 361 q 244 384 249 376 q 225 411 232 399 q 231 351 220 370 q 230 320 239 336 q 203 304 221 304 q 144 333 169 304 q 100 417 106 378 q 83 411 91 411 q 72 413 77 411 q 38 444 49 422 q 28 480 26 465 q 29 489 28 482 q 37 508 31 495 q 53 532 43 520 q 83 556 63 544 q 129 576 103 569 q 156 662 144 633 q 173 696 168 690 q 187 705 178 701 q 200 707 193 707 q 264 668 227 707 q 268 663 267 665 q 317 756 284 701 q 374 787 336 787 q 425 774 399 787 q 449 746 433 770 q 465 713 465 722 q 451 685 467 695 q 432 667 444 680 q 470 635 455 654 q 476 618 475 628 l 477 618 q 479 616 479 617 q 499 643 489 634 q 555 665 522 665 q 610 640 592 665 q 625 641 615 641 q 684 768 646 706 q 741 798 703 798 q 791 785 766 798 q 808 758 807 777 l 808 756 q 930 759 851 759 l 985 759 q 1022 762 1004 759 q 1048 768 1040 765 l 1057 770 q 1068 772 1063 772 q 1091 763 1082 772 q 1104 744 1095 759 q 1114 729 1114 730 q 1121 694 1128 711 q 1113 680 1118 688 q 1141 656 1136 675 q 1141 648 1141 654 q 1155 650 1149 650 q 1199 631 1181 650 q 1225 656 1209 643 q 1290 678 1255 678 q 1375 629 1339 678 q 1396 578 1394 606 m 288 385 q 298 523 279 442 q 350 666 318 604 q 410 746 382 728 q 396 752 405 749 q 370 754 388 755 q 344 740 352 753 q 288 631 309 684 q 262 540 267 578 q 257 481 258 502 q 260 447 257 461 q 235 531 240 481 q 236 613 231 581 l 241 646 q 232 654 238 649 q 215 668 227 660 q 198 675 203 677 q 154 550 187 671 q 110 535 129 545 q 82 516 92 526 q 67 497 73 507 q 61 483 62 488 l 60 477 q 144 513 74 498 q 133 460 134 469 q 132 417 129 434 q 143 390 135 399 q 159 376 151 380 q 174 371 167 372 l 180 370 q 169 421 170 389 q 176 484 169 452 q 191 544 182 515 q 206 591 199 573 l 214 609 q 226 494 215 546 q 249 432 233 460 q 277 395 264 405 l 288 385 m 576 471 q 589 450 579 456 q 606 444 598 443 l 614 444 q 610 450 612 446 q 605 471 608 454 q 607 513 602 488 q 616 558 610 534 q 627 595 622 582 l 631 610 q 586 595 595 611 q 559 539 571 568 q 534 492 547 511 q 507 472 515 465 q 509 508 500 478 q 531 566 517 537 q 557 607 547 599 q 587 609 567 615 q 579 627 590 619 q 551 633 568 634 q 520 620 533 631 q 477 525 492 593 q 448 496 465 503 q 454 545 455 526 q 439 599 452 585 q 405 611 427 614 q 445 616 422 623 q 436 626 441 620 q 413 641 430 633 q 381 643 396 648 q 333 568 355 633 q 321 468 310 503 q 366 424 334 431 q 429 456 399 418 q 443 481 437 468 q 473 500 458 485 q 473 472 471 483 q 511 446 478 443 q 544 476 524 446 q 575 535 563 506 l 587 564 q 583 548 585 557 q 575 510 580 538 q 576 471 570 483 m 772 437 q 766 445 769 439 q 758 470 763 450 q 761 515 753 489 q 774 561 766 538 q 786 594 781 583 l 791 604 l 761 618 q 751 618 755 621 q 663 518 696 579 q 715 667 680 594 q 777 757 749 739 q 763 763 772 760 q 737 766 755 766 q 711 751 719 765 q 640 574 662 673 q 625 471 622 495 q 634 453 627 462 q 647 439 641 444 l 654 435 q 688 530 655 488 q 718 567 704 552 q 739 586 732 582 l 745 591 q 741 580 743 587 q 732 554 738 573 q 722 519 726 536 q 719 485 719 503 q 726 457 720 467 q 747 436 736 441 q 765 434 759 431 l 772 437 m 834 408 q 841 523 815 439 q 906 690 867 606 q 1005 692 993 691 q 1040 706 1025 694 q 1062 730 1056 718 l 1068 741 q 985 727 1035 728 q 933 727 968 727 q 876 726 898 726 q 830 725 854 726 q 792 723 805 724 q 756 707 772 720 q 735 681 741 693 l 730 669 q 800 686 740 681 q 858 688 812 686 q 829 612 856 682 q 793 500 803 542 q 791 465 789 480 q 801 439 793 450 q 815 421 808 428 q 829 411 823 414 l 834 408 m 1170 524 q 1188 571 1186 552 q 1183 598 1190 589 q 1137 614 1171 628 q 1104 594 1120 608 q 1080 567 1088 579 l 1071 555 q 1110 648 1108 648 l 1091 648 q 1059 631 1067 644 q 1019 519 1040 580 q 1017 514 1018 518 q 1015 509 1015 510 q 982 490 996 496 q 1003 550 989 514 q 1026 610 1017 587 l 1036 634 q 988 619 1000 632 q 966 587 986 616 q 927 536 945 557 q 903 521 909 516 q 902 529 901 523 q 908 546 903 536 q 919 567 913 556 q 931 590 924 578 q 943 611 937 602 q 952 626 948 620 l 956 632 q 942 631 950 632 q 919 624 935 631 q 897 607 903 618 q 866 504 852 522 q 883 497 871 497 q 910 504 895 496 q 938 528 926 512 l 983 588 q 945 473 962 521 q 919 457 936 467 q 895 443 902 448 q 878 429 888 439 q 858 408 867 420 q 842 372 844 390 q 847 344 840 354 q 873 335 855 334 q 914 352 892 336 q 941 384 929 363 q 959 418 954 404 q 977 473 964 432 q 1008 491 996 485 q 985 412 991 440 q 989 383 981 399 q 1005 358 996 368 l 1015 349 q 1037 456 1010 366 q 1073 542 1053 506 q 1115 587 1088 568 q 1150 600 1142 606 q 1151 580 1154 595 q 1141 551 1148 565 q 1107 509 1128 524 q 1073 493 1086 494 l 1059 492 q 1066 487 1061 490 q 1084 480 1070 484 q 1110 478 1097 477 q 1140 490 1123 479 q 1170 524 1156 502 m 1278 614 q 1308 630 1293 630 q 1321 618 1322 630 q 1303 589 1320 606 q 1283 578 1295 581 q 1263 577 1271 576 l 1256 578 q 1259 572 1257 576 q 1271 562 1261 568 q 1293 557 1280 556 q 1330 574 1318 558 q 1341 611 1343 590 q 1326 635 1341 625 q 1290 647 1312 646 q 1244 631 1269 648 q 1207 590 1222 615 q 1193 536 1192 565 q 1215 490 1193 508 q 1254 481 1232 477 q 1297 496 1276 485 q 1329 519 1317 507 q 1334 531 1332 524 q 1336 545 1336 539 l 1337 550 q 1283 507 1320 524 q 1235 506 1245 490 q 1240 555 1225 522 q 1278 614 1255 588 m 369 555 q 383 511 370 532 q 415 484 396 490 q 394 441 406 451 q 369 436 383 432 q 356 474 356 439 q 363 536 355 509 q 369 555 366 544 m 648 144 q 634 149 640 144 q 629 162 629 155 q 632 176 629 170 q 641 186 635 183 q 655 191 647 191 q 669 185 664 191 q 675 172 675 180 q 671 158 675 165 q 663 148 668 152 q 648 144 656 144 m 1152 94 l 243 94 l 272 243 l 1181 243 l 1152 94 m 1124 203 l 1061 203 l 1058 190 l 1081 190 l 1069 131 l 1086 131 l 1098 190 l 1121 190 l 1124 203 m 967 203 l 953 131 l 969 131 l 978 176 l 1005 131 l 1019 131 l 1034 203 l 1017 203 l 1008 158 l 981 203 l 967 203 m 871 199 q 854 183 860 192 q 849 161 849 174 q 853 144 849 152 q 865 134 857 138 q 884 130 873 130 q 907 136 897 130 q 924 151 918 142 q 929 173 929 160 q 925 190 929 183 q 913 201 921 197 q 894 205 905 205 q 871 199 881 205 m 777 203 l 763 131 l 780 131 l 785 157 l 819 157 l 821 171 l 787 171 l 791 190 l 829 190 l 832 203 l 777 203 m 633 199 q 617 183 623 192 q 612 161 612 174 q 616 144 612 152 q 628 134 620 138 q 647 130 636 130 q 670 136 660 130 q 686 151 681 142 q 692 173 692 160 q 688 190 692 183 q 675 201 684 197 q 656 205 667 205 q 633 199 644 205 m 520 203 l 507 203 l 492 131 l 508 131 l 517 174 l 532 138 l 539 138 l 566 174 l 558 131 l 574 131 l 588 203 l 574 203 l 538 158 l 520 203 m 418 203 l 404 131 l 460 131 l 463 144 l 424 144 l 427 161 l 460 161 l 463 174 l 429 174 l 433 190 l 471 190 l 473 203 l 418 203 m 345 203 l 315 203 l 300 131 l 336 131 q 359 136 349 131 q 375 151 368 140 q 380 173 380 159 q 376 189 380 182 q 364 199 373 195 q 345 203 356 203 m 886 144 q 871 149 877 144 q 866 162 866 155 q 869 176 866 170 q 878 186 873 183 q 892 191 884 191 q 907 185 901 191 q 912 172 912 180 q 909 158 912 165 q 900 148 905 152 q 886 144 894 144 m 351 149 q 336 144 345 144 l 320 144 l 329 190 l 343 190 q 359 185 354 190 q 363 172 363 180 q 361 158 363 163 q 351 149 359 154 z "},")":{"ha":1423,"x_min":26,"x_max":1398,"o":"m 869 401 q 938 452 888 429 q 910 387 922 408 q 885 361 899 366 q 859 367 863 353 q 869 401 855 380 m 392 570 q 418 555 410 600 q 419 498 424 519 l 419 497 q 392 530 401 507 q 392 570 382 553 m 1396 578 q 1386 533 1398 553 q 1392 516 1392 526 q 1375 465 1392 482 q 1327 430 1358 445 q 1268 415 1297 415 q 1219 431 1239 415 q 1202 449 1210 438 q 1125 412 1168 412 q 1092 418 1109 412 q 1091 415 1092 417 q 1090 413 1090 414 q 1068 323 1067 336 q 1067 303 1071 313 q 1055 288 1063 294 q 1038 283 1047 283 q 1017 292 1025 283 q 988 326 1000 306 q 956 292 973 304 q 894 269 924 269 q 840 302 868 269 q 817 336 827 315 q 810 371 809 350 q 808 372 810 372 q 807 374 807 373 q 782 368 796 368 q 722 407 746 368 q 716 419 718 414 q 714 421 715 420 q 712 424 713 423 l 709 401 q 692 374 707 383 q 677 370 686 370 q 661 374 669 370 q 659 376 661 375 q 655 378 657 376 q 650 381 652 379 q 643 379 650 381 l 639 378 q 631 378 635 378 q 578 406 597 378 q 536 380 559 382 q 532 380 534 380 q 528 380 529 380 q 477 404 494 380 q 399 358 445 358 q 340 382 366 358 q 343 356 340 372 q 329 324 347 335 q 312 319 321 319 q 294 325 301 319 l 292 327 q 287 331 290 328 q 280 336 284 333 q 272 345 277 340 q 263 355 268 349 q 254 368 259 361 q 244 384 249 376 q 225 411 232 399 q 231 351 220 370 q 230 320 239 336 q 203 304 221 304 q 144 333 169 304 q 100 417 106 378 q 83 411 91 411 q 72 413 77 411 q 38 444 49 422 q 28 480 26 465 q 29 489 28 482 q 37 508 31 495 q 53 532 43 520 q 83 556 63 544 q 129 576 103 569 q 156 662 144 633 q 173 696 168 690 q 187 705 178 701 q 200 707 193 707 q 264 668 227 707 q 268 663 267 665 q 317 756 284 701 q 374 787 336 787 q 425 774 399 787 q 449 746 433 770 q 465 713 465 722 q 451 685 467 695 q 432 667 444 680 q 470 635 455 654 q 476 618 475 628 l 477 618 q 479 616 479 617 q 499 643 489 634 q 555 665 522 665 q 610 640 592 665 q 625 641 615 641 q 684 768 646 706 q 741 798 703 798 q 791 785 766 798 q 808 758 807 777 l 808 756 q 930 759 851 759 l 985 759 q 1022 762 1004 759 q 1048 768 1040 765 l 1057 770 q 1068 772 1063 772 q 1091 763 1082 772 q 1104 744 1095 759 q 1114 729 1114 730 q 1121 694 1128 711 q 1113 680 1118 688 q 1141 656 1136 675 q 1141 648 1141 654 q 1155 650 1149 650 q 1199 631 1181 650 q 1225 656 1209 643 q 1290 678 1255 678 q 1375 629 1339 678 q 1396 578 1394 606 m 288 385 q 298 523 279 442 q 350 666 318 604 q 410 746 382 728 q 396 752 405 749 q 370 754 388 755 q 344 740 352 753 q 288 631 309 684 q 262 540 267 578 q 257 481 258 502 q 260 447 257 461 q 235 531 240 481 q 236 613 231 581 l 241 646 q 232 654 238 649 q 215 668 227 660 q 198 675 203 677 q 154 550 187 671 q 110 535 129 545 q 82 516 92 526 q 67 497 73 507 q 61 483 62 488 l 60 477 q 144 513 74 498 q 133 460 134 469 q 132 417 129 434 q 143 390 135 399 q 159 376 151 380 q 174 371 167 372 l 180 370 q 169 421 170 389 q 176 484 169 452 q 191 544 182 515 q 206 591 199 573 l 214 609 q 226 494 215 546 q 249 432 233 460 q 277 395 264 405 l 288 385 m 576 471 q 589 450 579 456 q 606 444 598 443 l 614 444 q 610 450 612 446 q 605 471 608 454 q 607 513 602 488 q 616 558 610 534 q 627 595 622 582 l 631 610 q 586 595 595 611 q 559 539 571 568 q 534 492 547 511 q 507 472 515 465 q 509 508 500 478 q 531 566 517 537 q 557 607 547 599 q 587 609 567 615 q 579 627 590 619 q 551 633 568 634 q 520 620 533 631 q 477 525 492 593 q 448 496 465 503 q 454 545 455 526 q 439 599 452 585 q 405 611 427 614 q 445 616 422 623 q 436 626 441 620 q 413 641 430 633 q 381 643 396 648 q 333 568 355 633 q 321 468 310 503 q 366 424 334 431 q 429 456 399 418 q 443 481 437 468 q 473 500 458 485 q 473 472 471 483 q 511 446 478 443 q 544 476 524 446 q 575 535 563 506 l 587 564 q 583 548 585 557 q 575 510 580 538 q 576 471 570 483 m 772 437 q 766 445 769 439 q 758 470 763 450 q 761 515 753 489 q 774 561 766 538 q 786 594 781 583 l 791 604 l 761 618 q 751 618 755 621 q 663 518 696 579 q 715 667 680 594 q 777 757 749 739 q 763 763 772 760 q 737 766 755 766 q 711 751 719 765 q 640 574 662 673 q 625 471 622 495 q 634 453 627 462 q 647 439 641 444 l 654 435 q 688 530 655 488 q 718 567 704 552 q 739 586 732 582 l 745 591 q 741 580 743 587 q 732 554 738 573 q 722 519 726 536 q 719 485 719 503 q 726 457 720 467 q 747 436 736 441 q 765 434 759 431 l 772 437 m 834 408 q 841 523 815 439 q 906 690 867 606 q 1005 692 993 691 q 1040 706 1025 694 q 1062 730 1056 718 l 1068 741 q 985 727 1035 728 q 933 727 968 727 q 876 726 898 726 q 830 725 854 726 q 792 723 805 724 q 756 707 772 720 q 735 681 741 693 l 730 669 q 800 686 740 681 q 858 688 812 686 q 829 612 856 682 q 793 500 803 542 q 791 465 789 480 q 801 439 793 450 q 815 421 808 428 q 829 411 823 414 l 834 408 m 1170 524 q 1188 571 1186 552 q 1183 598 1190 589 q 1137 614 1171 628 q 1104 594 1120 608 q 1080 567 1088 579 l 1071 555 q 1110 648 1108 648 l 1091 648 q 1059 631 1067 644 q 1019 519 1040 580 q 1017 514 1018 518 q 1015 509 1015 510 q 982 490 996 496 q 1003 550 989 514 q 1026 610 1017 587 l 1036 634 q 988 619 1000 632 q 966 587 986 616 q 927 536 945 557 q 903 521 909 516 q 902 529 901 523 q 908 546 903 536 q 919 567 913 556 q 931 590 924 578 q 943 611 937 602 q 952 626 948 620 l 956 632 q 942 631 950 632 q 919 624 935 631 q 897 607 903 618 q 866 504 852 522 q 883 497 871 497 q 910 504 895 496 q 938 528 926 512 l 983 588 q 945 473 962 521 q 919 457 936 467 q 895 443 902 448 q 878 429 888 439 q 858 408 867 420 q 842 372 844 390 q 847 344 840 354 q 873 335 855 334 q 914 352 892 336 q 941 384 929 363 q 959 418 954 404 q 977 473 964 432 q 1008 491 996 485 q 985 412 991 440 q 989 383 981 399 q 1005 358 996 368 l 1015 349 q 1037 456 1010 366 q 1073 542 1053 506 q 1115 587 1088 568 q 1150 600 1142 606 q 1151 580 1154 595 q 1141 551 1148 565 q 1107 509 1128 524 q 1073 493 1086 494 l 1059 492 q 1066 487 1061 490 q 1084 480 1070 484 q 1110 478 1097 477 q 1140 490 1123 479 q 1170 524 1156 502 m 1278 614 q 1308 630 1293 630 q 1321 618 1322 630 q 1303 589 1320 606 q 1283 578 1295 581 q 1263 577 1271 576 l 1256 578 q 1259 572 1257 576 q 1271 562 1261 568 q 1293 557 1280 556 q 1330 574 1318 558 q 1341 611 1343 590 q 1326 635 1341 625 q 1290 647 1312 646 q 1244 631 1269 648 q 1207 590 1222 615 q 1193 536 1192 565 q 1215 490 1193 508 q 1254 481 1232 477 q 1297 496 1276 485 q 1329 519 1317 507 q 1334 531 1332 524 q 1336 545 1336 539 l 1337 550 q 1283 507 1320 524 q 1235 506 1245 490 q 1240 555 1225 522 q 1278 614 1255 588 m 369 555 q 383 511 370 532 q 415 484 396 490 q 394 441 406 451 q 369 436 383 432 q 356 474 356 439 q 363 536 355 509 q 369 555 366 544 m 648 144 q 634 149 640 144 q 629 162 629 155 q 632 176 629 170 q 641 186 635 183 q 655 191 647 191 q 669 185 664 191 q 675 172 675 180 q 671 158 675 165 q 663 148 668 152 q 648 144 656 144 m 1152 94 l 243 94 l 272 243 l 1181 243 l 1152 94 m 1124 203 l 1061 203 l 1058 190 l 1081 190 l 1069 131 l 1086 131 l 1098 190 l 1121 190 l 1124 203 m 967 203 l 953 131 l 969 131 l 978 176 l 1005 131 l 1019 131 l 1034 203 l 1017 203 l 1008 158 l 981 203 l 967 203 m 871 199 q 854 183 860 192 q 849 161 849 174 q 853 144 849 152 q 865 134 857 138 q 884 130 873 130 q 907 136 897 130 q 924 151 918 142 q 929 173 929 160 q 925 190 929 183 q 913 201 921 197 q 894 205 905 205 q 871 199 881 205 m 777 203 l 763 131 l 780 131 l 785 157 l 819 157 l 821 171 l 787 171 l 791 190 l 829 190 l 832 203 l 777 203 m 633 199 q 617 183 623 192 q 612 161 612 174 q 616 144 612 152 q 628 134 620 138 q 647 130 636 130 q 670 136 660 130 q 686 151 681 142 q 692 173 692 160 q 688 190 692 183 q 675 201 684 197 q 656 205 667 205 q 633 199 644 205 m 520 203 l 507 203 l 492 131 l 508 131 l 517 174 l 532 138 l 539 138 l 566 174 l 558 131 l 574 131 l 588 203 l 574 203 l 538 158 l 520 203 m 418 203 l 404 131 l 460 131 l 463 144 l 424 144 l 427 161 l 460 161 l 463 174 l 429 174 l 433 190 l 471 190 l 473 203 l 418 203 m 345 203 l 315 203 l 300 131 l 336 131 q 359 136 349 131 q 375 151 368 140 q 380 173 380 159 q 376 189 380 182 q 364 199 373 195 q 345 203 356 203 m 886 144 q 871 149 877 144 q 866 162 866 155 q 869 176 866 170 q 878 186 873 183 q 892 191 884 191 q 907 185 901 191 q 912 172 912 180 q 909 158 912 165 q 900 148 905 152 q 886 144 894 144 m 351 149 q 336 144 345 144 l 320 144 l 329 190 l 343 190 q 359 185 354 190 q 363 172 363 180 q 361 158 363 163 q 351 149 359 154 z "},"*":{"ha":1423,"x_min":26,"x_max":1398,"o":"m 869 401 q 938 452 888 429 q 910 387 922 408 q 885 361 899 366 q 859 367 863 353 q 869 401 855 380 m 392 570 q 418 555 410 600 q 419 498 424 519 l 419 497 q 392 530 401 507 q 392 570 382 553 m 1396 578 q 1386 533 1398 553 q 1392 516 1392 526 q 1375 465 1392 482 q 1327 430 1358 445 q 1268 415 1297 415 q 1219 431 1239 415 q 1202 449 1210 438 q 1125 412 1168 412 q 1092 418 1109 412 q 1091 415 1092 417 q 1090 413 1090 414 q 1068 323 1067 336 q 1067 303 1071 313 q 1055 288 1063 294 q 1038 283 1047 283 q 1017 292 1025 283 q 988 326 1000 306 q 956 292 973 304 q 894 269 924 269 q 840 302 868 269 q 817 336 827 315 q 810 371 809 350 q 808 372 810 372 q 807 374 807 373 q 782 368 796 368 q 722 407 746 368 q 716 419 718 414 q 714 421 715 420 q 712 424 713 423 l 709 401 q 692 374 707 383 q 677 370 686 370 q 661 374 669 370 q 659 376 661 375 q 655 378 657 376 q 650 381 652 379 q 643 379 650 381 l 639 378 q 631 378 635 378 q 578 406 597 378 q 536 380 559 382 q 532 380 534 380 q 528 380 529 380 q 477 404 494 380 q 399 358 445 358 q 340 382 366 358 q 343 356 340 372 q 329 324 347 335 q 312 319 321 319 q 294 325 301 319 l 292 327 q 287 331 290 328 q 280 336 284 333 q 272 345 277 340 q 263 355 268 349 q 254 368 259 361 q 244 384 249 376 q 225 411 232 399 q 231 351 220 370 q 230 320 239 336 q 203 304 221 304 q 144 333 169 304 q 100 417 106 378 q 83 411 91 411 q 72 413 77 411 q 38 444 49 422 q 28 480 26 465 q 29 489 28 482 q 37 508 31 495 q 53 532 43 520 q 83 556 63 544 q 129 576 103 569 q 156 662 144 633 q 173 696 168 690 q 187 705 178 701 q 200 707 193 707 q 264 668 227 707 q 268 663 267 665 q 317 756 284 701 q 374 787 336 787 q 425 774 399 787 q 449 746 433 770 q 465 713 465 722 q 451 685 467 695 q 432 667 444 680 q 470 635 455 654 q 476 618 475 628 l 477 618 q 479 616 479 617 q 499 643 489 634 q 555 665 522 665 q 610 640 592 665 q 625 641 615 641 q 684 768 646 706 q 741 798 703 798 q 791 785 766 798 q 808 758 807 777 l 808 756 q 930 759 851 759 l 985 759 q 1022 762 1004 759 q 1048 768 1040 765 l 1057 770 q 1068 772 1063 772 q 1091 763 1082 772 q 1104 744 1095 759 q 1114 729 1114 730 q 1121 694 1128 711 q 1113 680 1118 688 q 1141 656 1136 675 q 1141 648 1141 654 q 1155 650 1149 650 q 1199 631 1181 650 q 1225 656 1209 643 q 1290 678 1255 678 q 1375 629 1339 678 q 1396 578 1394 606 m 288 385 q 298 523 279 442 q 350 666 318 604 q 410 746 382 728 q 396 752 405 749 q 370 754 388 755 q 344 740 352 753 q 288 631 309 684 q 262 540 267 578 q 257 481 258 502 q 260 447 257 461 q 235 531 240 481 q 236 613 231 581 l 241 646 q 232 654 238 649 q 215 668 227 660 q 198 675 203 677 q 154 550 187 671 q 110 535 129 545 q 82 516 92 526 q 67 497 73 507 q 61 483 62 488 l 60 477 q 144 513 74 498 q 133 460 134 469 q 132 417 129 434 q 143 390 135 399 q 159 376 151 380 q 174 371 167 372 l 180 370 q 169 421 170 389 q 176 484 169 452 q 191 544 182 515 q 206 591 199 573 l 214 609 q 226 494 215 546 q 249 432 233 460 q 277 395 264 405 l 288 385 m 576 471 q 589 450 579 456 q 606 444 598 443 l 614 444 q 610 450 612 446 q 605 471 608 454 q 607 513 602 488 q 616 558 610 534 q 627 595 622 582 l 631 610 q 586 595 595 611 q 559 539 571 568 q 534 492 547 511 q 507 472 515 465 q 509 508 500 478 q 531 566 517 537 q 557 607 547 599 q 587 609 567 615 q 579 627 590 619 q 551 633 568 634 q 520 620 533 631 q 477 525 492 593 q 448 496 465 503 q 454 545 455 526 q 439 599 452 585 q 405 611 427 614 q 445 616 422 623 q 436 626 441 620 q 413 641 430 633 q 381 643 396 648 q 333 568 355 633 q 321 468 310 503 q 366 424 334 431 q 429 456 399 418 q 443 481 437 468 q 473 500 458 485 q 473 472 471 483 q 511 446 478 443 q 544 476 524 446 q 575 535 563 506 l 587 564 q 583 548 585 557 q 575 510 580 538 q 576 471 570 483 m 772 437 q 766 445 769 439 q 758 470 763 450 q 761 515 753 489 q 774 561 766 538 q 786 594 781 583 l 791 604 l 761 618 q 751 618 755 621 q 663 518 696 579 q 715 667 680 594 q 777 757 749 739 q 763 763 772 760 q 737 766 755 766 q 711 751 719 765 q 640 574 662 673 q 625 471 622 495 q 634 453 627 462 q 647 439 641 444 l 654 435 q 688 530 655 488 q 718 567 704 552 q 739 586 732 582 l 745 591 q 741 580 743 587 q 732 554 738 573 q 722 519 726 536 q 719 485 719 503 q 726 457 720 467 q 747 436 736 441 q 765 434 759 431 l 772 437 m 834 408 q 841 523 815 439 q 906 690 867 606 q 1005 692 993 691 q 1040 706 1025 694 q 1062 730 1056 718 l 1068 741 q 985 727 1035 728 q 933 727 968 727 q 876 726 898 726 q 830 725 854 726 q 792 723 805 724 q 756 707 772 720 q 735 681 741 693 l 730 669 q 800 686 740 681 q 858 688 812 686 q 829 612 856 682 q 793 500 803 542 q 791 465 789 480 q 801 439 793 450 q 815 421 808 428 q 829 411 823 414 l 834 408 m 1170 524 q 1188 571 1186 552 q 1183 598 1190 589 q 1137 614 1171 628 q 1104 594 1120 608 q 1080 567 1088 579 l 1071 555 q 1110 648 1108 648 l 1091 648 q 1059 631 1067 644 q 1019 519 1040 580 q 1017 514 1018 518 q 1015 509 1015 510 q 982 490 996 496 q 1003 550 989 514 q 1026 610 1017 587 l 1036 634 q 988 619 1000 632 q 966 587 986 616 q 927 536 945 557 q 903 521 909 516 q 902 529 901 523 q 908 546 903 536 q 919 567 913 556 q 931 590 924 578 q 943 611 937 602 q 952 626 948 620 l 956 632 q 942 631 950 632 q 919 624 935 631 q 897 607 903 618 q 866 504 852 522 q 883 497 871 497 q 910 504 895 496 q 938 528 926 512 l 983 588 q 945 473 962 521 q 919 457 936 467 q 895 443 902 448 q 878 429 888 439 q 858 408 867 420 q 842 372 844 390 q 847 344 840 354 q 873 335 855 334 q 914 352 892 336 q 941 384 929 363 q 959 418 954 404 q 977 473 964 432 q 1008 491 996 485 q 985 412 991 440 q 989 383 981 399 q 1005 358 996 368 l 1015 349 q 1037 456 1010 366 q 1073 542 1053 506 q 1115 587 1088 568 q 1150 600 1142 606 q 1151 580 1154 595 q 1141 551 1148 565 q 1107 509 1128 524 q 1073 493 1086 494 l 1059 492 q 1066 487 1061 490 q 1084 480 1070 484 q 1110 478 1097 477 q 1140 490 1123 479 q 1170 524 1156 502 m 1278 614 q 1308 630 1293 630 q 1321 618 1322 630 q 1303 589 1320 606 q 1283 578 1295 581 q 1263 577 1271 576 l 1256 578 q 1259 572 1257 576 q 1271 562 1261 568 q 1293 557 1280 556 q 1330 574 1318 558 q 1341 611 1343 590 q 1326 635 1341 625 q 1290 647 1312 646 q 1244 631 1269 648 q 1207 590 1222 615 q 1193 536 1192 565 q 1215 490 1193 508 q 1254 481 1232 477 q 1297 496 1276 485 q 1329 519 1317 507 q 1334 531 1332 524 q 1336 545 1336 539 l 1337 550 q 1283 507 1320 524 q 1235 506 1245 490 q 1240 555 1225 522 q 1278 614 1255 588 m 369 555 q 383 511 370 532 q 415 484 396 490 q 394 441 406 451 q 369 436 383 432 q 356 474 356 439 q 363 536 355 509 q 369 555 366 544 m 648 144 q 634 149 640 144 q 629 162 629 155 q 632 176 629 170 q 641 186 635 183 q 655 191 647 191 q 669 185 664 191 q 675 172 675 180 q 671 158 675 165 q 663 148 668 152 q 648 144 656 144 m 1152 94 l 243 94 l 272 243 l 1181 243 l 1152 94 m 1124 203 l 1061 203 l 1058 190 l 1081 190 l 1069 131 l 1086 131 l 1098 190 l 1121 190 l 1124 203 m 967 203 l 953 131 l 969 131 l 978 176 l 1005 131 l 1019 131 l 1034 203 l 1017 203 l 1008 158 l 981 203 l 967 203 m 871 199 q 854 183 860 192 q 849 161 849 174 q 853 144 849 152 q 865 134 857 138 q 884 130 873 130 q 907 136 897 130 q 924 151 918 142 q 929 173 929 160 q 925 190 929 183 q 913 201 921 197 q 894 205 905 205 q 871 199 881 205 m 777 203 l 763 131 l 780 131 l 785 157 l 819 157 l 821 171 l 787 171 l 791 190 l 829 190 l 832 203 l 777 203 m 633 199 q 617 183 623 192 q 612 161 612 174 q 616 144 612 152 q 628 134 620 138 q 647 130 636 130 q 670 136 660 130 q 686 151 681 142 q 692 173 692 160 q 688 190 692 183 q 675 201 684 197 q 656 205 667 205 q 633 199 644 205 m 520 203 l 507 203 l 492 131 l 508 131 l 517 174 l 532 138 l 539 138 l 566 174 l 558 131 l 574 131 l 588 203 l 574 203 l 538 158 l 520 203 m 418 203 l 404 131 l 460 131 l 463 144 l 424 144 l 427 161 l 460 161 l 463 174 l 429 174 l 433 190 l 471 190 l 473 203 l 418 203 m 345 203 l 315 203 l 300 131 l 336 131 q 359 136 349 131 q 375 151 368 140 q 380 173 380 159 q 376 189 380 182 q 364 199 373 195 q 345 203 356 203 m 886 144 q 871 149 877 144 q 866 162 866 155 q 869 176 866 170 q 878 186 873 183 q 892 191 884 191 q 907 185 901 191 q 912 172 912 180 q 909 158 912 165 q 900 148 905 152 q 886 144 894 144 m 351 149 q 336 144 345 144 l 320 144 l 329 190 l 343 190 q 359 185 354 190 q 363 172 363 180 q 361 158 363 163 q 351 149 359 154 z "},"+":{"ha":1423,"x_min":26,"x_max":1398,"o":"m 869 401 q 938 452 888 429 q 910 387 922 408 q 885 361 899 366 q 859 367 863 353 q 869 401 855 380 m 392 570 q 418 555 410 600 q 419 498 424 519 l 419 497 q 392 530 401 507 q 392 570 382 553 m 1396 578 q 1386 533 1398 553 q 1392 516 1392 526 q 1375 465 1392 482 q 1327 430 1358 445 q 1268 415 1297 415 q 1219 431 1239 415 q 1202 449 1210 438 q 1125 412 1168 412 q 1092 418 1109 412 q 1091 415 1092 417 q 1090 413 1090 414 q 1068 323 1067 336 q 1067 303 1071 313 q 1055 288 1063 294 q 1038 283 1047 283 q 1017 292 1025 283 q 988 326 1000 306 q 956 292 973 304 q 894 269 924 269 q 840 302 868 269 q 817 336 827 315 q 810 371 809 350 q 808 372 810 372 q 807 374 807 373 q 782 368 796 368 q 722 407 746 368 q 716 419 718 414 q 714 421 715 420 q 712 424 713 423 l 709 401 q 692 374 707 383 q 677 370 686 370 q 661 374 669 370 q 659 376 661 375 q 655 378 657 376 q 650 381 652 379 q 643 379 650 381 l 639 378 q 631 378 635 378 q 578 406 597 378 q 536 380 559 382 q 532 380 534 380 q 528 380 529 380 q 477 404 494 380 q 399 358 445 358 q 340 382 366 358 q 343 356 340 372 q 329 324 347 335 q 312 319 321 319 q 294 325 301 319 l 292 327 q 287 331 290 328 q 280 336 284 333 q 272 345 277 340 q 263 355 268 349 q 254 368 259 361 q 244 384 249 376 q 225 411 232 399 q 231 351 220 370 q 230 320 239 336 q 203 304 221 304 q 144 333 169 304 q 100 417 106 378 q 83 411 91 411 q 72 413 77 411 q 38 444 49 422 q 28 480 26 465 q 29 489 28 482 q 37 508 31 495 q 53 532 43 520 q 83 556 63 544 q 129 576 103 569 q 156 662 144 633 q 173 696 168 690 q 187 705 178 701 q 200 707 193 707 q 264 668 227 707 q 268 663 267 665 q 317 756 284 701 q 374 787 336 787 q 425 774 399 787 q 449 746 433 770 q 465 713 465 722 q 451 685 467 695 q 432 667 444 680 q 470 635 455 654 q 476 618 475 628 l 477 618 q 479 616 479 617 q 499 643 489 634 q 555 665 522 665 q 610 640 592 665 q 625 641 615 641 q 684 768 646 706 q 741 798 703 798 q 791 785 766 798 q 808 758 807 777 l 808 756 q 930 759 851 759 l 985 759 q 1022 762 1004 759 q 1048 768 1040 765 l 1057 770 q 1068 772 1063 772 q 1091 763 1082 772 q 1104 744 1095 759 q 1114 729 1114 730 q 1121 694 1128 711 q 1113 680 1118 688 q 1141 656 1136 675 q 1141 648 1141 654 q 1155 650 1149 650 q 1199 631 1181 650 q 1225 656 1209 643 q 1290 678 1255 678 q 1375 629 1339 678 q 1396 578 1394 606 m 288 385 q 298 523 279 442 q 350 666 318 604 q 410 746 382 728 q 396 752 405 749 q 370 754 388 755 q 344 740 352 753 q 288 631 309 684 q 262 540 267 578 q 257 481 258 502 q 260 447 257 461 q 235 531 240 481 q 236 613 231 581 l 241 646 q 232 654 238 649 q 215 668 227 660 q 198 675 203 677 q 154 550 187 671 q 110 535 129 545 q 82 516 92 526 q 67 497 73 507 q 61 483 62 488 l 60 477 q 144 513 74 498 q 133 460 134 469 q 132 417 129 434 q 143 390 135 399 q 159 376 151 380 q 174 371 167 372 l 180 370 q 169 421 170 389 q 176 484 169 452 q 191 544 182 515 q 206 591 199 573 l 214 609 q 226 494 215 546 q 249 432 233 460 q 277 395 264 405 l 288 385 m 576 471 q 589 450 579 456 q 606 444 598 443 l 614 444 q 610 450 612 446 q 605 471 608 454 q 607 513 602 488 q 616 558 610 534 q 627 595 622 582 l 631 610 q 586 595 595 611 q 559 539 571 568 q 534 492 547 511 q 507 472 515 465 q 509 508 500 478 q 531 566 517 537 q 557 607 547 599 q 587 609 567 615 q 579 627 590 619 q 551 633 568 634 q 520 620 533 631 q 477 525 492 593 q 448 496 465 503 q 454 545 455 526 q 439 599 452 585 q 405 611 427 614 q 445 616 422 623 q 436 626 441 620 q 413 641 430 633 q 381 643 396 648 q 333 568 355 633 q 321 468 310 503 q 366 424 334 431 q 429 456 399 418 q 443 481 437 468 q 473 500 458 485 q 473 472 471 483 q 511 446 478 443 q 544 476 524 446 q 575 535 563 506 l 587 564 q 583 548 585 557 q 575 510 580 538 q 576 471 570 483 m 772 437 q 766 445 769 439 q 758 470 763 450 q 761 515 753 489 q 774 561 766 538 q 786 594 781 583 l 791 604 l 761 618 q 751 618 755 621 q 663 518 696 579 q 715 667 680 594 q 777 757 749 739 q 763 763 772 760 q 737 766 755 766 q 711 751 719 765 q 640 574 662 673 q 625 471 622 495 q 634 453 627 462 q 647 439 641 444 l 654 435 q 688 530 655 488 q 718 567 704 552 q 739 586 732 582 l 745 591 q 741 580 743 587 q 732 554 738 573 q 722 519 726 536 q 719 485 719 503 q 726 457 720 467 q 747 436 736 441 q 765 434 759 431 l 772 437 m 834 408 q 841 523 815 439 q 906 690 867 606 q 1005 692 993 691 q 1040 706 1025 694 q 1062 730 1056 718 l 1068 741 q 985 727 1035 728 q 933 727 968 727 q 876 726 898 726 q 830 725 854 726 q 792 723 805 724 q 756 707 772 720 q 735 681 741 693 l 730 669 q 800 686 740 681 q 858 688 812 686 q 829 612 856 682 q 793 500 803 542 q 791 465 789 480 q 801 439 793 450 q 815 421 808 428 q 829 411 823 414 l 834 408 m 1170 524 q 1188 571 1186 552 q 1183 598 1190 589 q 1137 614 1171 628 q 1104 594 1120 608 q 1080 567 1088 579 l 1071 555 q 1110 648 1108 648 l 1091 648 q 1059 631 1067 644 q 1019 519 1040 580 q 1017 514 1018 518 q 1015 509 1015 510 q 982 490 996 496 q 1003 550 989 514 q 1026 610 1017 587 l 1036 634 q 988 619 1000 632 q 966 587 986 616 q 927 536 945 557 q 903 521 909 516 q 902 529 901 523 q 908 546 903 536 q 919 567 913 556 q 931 590 924 578 q 943 611 937 602 q 952 626 948 620 l 956 632 q 942 631 950 632 q 919 624 935 631 q 897 607 903 618 q 866 504 852 522 q 883 497 871 497 q 910 504 895 496 q 938 528 926 512 l 983 588 q 945 473 962 521 q 919 457 936 467 q 895 443 902 448 q 878 429 888 439 q 858 408 867 420 q 842 372 844 390 q 847 344 840 354 q 873 335 855 334 q 914 352 892 336 q 941 384 929 363 q 959 418 954 404 q 977 473 964 432 q 1008 491 996 485 q 985 412 991 440 q 989 383 981 399 q 1005 358 996 368 l 1015 349 q 1037 456 1010 366 q 1073 542 1053 506 q 1115 587 1088 568 q 1150 600 1142 606 q 1151 580 1154 595 q 1141 551 1148 565 q 1107 509 1128 524 q 1073 493 1086 494 l 1059 492 q 1066 487 1061 490 q 1084 480 1070 484 q 1110 478 1097 477 q 1140 490 1123 479 q 1170 524 1156 502 m 1278 614 q 1308 630 1293 630 q 1321 618 1322 630 q 1303 589 1320 606 q 1283 578 1295 581 q 1263 577 1271 576 l 1256 578 q 1259 572 1257 576 q 1271 562 1261 568 q 1293 557 1280 556 q 1330 574 1318 558 q 1341 611 1343 590 q 1326 635 1341 625 q 1290 647 1312 646 q 1244 631 1269 648 q 1207 590 1222 615 q 1193 536 1192 565 q 1215 490 1193 508 q 1254 481 1232 477 q 1297 496 1276 485 q 1329 519 1317 507 q 1334 531 1332 524 q 1336 545 1336 539 l 1337 550 q 1283 507 1320 524 q 1235 506 1245 490 q 1240 555 1225 522 q 1278 614 1255 588 m 369 555 q 383 511 370 532 q 415 484 396 490 q 394 441 406 451 q 369 436 383 432 q 356 474 356 439 q 363 536 355 509 q 369 555 366 544 m 648 144 q 634 149 640 144 q 629 162 629 155 q 632 176 629 170 q 641 186 635 183 q 655 191 647 191 q 669 185 664 191 q 675 172 675 180 q 671 158 675 165 q 663 148 668 152 q 648 144 656 144 m 1152 94 l 243 94 l 272 243 l 1181 243 l 1152 94 m 1124 203 l 1061 203 l 1058 190 l 1081 190 l 1069 131 l 1086 131 l 1098 190 l 1121 190 l 1124 203 m 967 203 l 953 131 l 969 131 l 978 176 l 1005 131 l 1019 131 l 1034 203 l 1017 203 l 1008 158 l 981 203 l 967 203 m 871 199 q 854 183 860 192 q 849 161 849 174 q 853 144 849 152 q 865 134 857 138 q 884 130 873 130 q 907 136 897 130 q 924 151 918 142 q 929 173 929 160 q 925 190 929 183 q 913 201 921 197 q 894 205 905 205 q 871 199 881 205 m 777 203 l 763 131 l 780 131 l 785 157 l 819 157 l 821 171 l 787 171 l 791 190 l 829 190 l 832 203 l 777 203 m 633 199 q 617 183 623 192 q 612 161 612 174 q 616 144 612 152 q 628 134 620 138 q 647 130 636 130 q 670 136 660 130 q 686 151 681 142 q 692 173 692 160 q 688 190 692 183 q 675 201 684 197 q 656 205 667 205 q 633 199 644 205 m 520 203 l 507 203 l 492 131 l 508 131 l 517 174 l 532 138 l 539 138 l 566 174 l 558 131 l 574 131 l 588 203 l 574 203 l 538 158 l 520 203 m 418 203 l 404 131 l 460 131 l 463 144 l 424 144 l 427 161 l 460 161 l 463 174 l 429 174 l 433 190 l 471 190 l 473 203 l 418 203 m 345 203 l 315 203 l 300 131 l 336 131 q 359 136 349 131 q 375 151 368 140 q 380 173 380 159 q 376 189 380 182 q 364 199 373 195 q 345 203 356 203 m 886 144 q 871 149 877 144 q 866 162 866 155 q 869 176 866 170 q 878 186 873 183 q 892 191 884 191 q 907 185 901 191 q 912 172 912 180 q 909 158 912 165 q 900 148 905 152 q 886 144 894 144 m 351 149 q 336 144 345 144 l 320 144 l 329 190 l 343 190 q 359 185 354 190 q 363 172 363 180 q 361 158 363 163 q 351 149 359 154 z "},",":{"ha":1423,"x_min":26,"x_max":1398,"o":"m 869 401 q 938 452 888 429 q 910 387 922 408 q 885 361 899 366 q 859 367 863 353 q 869 401 855 380 m 392 570 q 418 555 410 600 q 419 498 424 519 l 419 497 q 392 530 401 507 q 392 570 382 553 m 1396 578 q 1386 533 1398 553 q 1392 516 1392 526 q 1375 465 1392 482 q 1327 430 1358 445 q 1268 415 1297 415 q 1219 431 1239 415 q 1202 449 1210 438 q 1125 412 1168 412 q 1092 418 1109 412 q 1091 415 1092 417 q 1090 413 1090 414 q 1068 323 1067 336 q 1067 303 1071 313 q 1055 288 1063 294 q 1038 283 1047 283 q 1017 292 1025 283 q 988 326 1000 306 q 956 292 973 304 q 894 269 924 269 q 840 302 868 269 q 817 336 827 315 q 810 371 809 350 q 808 372 810 372 q 807 374 807 373 q 782 368 796 368 q 722 407 746 368 q 716 419 718 414 q 714 421 715 420 q 712 424 713 423 l 709 401 q 692 374 707 383 q 677 370 686 370 q 661 374 669 370 q 659 376 661 375 q 655 378 657 376 q 650 381 652 379 q 643 379 650 381 l 639 378 q 631 378 635 378 q 578 406 597 378 q 536 380 559 382 q 532 380 534 380 q 528 380 529 380 q 477 404 494 380 q 399 358 445 358 q 340 382 366 358 q 343 356 340 372 q 329 324 347 335 q 312 319 321 319 q 294 325 301 319 l 292 327 q 287 331 290 328 q 280 336 284 333 q 272 345 277 340 q 263 355 268 349 q 254 368 259 361 q 244 384 249 376 q 225 411 232 399 q 231 351 220 370 q 230 320 239 336 q 203 304 221 304 q 144 333 169 304 q 100 417 106 378 q 83 411 91 411 q 72 413 77 411 q 38 444 49 422 q 28 480 26 465 q 29 489 28 482 q 37 508 31 495 q 53 532 43 520 q 83 556 63 544 q 129 576 103 569 q 156 662 144 633 q 173 696 168 690 q 187 705 178 701 q 200 707 193 707 q 264 668 227 707 q 268 663 267 665 q 317 756 284 701 q 374 787 336 787 q 425 774 399 787 q 449 746 433 770 q 465 713 465 722 q 451 685 467 695 q 432 667 444 680 q 470 635 455 654 q 476 618 475 628 l 477 618 q 479 616 479 617 q 499 643 489 634 q 555 665 522 665 q 610 640 592 665 q 625 641 615 641 q 684 768 646 706 q 741 798 703 798 q 791 785 766 798 q 808 758 807 777 l 808 756 q 930 759 851 759 l 985 759 q 1022 762 1004 759 q 1048 768 1040 765 l 1057 770 q 1068 772 1063 772 q 1091 763 1082 772 q 1104 744 1095 759 q 1114 729 1114 730 q 1121 694 1128 711 q 1113 680 1118 688 q 1141 656 1136 675 q 1141 648 1141 654 q 1155 650 1149 650 q 1199 631 1181 650 q 1225 656 1209 643 q 1290 678 1255 678 q 1375 629 1339 678 q 1396 578 1394 606 m 288 385 q 298 523 279 442 q 350 666 318 604 q 410 746 382 728 q 396 752 405 749 q 370 754 388 755 q 344 740 352 753 q 288 631 309 684 q 262 540 267 578 q 257 481 258 502 q 260 447 257 461 q 235 531 240 481 q 236 613 231 581 l 241 646 q 232 654 238 649 q 215 668 227 660 q 198 675 203 677 q 154 550 187 671 q 110 535 129 545 q 82 516 92 526 q 67 497 73 507 q 61 483 62 488 l 60 477 q 144 513 74 498 q 133 460 134 469 q 132 417 129 434 q 143 390 135 399 q 159 376 151 380 q 174 371 167 372 l 180 370 q 169 421 170 389 q 176 484 169 452 q 191 544 182 515 q 206 591 199 573 l 214 609 q 226 494 215 546 q 249 432 233 460 q 277 395 264 405 l 288 385 m 576 471 q 589 450 579 456 q 606 444 598 443 l 614 444 q 610 450 612 446 q 605 471 608 454 q 607 513 602 488 q 616 558 610 534 q 627 595 622 582 l 631 610 q 586 595 595 611 q 559 539 571 568 q 534 492 547 511 q 507 472 515 465 q 509 508 500 478 q 531 566 517 537 q 557 607 547 599 q 587 609 567 615 q 579 627 590 619 q 551 633 568 634 q 520 620 533 631 q 477 525 492 593 q 448 496 465 503 q 454 545 455 526 q 439 599 452 585 q 405 611 427 614 q 445 616 422 623 q 436 626 441 620 q 413 641 430 633 q 381 643 396 648 q 333 568 355 633 q 321 468 310 503 q 366 424 334 431 q 429 456 399 418 q 443 481 437 468 q 473 500 458 485 q 473 472 471 483 q 511 446 478 443 q 544 476 524 446 q 575 535 563 506 l 587 564 q 583 548 585 557 q 575 510 580 538 q 576 471 570 483 m 772 437 q 766 445 769 439 q 758 470 763 450 q 761 515 753 489 q 774 561 766 538 q 786 594 781 583 l 791 604 l 761 618 q 751 618 755 621 q 663 518 696 579 q 715 667 680 594 q 777 757 749 739 q 763 763 772 760 q 737 766 755 766 q 711 751 719 765 q 640 574 662 673 q 625 471 622 495 q 634 453 627 462 q 647 439 641 444 l 654 435 q 688 530 655 488 q 718 567 704 552 q 739 586 732 582 l 745 591 q 741 580 743 587 q 732 554 738 573 q 722 519 726 536 q 719 485 719 503 q 726 457 720 467 q 747 436 736 441 q 765 434 759 431 l 772 437 m 834 408 q 841 523 815 439 q 906 690 867 606 q 1005 692 993 691 q 1040 706 1025 694 q 1062 730 1056 718 l 1068 741 q 985 727 1035 728 q 933 727 968 727 q 876 726 898 726 q 830 725 854 726 q 792 723 805 724 q 756 707 772 720 q 735 681 741 693 l 730 669 q 800 686 740 681 q 858 688 812 686 q 829 612 856 682 q 793 500 803 542 q 791 465 789 480 q 801 439 793 450 q 815 421 808 428 q 829 411 823 414 l 834 408 m 1170 524 q 1188 571 1186 552 q 1183 598 1190 589 q 1137 614 1171 628 q 1104 594 1120 608 q 1080 567 1088 579 l 1071 555 q 1110 648 1108 648 l 1091 648 q 1059 631 1067 644 q 1019 519 1040 580 q 1017 514 1018 518 q 1015 509 1015 510 q 982 490 996 496 q 1003 550 989 514 q 1026 610 1017 587 l 1036 634 q 988 619 1000 632 q 966 587 986 616 q 927 536 945 557 q 903 521 909 516 q 902 529 901 523 q 908 546 903 536 q 919 567 913 556 q 931 590 924 578 q 943 611 937 602 q 952 626 948 620 l 956 632 q 942 631 950 632 q 919 624 935 631 q 897 607 903 618 q 866 504 852 522 q 883 497 871 497 q 910 504 895 496 q 938 528 926 512 l 983 588 q 945 473 962 521 q 919 457 936 467 q 895 443 902 448 q 878 429 888 439 q 858 408 867 420 q 842 372 844 390 q 847 344 840 354 q 873 335 855 334 q 914 352 892 336 q 941 384 929 363 q 959 418 954 404 q 977 473 964 432 q 1008 491 996 485 q 985 412 991 440 q 989 383 981 399 q 1005 358 996 368 l 1015 349 q 1037 456 1010 366 q 1073 542 1053 506 q 1115 587 1088 568 q 1150 600 1142 606 q 1151 580 1154 595 q 1141 551 1148 565 q 1107 509 1128 524 q 1073 493 1086 494 l 1059 492 q 1066 487 1061 490 q 1084 480 1070 484 q 1110 478 1097 477 q 1140 490 1123 479 q 1170 524 1156 502 m 1278 614 q 1308 630 1293 630 q 1321 618 1322 630 q 1303 589 1320 606 q 1283 578 1295 581 q 1263 577 1271 576 l 1256 578 q 1259 572 1257 576 q 1271 562 1261 568 q 1293 557 1280 556 q 1330 574 1318 558 q 1341 611 1343 590 q 1326 635 1341 625 q 1290 647 1312 646 q 1244 631 1269 648 q 1207 590 1222 615 q 1193 536 1192 565 q 1215 490 1193 508 q 1254 481 1232 477 q 1297 496 1276 485 q 1329 519 1317 507 q 1334 531 1332 524 q 1336 545 1336 539 l 1337 550 q 1283 507 1320 524 q 1235 506 1245 490 q 1240 555 1225 522 q 1278 614 1255 588 m 369 555 q 383 511 370 532 q 415 484 396 490 q 394 441 406 451 q 369 436 383 432 q 356 474 356 439 q 363 536 355 509 q 369 555 366 544 m 648 144 q 634 149 640 144 q 629 162 629 155 q 632 176 629 170 q 641 186 635 183 q 655 191 647 191 q 669 185 664 191 q 675 172 675 180 q 671 158 675 165 q 663 148 668 152 q 648 144 656 144 m 1152 94 l 243 94 l 272 243 l 1181 243 l 1152 94 m 1124 203 l 1061 203 l 1058 190 l 1081 190 l 1069 131 l 1086 131 l 1098 190 l 1121 190 l 1124 203 m 967 203 l 953 131 l 969 131 l 978 176 l 1005 131 l 1019 131 l 1034 203 l 1017 203 l 1008 158 l 981 203 l 967 203 m 871 199 q 854 183 860 192 q 849 161 849 174 q 853 144 849 152 q 865 134 857 138 q 884 130 873 130 q 907 136 897 130 q 924 151 918 142 q 929 173 929 160 q 925 190 929 183 q 913 201 921 197 q 894 205 905 205 q 871 199 881 205 m 777 203 l 763 131 l 780 131 l 785 157 l 819 157 l 821 171 l 787 171 l 791 190 l 829 190 l 832 203 l 777 203 m 633 199 q 617 183 623 192 q 612 161 612 174 q 616 144 612 152 q 628 134 620 138 q 647 130 636 130 q 670 136 660 130 q 686 151 681 142 q 692 173 692 160 q 688 190 692 183 q 675 201 684 197 q 656 205 667 205 q 633 199 644 205 m 520 203 l 507 203 l 492 131 l 508 131 l 517 174 l 532 138 l 539 138 l 566 174 l 558 131 l 574 131 l 588 203 l 574 203 l 538 158 l 520 203 m 418 203 l 404 131 l 460 131 l 463 144 l 424 144 l 427 161 l 460 161 l 463 174 l 429 174 l 433 190 l 471 190 l 473 203 l 418 203 m 345 203 l 315 203 l 300 131 l 336 131 q 359 136 349 131 q 375 151 368 140 q 380 173 380 159 q 376 189 380 182 q 364 199 373 195 q 345 203 356 203 m 886 144 q 871 149 877 144 q 866 162 866 155 q 869 176 866 170 q 878 186 873 183 q 892 191 884 191 q 907 185 901 191 q 912 172 912 180 q 909 158 912 165 q 900 148 905 152 q 886 144 894 144 m 351 149 q 336 144 345 144 l 320 144 l 329 190 l 343 190 q 359 185 354 190 q 363 172 363 180 q 361 158 363 163 q 351 149 359 154 z "},"-":{"ha":1423,"x_min":26,"x_max":1398,"o":"m 869 401 q 938 452 888 429 q 910 387 922 408 q 885 361 899 366 q 859 367 863 353 q 869 401 855 380 m 392 570 q 418 555 410 600 q 419 498 424 519 l 419 497 q 392 530 401 507 q 392 570 382 553 m 1396 578 q 1386 533 1398 553 q 1392 516 1392 526 q 1375 465 1392 482 q 1327 430 1358 445 q 1268 415 1297 415 q 1219 431 1239 415 q 1202 449 1210 438 q 1125 412 1168 412 q 1092 418 1109 412 q 1091 415 1092 417 q 1090 413 1090 414 q 1068 323 1067 336 q 1067 303 1071 313 q 1055 288 1063 294 q 1038 283 1047 283 q 1017 292 1025 283 q 988 326 1000 306 q 956 292 973 304 q 894 269 924 269 q 840 302 868 269 q 817 336 827 315 q 810 371 809 350 q 808 372 810 372 q 807 374 807 373 q 782 368 796 368 q 722 407 746 368 q 716 419 718 414 q 714 421 715 420 q 712 424 713 423 l 709 401 q 692 374 707 383 q 677 370 686 370 q 661 374 669 370 q 659 376 661 375 q 655 378 657 376 q 650 381 652 379 q 643 379 650 381 l 639 378 q 631 378 635 378 q 578 406 597 378 q 536 380 559 382 q 532 380 534 380 q 528 380 529 380 q 477 404 494 380 q 399 358 445 358 q 340 382 366 358 q 343 356 340 372 q 329 324 347 335 q 312 319 321 319 q 294 325 301 319 l 292 327 q 287 331 290 328 q 280 336 284 333 q 272 345 277 340 q 263 355 268 349 q 254 368 259 361 q 244 384 249 376 q 225 411 232 399 q 231 351 220 370 q 230 320 239 336 q 203 304 221 304 q 144 333 169 304 q 100 417 106 378 q 83 411 91 411 q 72 413 77 411 q 38 444 49 422 q 28 480 26 465 q 29 489 28 482 q 37 508 31 495 q 53 532 43 520 q 83 556 63 544 q 129 576 103 569 q 156 662 144 633 q 173 696 168 690 q 187 705 178 701 q 200 707 193 707 q 264 668 227 707 q 268 663 267 665 q 317 756 284 701 q 374 787 336 787 q 425 774 399 787 q 449 746 433 770 q 465 713 465 722 q 451 685 467 695 q 432 667 444 680 q 470 635 455 654 q 476 618 475 628 l 477 618 q 479 616 479 617 q 499 643 489 634 q 555 665 522 665 q 610 640 592 665 q 625 641 615 641 q 684 768 646 706 q 741 798 703 798 q 791 785 766 798 q 808 758 807 777 l 808 756 q 930 759 851 759 l 985 759 q 1022 762 1004 759 q 1048 768 1040 765 l 1057 770 q 1068 772 1063 772 q 1091 763 1082 772 q 1104 744 1095 759 q 1114 729 1114 730 q 1121 694 1128 711 q 1113 680 1118 688 q 1141 656 1136 675 q 1141 648 1141 654 q 1155 650 1149 650 q 1199 631 1181 650 q 1225 656 1209 643 q 1290 678 1255 678 q 1375 629 1339 678 q 1396 578 1394 606 m 288 385 q 298 523 279 442 q 350 666 318 604 q 410 746 382 728 q 396 752 405 749 q 370 754 388 755 q 344 740 352 753 q 288 631 309 684 q 262 540 267 578 q 257 481 258 502 q 260 447 257 461 q 235 531 240 481 q 236 613 231 581 l 241 646 q 232 654 238 649 q 215 668 227 660 q 198 675 203 677 q 154 550 187 671 q 110 535 129 545 q 82 516 92 526 q 67 497 73 507 q 61 483 62 488 l 60 477 q 144 513 74 498 q 133 460 134 469 q 132 417 129 434 q 143 390 135 399 q 159 376 151 380 q 174 371 167 372 l 180 370 q 169 421 170 389 q 176 484 169 452 q 191 544 182 515 q 206 591 199 573 l 214 609 q 226 494 215 546 q 249 432 233 460 q 277 395 264 405 l 288 385 m 576 471 q 589 450 579 456 q 606 444 598 443 l 614 444 q 610 450 612 446 q 605 471 608 454 q 607 513 602 488 q 616 558 610 534 q 627 595 622 582 l 631 610 q 586 595 595 611 q 559 539 571 568 q 534 492 547 511 q 507 472 515 465 q 509 508 500 478 q 531 566 517 537 q 557 607 547 599 q 587 609 567 615 q 579 627 590 619 q 551 633 568 634 q 520 620 533 631 q 477 525 492 593 q 448 496 465 503 q 454 545 455 526 q 439 599 452 585 q 405 611 427 614 q 445 616 422 623 q 436 626 441 620 q 413 641 430 633 q 381 643 396 648 q 333 568 355 633 q 321 468 310 503 q 366 424 334 431 q 429 456 399 418 q 443 481 437 468 q 473 500 458 485 q 473 472 471 483 q 511 446 478 443 q 544 476 524 446 q 575 535 563 506 l 587 564 q 583 548 585 557 q 575 510 580 538 q 576 471 570 483 m 772 437 q 766 445 769 439 q 758 470 763 450 q 761 515 753 489 q 774 561 766 538 q 786 594 781 583 l 791 604 l 761 618 q 751 618 755 621 q 663 518 696 579 q 715 667 680 594 q 777 757 749 739 q 763 763 772 760 q 737 766 755 766 q 711 751 719 765 q 640 574 662 673 q 625 471 622 495 q 634 453 627 462 q 647 439 641 444 l 654 435 q 688 530 655 488 q 718 567 704 552 q 739 586 732 582 l 745 591 q 741 580 743 587 q 732 554 738 573 q 722 519 726 536 q 719 485 719 503 q 726 457 720 467 q 747 436 736 441 q 765 434 759 431 l 772 437 m 834 408 q 841 523 815 439 q 906 690 867 606 q 1005 692 993 691 q 1040 706 1025 694 q 1062 730 1056 718 l 1068 741 q 985 727 1035 728 q 933 727 968 727 q 876 726 898 726 q 830 725 854 726 q 792 723 805 724 q 756 707 772 720 q 735 681 741 693 l 730 669 q 800 686 740 681 q 858 688 812 686 q 829 612 856 682 q 793 500 803 542 q 791 465 789 480 q 801 439 793 450 q 815 421 808 428 q 829 411 823 414 l 834 408 m 1170 524 q 1188 571 1186 552 q 1183 598 1190 589 q 1137 614 1171 628 q 1104 594 1120 608 q 1080 567 1088 579 l 1071 555 q 1110 648 1108 648 l 1091 648 q 1059 631 1067 644 q 1019 519 1040 580 q 1017 514 1018 518 q 1015 509 1015 510 q 982 490 996 496 q 1003 550 989 514 q 1026 610 1017 587 l 1036 634 q 988 619 1000 632 q 966 587 986 616 q 927 536 945 557 q 903 521 909 516 q 902 529 901 523 q 908 546 903 536 q 919 567 913 556 q 931 590 924 578 q 943 611 937 602 q 952 626 948 620 l 956 632 q 942 631 950 632 q 919 624 935 631 q 897 607 903 618 q 866 504 852 522 q 883 497 871 497 q 910 504 895 496 q 938 528 926 512 l 983 588 q 945 473 962 521 q 919 457 936 467 q 895 443 902 448 q 878 429 888 439 q 858 408 867 420 q 842 372 844 390 q 847 344 840 354 q 873 335 855 334 q 914 352 892 336 q 941 384 929 363 q 959 418 954 404 q 977 473 964 432 q 1008 491 996 485 q 985 412 991 440 q 989 383 981 399 q 1005 358 996 368 l 1015 349 q 1037 456 1010 366 q 1073 542 1053 506 q 1115 587 1088 568 q 1150 600 1142 606 q 1151 580 1154 595 q 1141 551 1148 565 q 1107 509 1128 524 q 1073 493 1086 494 l 1059 492 q 1066 487 1061 490 q 1084 480 1070 484 q 1110 478 1097 477 q 1140 490 1123 479 q 1170 524 1156 502 m 1278 614 q 1308 630 1293 630 q 1321 618 1322 630 q 1303 589 1320 606 q 1283 578 1295 581 q 1263 577 1271 576 l 1256 578 q 1259 572 1257 576 q 1271 562 1261 568 q 1293 557 1280 556 q 1330 574 1318 558 q 1341 611 1343 590 q 1326 635 1341 625 q 1290 647 1312 646 q 1244 631 1269 648 q 1207 590 1222 615 q 1193 536 1192 565 q 1215 490 1193 508 q 1254 481 1232 477 q 1297 496 1276 485 q 1329 519 1317 507 q 1334 531 1332 524 q 1336 545 1336 539 l 1337 550 q 1283 507 1320 524 q 1235 506 1245 490 q 1240 555 1225 522 q 1278 614 1255 588 m 369 555 q 383 511 370 532 q 415 484 396 490 q 394 441 406 451 q 369 436 383 432 q 356 474 356 439 q 363 536 355 509 q 369 555 366 544 m 648 144 q 634 149 640 144 q 629 162 629 155 q 632 176 629 170 q 641 186 635 183 q 655 191 647 191 q 669 185 664 191 q 675 172 675 180 q 671 158 675 165 q 663 148 668 152 q 648 144 656 144 m 1152 94 l 243 94 l 272 243 l 1181 243 l 1152 94 m 1124 203 l 1061 203 l 1058 190 l 1081 190 l 1069 131 l 1086 131 l 1098 190 l 1121 190 l 1124 203 m 967 203 l 953 131 l 969 131 l 978 176 l 1005 131 l 1019 131 l 1034 203 l 1017 203 l 1008 158 l 981 203 l 967 203 m 871 199 q 854 183 860 192 q 849 161 849 174 q 853 144 849 152 q 865 134 857 138 q 884 130 873 130 q 907 136 897 130 q 924 151 918 142 q 929 173 929 160 q 925 190 929 183 q 913 201 921 197 q 894 205 905 205 q 871 199 881 205 m 777 203 l 763 131 l 780 131 l 785 157 l 819 157 l 821 171 l 787 171 l 791 190 l 829 190 l 832 203 l 777 203 m 633 199 q 617 183 623 192 q 612 161 612 174 q 616 144 612 152 q 628 134 620 138 q 647 130 636 130 q 670 136 660 130 q 686 151 681 142 q 692 173 692 160 q 688 190 692 183 q 675 201 684 197 q 656 205 667 205 q 633 199 644 205 m 520 203 l 507 203 l 492 131 l 508 131 l 517 174 l 532 138 l 539 138 l 566 174 l 558 131 l 574 131 l 588 203 l 574 203 l 538 158 l 520 203 m 418 203 l 404 131 l 460 131 l 463 144 l 424 144 l 427 161 l 460 161 l 463 174 l 429 174 l 433 190 l 471 190 l 473 203 l 418 203 m 345 203 l 315 203 l 300 131 l 336 131 q 359 136 349 131 q 375 151 368 140 q 380 173 380 159 q 376 189 380 182 q 364 199 373 195 q 345 203 356 203 m 886 144 q 871 149 877 144 q 866 162 866 155 q 869 176 866 170 q 878 186 873 183 q 892 191 884 191 q 907 185 901 191 q 912 172 912 180 q 909 158 912 165 q 900 148 905 152 q 886 144 894 144 m 351 149 q 336 144 345 144 l 320 144 l 329 190 l 343 190 q 359 185 354 190 q 363 172 363 180 q 361 158 363 163 q 351 149 359 154 z "},".":{"ha":1423,"x_min":26,"x_max":1398,"o":"m 869 401 q 938 452 888 429 q 910 387 922 408 q 885 361 899 366 q 859 367 863 353 q 869 401 855 380 m 392 570 q 418 555 410 600 q 419 498 424 519 l 419 497 q 392 530 401 507 q 392 570 382 553 m 1396 578 q 1386 533 1398 553 q 1392 516 1392 526 q 1375 465 1392 482 q 1327 430 1358 445 q 1268 415 1297 415 q 1219 431 1239 415 q 1202 449 1210 438 q 1125 412 1168 412 q 1092 418 1109 412 q 1091 415 1092 417 q 1090 413 1090 414 q 1068 323 1067 336 q 1067 303 1071 313 q 1055 288 1063 294 q 1038 283 1047 283 q 1017 292 1025 283 q 988 326 1000 306 q 956 292 973 304 q 894 269 924 269 q 840 302 868 269 q 817 336 827 315 q 810 371 809 350 q 808 372 810 372 q 807 374 807 373 q 782 368 796 368 q 722 407 746 368 q 716 419 718 414 q 714 421 715 420 q 712 424 713 423 l 709 401 q 692 374 707 383 q 677 370 686 370 q 661 374 669 370 q 659 376 661 375 q 655 378 657 376 q 650 381 652 379 q 643 379 650 381 l 639 378 q 631 378 635 378 q 578 406 597 378 q 536 380 559 382 q 532 380 534 380 q 528 380 529 380 q 477 404 494 380 q 399 358 445 358 q 340 382 366 358 q 343 356 340 372 q 329 324 347 335 q 312 319 321 319 q 294 325 301 319 l 292 327 q 287 331 290 328 q 280 336 284 333 q 272 345 277 340 q 263 355 268 349 q 254 368 259 361 q 244 384 249 376 q 225 411 232 399 q 231 351 220 370 q 230 320 239 336 q 203 304 221 304 q 144 333 169 304 q 100 417 106 378 q 83 411 91 411 q 72 413 77 411 q 38 444 49 422 q 28 480 26 465 q 29 489 28 482 q 37 508 31 495 q 53 532 43 520 q 83 556 63 544 q 129 576 103 569 q 156 662 144 633 q 173 696 168 690 q 187 705 178 701 q 200 707 193 707 q 264 668 227 707 q 268 663 267 665 q 317 756 284 701 q 374 787 336 787 q 425 774 399 787 q 449 746 433 770 q 465 713 465 722 q 451 685 467 695 q 432 667 444 680 q 470 635 455 654 q 476 618 475 628 l 477 618 q 479 616 479 617 q 499 643 489 634 q 555 665 522 665 q 610 640 592 665 q 625 641 615 641 q 684 768 646 706 q 741 798 703 798 q 791 785 766 798 q 808 758 807 777 l 808 756 q 930 759 851 759 l 985 759 q 1022 762 1004 759 q 1048 768 1040 765 l 1057 770 q 1068 772 1063 772 q 1091 763 1082 772 q 1104 744 1095 759 q 1114 729 1114 730 q 1121 694 1128 711 q 1113 680 1118 688 q 1141 656 1136 675 q 1141 648 1141 654 q 1155 650 1149 650 q 1199 631 1181 650 q 1225 656 1209 643 q 1290 678 1255 678 q 1375 629 1339 678 q 1396 578 1394 606 m 288 385 q 298 523 279 442 q 350 666 318 604 q 410 746 382 728 q 396 752 405 749 q 370 754 388 755 q 344 740 352 753 q 288 631 309 684 q 262 540 267 578 q 257 481 258 502 q 260 447 257 461 q 235 531 240 481 q 236 613 231 581 l 241 646 q 232 654 238 649 q 215 668 227 660 q 198 675 203 677 q 154 550 187 671 q 110 535 129 545 q 82 516 92 526 q 67 497 73 507 q 61 483 62 488 l 60 477 q 144 513 74 498 q 133 460 134 469 q 132 417 129 434 q 143 390 135 399 q 159 376 151 380 q 174 371 167 372 l 180 370 q 169 421 170 389 q 176 484 169 452 q 191 544 182 515 q 206 591 199 573 l 214 609 q 226 494 215 546 q 249 432 233 460 q 277 395 264 405 l 288 385 m 576 471 q 589 450 579 456 q 606 444 598 443 l 614 444 q 610 450 612 446 q 605 471 608 454 q 607 513 602 488 q 616 558 610 534 q 627 595 622 582 l 631 610 q 586 595 595 611 q 559 539 571 568 q 534 492 547 511 q 507 472 515 465 q 509 508 500 478 q 531 566 517 537 q 557 607 547 599 q 587 609 567 615 q 579 627 590 619 q 551 633 568 634 q 520 620 533 631 q 477 525 492 593 q 448 496 465 503 q 454 545 455 526 q 439 599 452 585 q 405 611 427 614 q 445 616 422 623 q 436 626 441 620 q 413 641 430 633 q 381 643 396 648 q 333 568 355 633 q 321 468 310 503 q 366 424 334 431 q 429 456 399 418 q 443 481 437 468 q 473 500 458 485 q 473 472 471 483 q 511 446 478 443 q 544 476 524 446 q 575 535 563 506 l 587 564 q 583 548 585 557 q 575 510 580 538 q 576 471 570 483 m 772 437 q 766 445 769 439 q 758 470 763 450 q 761 515 753 489 q 774 561 766 538 q 786 594 781 583 l 791 604 l 761 618 q 751 618 755 621 q 663 518 696 579 q 715 667 680 594 q 777 757 749 739 q 763 763 772 760 q 737 766 755 766 q 711 751 719 765 q 640 574 662 673 q 625 471 622 495 q 634 453 627 462 q 647 439 641 444 l 654 435 q 688 530 655 488 q 718 567 704 552 q 739 586 732 582 l 745 591 q 741 580 743 587 q 732 554 738 573 q 722 519 726 536 q 719 485 719 503 q 726 457 720 467 q 747 436 736 441 q 765 434 759 431 l 772 437 m 834 408 q 841 523 815 439 q 906 690 867 606 q 1005 692 993 691 q 1040 706 1025 694 q 1062 730 1056 718 l 1068 741 q 985 727 1035 728 q 933 727 968 727 q 876 726 898 726 q 830 725 854 726 q 792 723 805 724 q 756 707 772 720 q 735 681 741 693 l 730 669 q 800 686 740 681 q 858 688 812 686 q 829 612 856 682 q 793 500 803 542 q 791 465 789 480 q 801 439 793 450 q 815 421 808 428 q 829 411 823 414 l 834 408 m 1170 524 q 1188 571 1186 552 q 1183 598 1190 589 q 1137 614 1171 628 q 1104 594 1120 608 q 1080 567 1088 579 l 1071 555 q 1110 648 1108 648 l 1091 648 q 1059 631 1067 644 q 1019 519 1040 580 q 1017 514 1018 518 q 1015 509 1015 510 q 982 490 996 496 q 1003 550 989 514 q 1026 610 1017 587 l 1036 634 q 988 619 1000 632 q 966 587 986 616 q 927 536 945 557 q 903 521 909 516 q 902 529 901 523 q 908 546 903 536 q 919 567 913 556 q 931 590 924 578 q 943 611 937 602 q 952 626 948 620 l 956 632 q 942 631 950 632 q 919 624 935 631 q 897 607 903 618 q 866 504 852 522 q 883 497 871 497 q 910 504 895 496 q 938 528 926 512 l 983 588 q 945 473 962 521 q 919 457 936 467 q 895 443 902 448 q 878 429 888 439 q 858 408 867 420 q 842 372 844 390 q 847 344 840 354 q 873 335 855 334 q 914 352 892 336 q 941 384 929 363 q 959 418 954 404 q 977 473 964 432 q 1008 491 996 485 q 985 412 991 440 q 989 383 981 399 q 1005 358 996 368 l 1015 349 q 1037 456 1010 366 q 1073 542 1053 506 q 1115 587 1088 568 q 1150 600 1142 606 q 1151 580 1154 595 q 1141 551 1148 565 q 1107 509 1128 524 q 1073 493 1086 494 l 1059 492 q 1066 487 1061 490 q 1084 480 1070 484 q 1110 478 1097 477 q 1140 490 1123 479 q 1170 524 1156 502 m 1278 614 q 1308 630 1293 630 q 1321 618 1322 630 q 1303 589 1320 606 q 1283 578 1295 581 q 1263 577 1271 576 l 1256 578 q 1259 572 1257 576 q 1271 562 1261 568 q 1293 557 1280 556 q 1330 574 1318 558 q 1341 611 1343 590 q 1326 635 1341 625 q 1290 647 1312 646 q 1244 631 1269 648 q 1207 590 1222 615 q 1193 536 1192 565 q 1215 490 1193 508 q 1254 481 1232 477 q 1297 496 1276 485 q 1329 519 1317 507 q 1334 531 1332 524 q 1336 545 1336 539 l 1337 550 q 1283 507 1320 524 q 1235 506 1245 490 q 1240 555 1225 522 q 1278 614 1255 588 m 369 555 q 383 511 370 532 q 415 484 396 490 q 394 441 406 451 q 369 436 383 432 q 356 474 356 439 q 363 536 355 509 q 369 555 366 544 m 648 144 q 634 149 640 144 q 629 162 629 155 q 632 176 629 170 q 641 186 635 183 q 655 191 647 191 q 669 185 664 191 q 675 172 675 180 q 671 158 675 165 q 663 148 668 152 q 648 144 656 144 m 1152 94 l 243 94 l 272 243 l 1181 243 l 1152 94 m 1124 203 l 1061 203 l 1058 190 l 1081 190 l 1069 131 l 1086 131 l 1098 190 l 1121 190 l 1124 203 m 967 203 l 953 131 l 969 131 l 978 176 l 1005 131 l 1019 131 l 1034 203 l 1017 203 l 1008 158 l 981 203 l 967 203 m 871 199 q 854 183 860 192 q 849 161 849 174 q 853 144 849 152 q 865 134 857 138 q 884 130 873 130 q 907 136 897 130 q 924 151 918 142 q 929 173 929 160 q 925 190 929 183 q 913 201 921 197 q 894 205 905 205 q 871 199 881 205 m 777 203 l 763 131 l 780 131 l 785 157 l 819 157 l 821 171 l 787 171 l 791 190 l 829 190 l 832 203 l 777 203 m 633 199 q 617 183 623 192 q 612 161 612 174 q 616 144 612 152 q 628 134 620 138 q 647 130 636 130 q 670 136 660 130 q 686 151 681 142 q 692 173 692 160 q 688 190 692 183 q 675 201 684 197 q 656 205 667 205 q 633 199 644 205 m 520 203 l 507 203 l 492 131 l 508 131 l 517 174 l 532 138 l 539 138 l 566 174 l 558 131 l 574 131 l 588 203 l 574 203 l 538 158 l 520 203 m 418 203 l 404 131 l 460 131 l 463 144 l 424 144 l 427 161 l 460 161 l 463 174 l 429 174 l 433 190 l 471 190 l 473 203 l 418 203 m 345 203 l 315 203 l 300 131 l 336 131 q 359 136 349 131 q 375 151 368 140 q 380 173 380 159 q 376 189 380 182 q 364 199 373 195 q 345 203 356 203 m 886 144 q 871 149 877 144 q 866 162 866 155 q 869 176 866 170 q 878 186 873 183 q 892 191 884 191 q 907 185 901 191 q 912 172 912 180 q 909 158 912 165 q 900 148 905 152 q 886 144 894 144 m 351 149 q 336 144 345 144 l 320 144 l 329 190 l 343 190 q 359 185 354 190 q 363 172 363 180 q 361 158 363 163 q 351 149 359 154 z "}}}
